{
.appVersion = "1342";
DisplayStrings = (
"/space",
"/nbspace"
);
classes = (
{
code = "Ya.GGondi  Va.GGondi  Ba.GGondi  Bha.GGondi Ma.GGondi  Ka.GGondi  Kha.GGondi  Ta.GGondi Tha.GGondi  La.GGondi  Ga.GGondi  Gha.GGondi Da.GGondi  Dha.GGondi  Na.GGondi  Ca.GGondi ChaHalf.GGondi  Tta.GGondi  Ttha.GGondi  Lla.GGondi Ja.GGondi  Jha.GGondi  Dda.GGondi  Ddha.GGondi Nga.GGondi  Pa.GGondi  Pha.GGondi  Ha.GGondi Ra.GGondi  Sa.GGondi \012";
name = Base;
},
{
code = "YaMatraAa.GGondi  VaMatraAa.GGondi  BaMatraAa.GGondi  BhaMatraAa.GGondi MaMatraAa.GGondi  KaMatraAa.GGondi  KhaMatraAa.GGondi  TaMatraAa.GGondi ThaMatraAa.GGondi  LaMatraAa.GGondi  GaMatraAa.GGondi  GhaMatraAa.GGondi DaMatraAa.GGondi  DhaMatraAa.GGondi  NaMatraAa.GGondi  CaMatraAa.GGondi ChaMatraAa.GGondi  TtaMatraAa.GGondi  TthaMatraAa.GGondi  LlaMatraAa.GGondi JaMatraAa.GGondi  JhaMatraAa.GGondi  DdaMatraAa.GGondi  DdhaMatraAa.GGondi NgaMatraAa.GGondi  PaMatraAa.GGondi  PhaMatraAa.GGondi  HaMatraAa.GGondi RaMatraAa.GGondi  SaMatraAa.GGondi ";
name = BaseMatraAa;
},
{

glyphs = (
{
glyphname = VowelA.GGondi;
lastChange = "2019-10-04 20:07:41 +0000";
layers = (
{
anchors = (
{
name = top;
position = "{663, 656}";
}
);
background = {
anchors = (
{
name = top;
position = "{663, 656}";
}
);
paths = (
{
closed = 1;
nodes = (
"624 561 LINE",
"624 193 LINE SMOOTH",
"624 127 OFFCURVE",
"593 83 OFFCURVE",
"524 83 CURVE SMOOTH",
"461 83 OFFCURVE",
"419 125 OFFCURVE",
"419 189 CURVE SMOOTH",
"419 468 LINE",
"341 468 LINE",
"341 188 LINE SMOOTH",
"341 122 OFFCURVE",
"292 83 OFFCURVE",
"229 83 CURVE SMOOTH",
"172 83 OFFCURVE",
"126 119 OFFCURVE",
"126 187 CURVE SMOOTH",
"126 252 OFFCURVE",
"170 288 OFFCURVE",
"227 288 CURVE SMOOTH",
"231 288 OFFCURVE",
"234 288 OFFCURVE",
"241 287 CURVE",
"248 354 LINE",
"241 355 OFFCURVE",
"231 356 OFFCURVE",
"219 356 CURVE SMOOTH",
"131 356 OFFCURVE",
"46 299 OFFCURVE",
"46 187 CURVE SMOOTH",
"46 77 OFFCURVE",
"127 15 OFFCURVE",
"223 15 CURVE SMOOTH",
"293 15 OFFCURVE",
"351 41 OFFCURVE",
"378 99 CURVE",
"401 45 OFFCURVE",
"458 15 OFFCURVE",
"528 15 CURVE SMOOTH",
"638 15 OFFCURVE",
"702 79 OFFCURVE",
"702 185 CURVE SMOOTH",
"702 561 LINE",
"812 561 LINE",
"812 622 LINE",
"-10 622 LINE",
"-10 561 LINE"
);
}
);
};
layerId = "1D9335A4-69BC-4202-817B-D13DAA30F854";
paths = (
{
closed = 1;
nodes = (
"624 561 LINE",
"624 193 LINE SMOOTH",
"624 127 OFFCURVE",
"593 83 OFFCURVE",
"524 83 CURVE SMOOTH",
"461 83 OFFCURVE",
"419 125 OFFCURVE",
"419 189 CURVE SMOOTH",
"419 468 LINE",
"341 468 LINE",
"341 188 LINE SMOOTH",
"341 122 OFFCURVE",
"292 83 OFFCURVE",
"229 83 CURVE SMOOTH",
"172 83 OFFCURVE",
"126 119 OFFCURVE",
"126 187 CURVE SMOOTH",
"126 252 OFFCURVE",
"170 288 OFFCURVE",
"227 288 CURVE SMOOTH",
"231 288 OFFCURVE",
"234 288 OFFCURVE",
"241 287 CURVE",
"248 354 LINE",
"241 355 OFFCURVE",
"231 356 OFFCURVE",
"219 356 CURVE SMOOTH",
"131 356 OFFCURVE",
"46 299 OFFCURVE",
"46 187 CURVE SMOOTH",
"46 77 OFFCURVE",
"127 15 OFFCURVE",
"223 15 CURVE SMOOTH",
"293 15 OFFCURVE",
"351 41 OFFCURVE",
"378 99 CURVE",
"401 45 OFFCURVE",
"458 15 OFFCURVE",
"528 15 CURVE SMOOTH",
"638 15 OFFCURVE",
"702 79 OFFCURVE",
"702 185 CURVE SMOOTH",
"702 561 LINE",
"812 561 LINE",
"812 622 LINE",
"-10 622 LINE",
"-10 561 LINE"
);
}
);
width = 802;
}
);
unicode = 11D60;
},
{
glyphname = VowelAa.GGondi;
lastChange = "2019-10-04 20:07:41 +0000";
layers = (
{
anchors = (
{
name = top;
position = "{663, 656}";
}
);
background = {
anchors = (
{
name = top;
position = "{663, 656}";
}
);
paths = (
{
closed = 1;
nodes = (
"624 561 LINE",
"624 442 LINE SMOOTH",
"624 399 OFFCURVE",
"634 367 OFFCURVE",
"654 342 CURVE",
"635 317 OFFCURVE",
"624 283 OFFCURVE",
"624 242 CURVE SMOOTH",
"624 193 LINE SMOOTH",
"624 127 OFFCURVE",
"594 83 OFFCURVE",
"524 83 CURVE SMOOTH",
"461 83 OFFCURVE",
"419 125 OFFCURVE",
"419 189 CURVE SMOOTH",
"419 468 LINE",
"341 468 LINE",
"341 188 LINE SMOOTH",
"341 122 OFFCURVE",
"292 83 OFFCURVE",
"229 83 CURVE SMOOTH",
"172 83 OFFCURVE",
"126 119 OFFCURVE",
"126 187 CURVE SMOOTH",
"126 252 OFFCURVE",
"170 288 OFFCURVE",
"227 288 CURVE SMOOTH",
"231 288 OFFCURVE",
"234 288 OFFCURVE",
"241 287 CURVE",
"248 354 LINE",
"241 355 OFFCURVE",
"231 356 OFFCURVE",
"219 356 CURVE SMOOTH",
"131 356 OFFCURVE",
"46 299 OFFCURVE",
"46 187 CURVE SMOOTH",
"46 77 OFFCURVE",
"127 15 OFFCURVE",
"223 15 CURVE SMOOTH",
"293 15 OFFCURVE",
"351 41 OFFCURVE",
"378 99 CURVE",
"401 45 OFFCURVE",
"458 15 OFFCURVE",
"528 15 CURVE SMOOTH",
"638 15 OFFCURVE",
"702 79 OFFCURVE",
"702 185 CURVE SMOOTH",
"702 259 LINE",
"721 236 OFFCURVE",
"748 224 OFFCURVE",
"782 224 CURVE SMOOTH",
"845 224 OFFCURVE",
"891 263 OFFCURVE",
"891 329 CURVE SMOOTH",
"891 401 OFFCURVE",
"839 437 OFFCURVE",
"784 441 CURVE",
"752 441 OFFCURVE",
"721 429 OFFCURVE",
"701 406 CURVE",
"701 561 LINE",
"940 561 LINE",
"940 622 LINE",
"-10 622 LINE",
"-10 561 LINE"
);
},
{
closed = 1;
nodes = (
"722 364 OFFCURVE",
"748 376 OFFCURVE",
"772 376 CURVE SMOOTH",
"801 376 OFFCURVE",
"819 357 OFFCURVE",
"819 330 CURVE SMOOTH",
"819 304 OFFCURVE",
"801 285 OFFCURVE",
"772 285 CURVE SMOOTH",
"745 285 OFFCURVE",
"720 306 OFFCURVE",
"708 329 CURVE"
);
}
);
};
layerId = "1D9335A4-69BC-4202-817B-D13DAA30F854";
paths = (
{
closed = 1;
nodes = (
"624 561 LINE",
"624 442 LINE SMOOTH",
"624 399 OFFCURVE",
"634 367 OFFCURVE",
"654 342 CURVE",
"635 317 OFFCURVE",
"624 283 OFFCURVE",
"624 242 CURVE SMOOTH",
"624 193 LINE SMOOTH",
"624 127 OFFCURVE",
"594 83 OFFCURVE",
"524 83 CURVE SMOOTH",
"461 83 OFFCURVE",
"419 125 OFFCURVE",
"419 189 CURVE SMOOTH",
"419 468 LINE",
"341 468 LINE",
"341 188 LINE SMOOTH",
"341 122 OFFCURVE",
"292 83 OFFCURVE",
"229 83 CURVE SMOOTH",
"172 83 OFFCURVE",
"126 119 OFFCURVE",
"126 187 CURVE SMOOTH",
"126 252 OFFCURVE",
"170 288 OFFCURVE",
"227 288 CURVE SMOOTH",
"231 288 OFFCURVE",
"234 288 OFFCURVE",
"241 287 CURVE",
"248 354 LINE",
"241 355 OFFCURVE",
"231 356 OFFCURVE",
"219 356 CURVE SMOOTH",
"131 356 OFFCURVE",
"46 299 OFFCURVE",
"46 187 CURVE SMOOTH",
"46 77 OFFCURVE",
"127 15 OFFCURVE",
"223 15 CURVE SMOOTH",
"293 15 OFFCURVE",
"351 41 OFFCURVE",
"378 99 CURVE",
"401 45 OFFCURVE",
"458 15 OFFCURVE",
"528 15 CURVE SMOOTH",
"638 15 OFFCURVE",
"702 79 OFFCURVE",
"702 185 CURVE SMOOTH",
"702 259 LINE",
"721 236 OFFCURVE",
"748 224 OFFCURVE",
"782 224 CURVE SMOOTH",
"845 224 OFFCURVE",
"891 263 OFFCURVE",
"891 329 CURVE SMOOTH",
"891 401 OFFCURVE",
"839 437 OFFCURVE",
"784 441 CURVE",
"752 441 OFFCURVE",
"721 429 OFFCURVE",
"701 406 CURVE",
"701 561 LINE",
"940 561 LINE",
"940 622 LINE",
"-10 622 LINE",
"-10 561 LINE"
);
},
{
closed = 1;
nodes = (
"722 364 OFFCURVE",
"748 376 OFFCURVE",
"772 376 CURVE SMOOTH",
"801 376 OFFCURVE",
"819 357 OFFCURVE",
"819 330 CURVE SMOOTH",
"819 304 OFFCURVE",
"801 285 OFFCURVE",
"772 285 CURVE SMOOTH",
"745 285 OFFCURVE",
"720 306 OFFCURVE",
"708 329 CURVE"
);
}
);
width = 930;
}
);
unicode = 11D61;
category = Letter;
},
{
glyphname = VowelI.GGondi;
lastChange = "2019-10-04 20:07:41 +0000";
layers = (
{
background = {
paths = (
{
closed = 1;
nodes = (
"328 561 LINE",
"328 191 LINE SMOOTH",
"328 123 OFFCURVE",
"284 83 OFFCURVE",
"220 83 CURVE SMOOTH",
"156 83 OFFCURVE",
"111 125 OFFCURVE",
"111 192 CURVE SMOOTH",
"111 255 OFFCURVE",
"152 298 OFFCURVE",
"215 298 CURVE SMOOTH",
"225 298 OFFCURVE",
"231 298 OFFCURVE",
"239 297 CURVE",
"246 363 LINE",
"234 365 OFFCURVE",
"223 366 OFFCURVE",
"207 366 CURVE SMOOTH",
"116 366 OFFCURVE",
"31 308 OFFCURVE",
"31 192 CURVE SMOOTH",
"31 81 OFFCURVE",
"111 15 OFFCURVE",
"220 15 CURVE SMOOTH",
"336 15 OFFCURVE",
"406 83 OFFCURVE",
"406 191 CURVE SMOOTH",
"406 561 LINE",
"654 561 LINE",
"654 152 LINE SMOOTH",
"654 115 OFFCURVE",
"634 93 OFFCURVE",
"600 93 CURVE SMOOTH",
"567 93 OFFCURVE",
"548 116 OFFCURVE",
"546 155 CURVE",
"468 155 LINE",
"469 73 OFFCURVE",
"517 25 OFFCURVE",
"600 25 CURVE SMOOTH",
"685 25 OFFCURVE",
"732 75 OFFCURVE",
"732 152 CURVE SMOOTH",
"732 561 LINE",
"842 561 LINE",
"842 622 LINE",
"732 622 LINE",
"732 638 LINE SMOOTH",
"732 762 OFFCURVE",
"645 835 OFFCURVE",
"530 835 CURVE SMOOTH",
"423 835 OFFCURVE",
"328 765 OFFCURVE",
"328 637 CURVE SMOOTH",
"328 622 LINE",
"-10 622 LINE",
"-10 561 LINE"
);
},
{
closed = 1;
nodes = (
"406 635 LINE SMOOTH",
"406 718 OFFCURVE",
"455 767 OFFCURVE",
"530 767 CURVE SMOOTH",
"606 767 OFFCURVE",
"654 719 OFFCURVE",
"654 638 CURVE SMOOTH",
"654 622 LINE",
"406 622 LINE"
);
}
);
};
layerId = "1D9335A4-69BC-4202-817B-D13DAA30F854";
paths = (
{
closed = 1;
nodes = (
"328 561 LINE",
"328 191 LINE SMOOTH",
"328 123 OFFCURVE",
"284 83 OFFCURVE",
"220 83 CURVE SMOOTH",
"156 83 OFFCURVE",
"111 125 OFFCURVE",
"111 192 CURVE SMOOTH",
"111 255 OFFCURVE",
"152 298 OFFCURVE",
"215 298 CURVE SMOOTH",
"225 298 OFFCURVE",
"231 298 OFFCURVE",
"239 297 CURVE",
"246 363 LINE",
"234 365 OFFCURVE",
"223 366 OFFCURVE",
"207 366 CURVE SMOOTH",
"116 366 OFFCURVE",
"31 308 OFFCURVE",
"31 192 CURVE SMOOTH",
"31 81 OFFCURVE",
"111 15 OFFCURVE",
"220 15 CURVE SMOOTH",
"336 15 OFFCURVE",
"406 83 OFFCURVE",
"406 191 CURVE SMOOTH",
"406 561 LINE",
"654 561 LINE",
"654 152 LINE SMOOTH",
"654 115 OFFCURVE",
"634 93 OFFCURVE",
"600 93 CURVE SMOOTH",
"567 93 OFFCURVE",
"548 116 OFFCURVE",
"546 155 CURVE",
"468 155 LINE",
"469 73 OFFCURVE",
"517 25 OFFCURVE",
"600 25 CURVE SMOOTH",
"685 25 OFFCURVE",
"732 75 OFFCURVE",
"732 152 CURVE SMOOTH",
"732 561 LINE",
"842 561 LINE",
"842 622 LINE",
"732 622 LINE",
"732 638 LINE SMOOTH",
"732 762 OFFCURVE",
"645 835 OFFCURVE",
"530 835 CURVE SMOOTH",
"423 835 OFFCURVE",
"328 765 OFFCURVE",
"328 637 CURVE SMOOTH",
"328 622 LINE",
"-10 622 LINE",
"-10 561 LINE"
);
},
{
closed = 1;
nodes = (
"406 635 LINE SMOOTH",
"406 718 OFFCURVE",
"455 767 OFFCURVE",
"530 767 CURVE SMOOTH",
"606 767 OFFCURVE",
"654 719 OFFCURVE",
"654 638 CURVE SMOOTH",
"654 622 LINE",
"406 622 LINE"
);
}
);
width = 832;
}
);
unicode = 11D62;
category = Letter;
},
{
glyphname = VowelIi.GGondi;
lastChange = "2019-10-04 20:07:41 +0000";
layers = (
{
background = {
paths = (
{
closed = 1;
nodes = (
"328 561 LINE",
"328 191 LINE SMOOTH",
"328 123 OFFCURVE",
"284 83 OFFCURVE",
"220 83 CURVE SMOOTH",
"156 83 OFFCURVE",
"111 125 OFFCURVE",
"111 192 CURVE SMOOTH",
"111 255 OFFCURVE",
"152 298 OFFCURVE",
"215 298 CURVE SMOOTH",
"225 298 OFFCURVE",
"231 298 OFFCURVE",
"239 297 CURVE",
"246 363 LINE",
"234 365 OFFCURVE",
"223 366 OFFCURVE",
"207 366 CURVE SMOOTH",
"116 366 OFFCURVE",
"31 308 OFFCURVE",
"31 192 CURVE SMOOTH",
"31 81 OFFCURVE",
"111 15 OFFCURVE",
"220 15 CURVE SMOOTH",
"336 15 OFFCURVE",
"406 83 OFFCURVE",
"406 191 CURVE SMOOTH",
"406 561 LINE",
"594 561 LINE",
"594 25 LINE",
"672 25 LINE",
"672 262 LINE",
"692 274 OFFCURVE",
"718 285 OFFCURVE",
"754 285 CURVE SMOOTH",
"814 285 OFFCURVE",
"857 245 OFFCURVE",
"857 177 CURVE SMOOTH",
"857 115 OFFCURVE",
"842 69 OFFCURVE",
"828 25 CURVE",
"906 25 LINE",
"923 66 OFFCURVE",
"937 125 OFFCURVE",
"937 177 CURVE SMOOTH",
"937 299 OFFCURVE",
"854 353 OFFCURVE",
"771 353 CURVE SMOOTH",
"724 353 OFFCURVE",
"695 342 OFFCURVE",
"672 330 CURVE",
"672 561 LINE",
"1010 561 LINE",
"1010 622 LINE",
"672 622 LINE",
"672 668 LINE SMOOTH",
"672 773 OFFCURVE",
"598 835 OFFCURVE",
"500 835 CURVE SMOOTH",
"409 835 OFFCURVE",
"328 776 OFFCURVE",
"328 667 CURVE SMOOTH",
"328 622 LINE",
"-10 622 LINE",
"-10 561 LINE"
);
},
{
closed = 1;
nodes = (
"406 665 LINE SMOOTH",
"406 729 OFFCURVE",
"443 767 OFFCURVE",
"500 767 CURVE SMOOTH",
"558 767 OFFCURVE",
"594 730 OFFCURVE",
"594 668 CURVE SMOOTH",
"594 622 LINE",
"406 622 LINE"
);
}
);
};
layerId = "1D9335A4-69BC-4202-817B-D13DAA30F854";
paths = (
{
closed = 1;
nodes = (
"328 561 LINE",
"328 191 LINE SMOOTH",
"328 123 OFFCURVE",
"284 83 OFFCURVE",
"220 83 CURVE SMOOTH",
"156 83 OFFCURVE",
"111 125 OFFCURVE",
"111 192 CURVE SMOOTH",
"111 255 OFFCURVE",
"152 298 OFFCURVE",
"215 298 CURVE SMOOTH",
"225 298 OFFCURVE",
"231 298 OFFCURVE",
"239 297 CURVE",
"246 363 LINE",
"234 365 OFFCURVE",
"223 366 OFFCURVE",
"207 366 CURVE SMOOTH",
"116 366 OFFCURVE",
"31 308 OFFCURVE",
"31 192 CURVE SMOOTH",
"31 81 OFFCURVE",
"111 15 OFFCURVE",
"220 15 CURVE SMOOTH",
"336 15 OFFCURVE",
"406 83 OFFCURVE",
"406 191 CURVE SMOOTH",
"406 561 LINE",
"594 561 LINE",
"594 25 LINE",
"672 25 LINE",
"672 262 LINE",
"692 274 OFFCURVE",
"718 285 OFFCURVE",
"754 285 CURVE SMOOTH",
"814 285 OFFCURVE",
"857 245 OFFCURVE",
"857 177 CURVE SMOOTH",
"857 115 OFFCURVE",
"842 69 OFFCURVE",
"828 25 CURVE",
"906 25 LINE",
"923 66 OFFCURVE",
"937 125 OFFCURVE",
"937 177 CURVE SMOOTH",
"937 299 OFFCURVE",
"854 353 OFFCURVE",
"771 353 CURVE SMOOTH",
"724 353 OFFCURVE",
"695 342 OFFCURVE",
"672 330 CURVE",
"672 561 LINE",
"1010 561 LINE",
"1010 622 LINE",
"672 622 LINE",
"672 668 LINE SMOOTH",
"672 773 OFFCURVE",
"598 835 OFFCURVE",
"500 835 CURVE SMOOTH",
"409 835 OFFCURVE",
"328 776 OFFCURVE",
"328 667 CURVE SMOOTH",
"328 622 LINE",
"-10 622 LINE",
"-10 561 LINE"
);
},
{
closed = 1;
nodes = (
"406 665 LINE SMOOTH",
"406 729 OFFCURVE",
"443 767 OFFCURVE",
"500 767 CURVE SMOOTH",
"558 767 OFFCURVE",
"594 730 OFFCURVE",
"594 668 CURVE SMOOTH",
"594 622 LINE",
"406 622 LINE"
);
}
);
width = 1000;
}
);
unicode = 11D63;
category = Letter;
},
{
glyphname = VowelU.GGondi;
lastChange = "2019-10-04 20:07:41 +0000";
layers = (
{
anchors = (
{
name = top;
position = "{616, 656}";
}
);
background = {
anchors = (
{
name = top;
position = "{616, 656}";
}
);
paths = (
{
closed = 1;
nodes = (
"90 561 LINE",
"90 408 LINE",
"268 408 LINE SMOOTH",
"301 408 OFFCURVE",
"320 388 OFFCURVE",
"320 358 CURVE SMOOTH",
"320 332 OFFCURVE",
"303 316 OFFCURVE",
"275 306 CURVE SMOOTH",
"187 274 LINE SMOOTH",
"116 248 OFFCURVE",
"74 203 OFFCURVE",
"74 135 CURVE SMOOTH",
"74 48 OFFCURVE",
"144 2 OFFCURVE",
"263 2 CURVE SMOOTH",
"332 2 OFFCURVE",
"379 16 OFFCURVE",
"414 29 CURVE",
"396 92 LINE",
"362 81 OFFCURVE",
"314 69 OFFCURVE",
"268 69 CURVE SMOOTH",
"182 69 OFFCURVE",
"152 98 OFFCURVE",
"152 138 CURVE SMOOTH",
"152 180 OFFCURVE",
"178 196 OFFCURVE",
"219 211 CURVE SMOOTH",
"305 242 LINE SMOOTH",
"345 256 OFFCURVE",
"374 281 OFFCURVE",
"387 312 CURVE",
"447 312 LINE SMOOTH",
"490 312 OFFCURVE",
"516 310 OFFCURVE",
"534 303 CURVE",
"513 240 OFFCURVE",
"497 191 OFFCURVE",
"497 143 CURVE SMOOTH",
"497 67 OFFCURVE",
"545 38 OFFCURVE",
"597 38 CURVE SMOOTH",
"658 38 OFFCURVE",
"697 75 OFFCURVE",
"697 151 CURVE SMOOTH",
"697 232 OFFCURVE",
"663 292 OFFCURVE",
"625 329 CURVE",
"644 380 OFFCURVE",
"657 454 OFFCURVE",
"657 530 CURVE SMOOTH",
"657 540 OFFCURVE",
"656 551 OFFCURVE",
"656 561 CURVE",
"799 561 LINE",
"799 622 LINE",
"-10 622 LINE",
"-10 561 LINE"
);
},
{
closed = 1;
nodes = (
"166 561 LINE",
"577 561 LINE",
"578 548 OFFCURVE",
"578 538 OFFCURVE",
"578 526 CURVE SMOOTH",
"579 479 OFFCURVE",
"570 411 OFFCURVE",
"558 364 CURVE",
"527 375 OFFCURVE",
"490 380 OFFCURVE",
"447 380 CURVE SMOOTH",
"393 380 LINE",
"383 442 OFFCURVE",
"336 475 OFFCURVE",
"266 475 CURVE SMOOTH",
"166 475 LINE"
);
},
{
closed = 1;
nodes = (
"570 178 OFFCURVE",
"578 213 OFFCURVE",
"595 270 CURVE",
"613 245 OFFCURVE",
"625 205 OFFCURVE",
"625 153 CURVE SMOOTH",
"625 118 OFFCURVE",
"615 99 OFFCURVE",
"597 99 CURVE SMOOTH",
"580 99 OFFCURVE",
"570 114 OFFCURVE",
"570 145 CURVE SMOOTH"
);
}
);
};
layerId = "1D9335A4-69BC-4202-817B-D13DAA30F854";
paths = (
{
closed = 1;
nodes = (
"90 561 LINE",
"90 408 LINE",
"268 408 LINE SMOOTH",
"301 408 OFFCURVE",
"320 388 OFFCURVE",
"320 358 CURVE SMOOTH",
"320 332 OFFCURVE",
"303 316 OFFCURVE",
"275 306 CURVE SMOOTH",
"187 274 LINE SMOOTH",
"116 248 OFFCURVE",
"74 203 OFFCURVE",
"74 135 CURVE SMOOTH",
"74 48 OFFCURVE",
"144 2 OFFCURVE",
"263 2 CURVE SMOOTH",
"332 2 OFFCURVE",
"379 16 OFFCURVE",
"414 29 CURVE",
"396 92 LINE",
"362 81 OFFCURVE",
"314 69 OFFCURVE",
"268 69 CURVE SMOOTH",
"182 69 OFFCURVE",
"152 98 OFFCURVE",
"152 138 CURVE SMOOTH",
"152 180 OFFCURVE",
"178 196 OFFCURVE",
"219 211 CURVE SMOOTH",
"305 242 LINE SMOOTH",
"345 256 OFFCURVE",
"374 281 OFFCURVE",
"387 312 CURVE",
"447 312 LINE SMOOTH",
"490 312 OFFCURVE",
"516 310 OFFCURVE",
"534 303 CURVE",
"513 240 OFFCURVE",
"497 191 OFFCURVE",
"497 143 CURVE SMOOTH",
"497 67 OFFCURVE",
"545 38 OFFCURVE",
"597 38 CURVE SMOOTH",
"658 38 OFFCURVE",
"697 75 OFFCURVE",
"697 151 CURVE SMOOTH",
"697 232 OFFCURVE",
"663 292 OFFCURVE",
"625 329 CURVE",
"644 380 OFFCURVE",
"657 454 OFFCURVE",
"657 530 CURVE SMOOTH",
"657 540 OFFCURVE",
"656 551 OFFCURVE",
"656 561 CURVE",
"799 561 LINE",
"799 622 LINE",
"-10 622 LINE",
"-10 561 LINE"
);
},
{
closed = 1;
nodes = (
"166 561 LINE",
"577 561 LINE",
"578 548 OFFCURVE",
"578 538 OFFCURVE",
"578 526 CURVE SMOOTH",
"579 479 OFFCURVE",
"570 411 OFFCURVE",
"558 364 CURVE",
"527 375 OFFCURVE",
"490 380 OFFCURVE",
"447 380 CURVE SMOOTH",
"393 380 LINE",
"383 442 OFFCURVE",
"336 475 OFFCURVE",
"266 475 CURVE SMOOTH",
"166 475 LINE"
);
},
{
closed = 1;
nodes = (
"570 178 OFFCURVE",
"578 213 OFFCURVE",
"595 270 CURVE",
"613 245 OFFCURVE",
"625 205 OFFCURVE",
"625 153 CURVE SMOOTH",
"625 118 OFFCURVE",
"615 99 OFFCURVE",
"597 99 CURVE SMOOTH",
"580 99 OFFCURVE",
"570 114 OFFCURVE",
"570 145 CURVE SMOOTH"
);
}
);
width = 789;
}
);
unicode = 11D64;
category = Letter;
subCategory = Other;
},
{
glyphname = VowelUu.GGondi;
lastChange = "2019-10-04 20:07:41 +0000";
layers = (
{
anchors = (
{
name = top;
position = "{650, 656}";
}
);
background = {
anchors = (
{
name = top;
position = "{650, 656}";
}
);
paths = (
{
closed = 1;
nodes = (
"90 561 LINE",
"90 408 LINE",
"318 408 LINE SMOOTH",
"343 408 OFFCURVE",
"350 393 OFFCURVE",
"350 379 CURVE SMOOTH",
"350 362 OFFCURVE",
"333 354 OFFCURVE",
"305 348 CURVE SMOOTH",
"213 328 LINE SMOOTH",
"128 310 OFFCURVE",
"80 286 OFFCURVE",
"80 223 CURVE SMOOTH",
"80 168 OFFCURVE",
"108 144 OFFCURVE",
"140 134 CURVE",
"109 122 OFFCURVE",
"91 89 OFFCURVE",
"91 58 CURVE SMOOTH",
"91 -19 OFFCURVE",
"147 -68 OFFCURVE",
"273 -68 CURVE SMOOTH",
"349 -68 OFFCURVE",
"397 -48 OFFCURVE",
"419 -35 CURVE",
"398 20 LINE",
"381 11 OFFCURVE",
"333 -8 OFFCURVE",
"278 -8 CURVE SMOOTH",
"179 -8 OFFCURVE",
"166 28 OFFCURVE",
"166 57 CURVE SMOOTH",
"166 85 OFFCURVE",
"180 103 OFFCURVE",
"216 103 CURVE SMOOTH",
"380 103 LINE",
"380 168 LINE",
"203 168 LINE SMOOTH",
"174 168 OFFCURVE",
"158 189 OFFCURVE",
"158 217 CURVE SMOOTH",
"158 248 OFFCURVE",
"184 261 OFFCURVE",
"226 270 CURVE SMOOTH",
"316 290 LINE SMOOTH",
"355 298 OFFCURVE",
"383 309 OFFCURVE",
"400 322 CURVE",
"481 322 LINE SMOOTH",
"520 322 OFFCURVE",
"546 317 OFFCURVE",
"569 308 CURVE",
"548 242 OFFCURVE",
"531 192 OFFCURVE",
"531 143 CURVE SMOOTH",
"531 67 OFFCURVE",
"579 38 OFFCURVE",
"631 38 CURVE SMOOTH",
"692 38 OFFCURVE",
"731 75 OFFCURVE",
"731 151 CURVE SMOOTH",
"731 232 OFFCURVE",
"697 292 OFFCURVE",
"659 329 CURVE",
"678 381 OFFCURVE",
"691 453 OFFCURVE",
"691 540 CURVE",
"690 561 LINE",
"833 561 LINE",
"833 622 LINE",
"-10 622 LINE",
"-10 561 LINE"
);
},
{
closed = 1;
nodes = (
"166 561 LINE",
"612 561 LINE",
"612 536 LINE SMOOTH",
"613 478 OFFCURVE",
"604 416 OFFCURVE",
"593 367 CURVE",
"564 381 OFFCURVE",
"527 390 OFFCURVE",
"481 390 CURVE SMOOTH",
"422 390 LINE",
"419 437 OFFCURVE",
"383 475 OFFCURVE",
"316 475 CURVE SMOOTH",
"166 475 LINE"
);
},
{
closed = 1;
nodes = (
"604 178 OFFCURVE",
"612 213 OFFCURVE",
"629 270 CURVE",
"647 245 OFFCURVE",
"659 205 OFFCURVE",
"659 153 CURVE SMOOTH",
"659 118 OFFCURVE",
"649 99 OFFCURVE",
"631 99 CURVE SMOOTH",
"614 99 OFFCURVE",
"604 114 OFFCURVE",
"604 145 CURVE SMOOTH"
);
}
);
};
layerId = "1D9335A4-69BC-4202-817B-D13DAA30F854";
paths = (
{
closed = 1;
nodes = (
"90 561 LINE",
"90 408 LINE",
"318 408 LINE SMOOTH",
"343 408 OFFCURVE",
"350 393 OFFCURVE",
"350 379 CURVE SMOOTH",
"350 362 OFFCURVE",
"333 354 OFFCURVE",
"305 348 CURVE SMOOTH",
"213 328 LINE SMOOTH",
"128 310 OFFCURVE",
"80 286 OFFCURVE",
"80 223 CURVE SMOOTH",
"80 168 OFFCURVE",
"108 144 OFFCURVE",
"140 134 CURVE",
"109 122 OFFCURVE",
"91 89 OFFCURVE",
"91 58 CURVE SMOOTH",
"91 -19 OFFCURVE",
"147 -68 OFFCURVE",
"273 -68 CURVE SMOOTH",
"349 -68 OFFCURVE",
"397 -48 OFFCURVE",
"419 -35 CURVE",
"398 20 LINE",
"381 11 OFFCURVE",
"333 -8 OFFCURVE",
"278 -8 CURVE SMOOTH",
"179 -8 OFFCURVE",
"166 28 OFFCURVE",
"166 57 CURVE SMOOTH",
"166 85 OFFCURVE",
"180 103 OFFCURVE",
"216 103 CURVE SMOOTH",
"380 103 LINE",
"380 168 LINE",
"203 168 LINE SMOOTH",
"174 168 OFFCURVE",
"158 189 OFFCURVE",
"158 217 CURVE SMOOTH",
"158 248 OFFCURVE",
"184 261 OFFCURVE",
"226 270 CURVE SMOOTH",
"316 290 LINE SMOOTH",
"355 298 OFFCURVE",
"383 309 OFFCURVE",
"400 322 CURVE",
"481 322 LINE SMOOTH",
"520 322 OFFCURVE",
"546 317 OFFCURVE",
"569 308 CURVE",
"548 242 OFFCURVE",
"531 192 OFFCURVE",
"531 143 CURVE SMOOTH",
"531 67 OFFCURVE",
"579 38 OFFCURVE",
"631 38 CURVE SMOOTH",
"692 38 OFFCURVE",
"731 75 OFFCURVE",
"731 151 CURVE SMOOTH",
"731 232 OFFCURVE",
"697 292 OFFCURVE",
"659 329 CURVE",
"678 381 OFFCURVE",
"691 453 OFFCURVE",
"691 540 CURVE",
"690 561 LINE",
"833 561 LINE",
"833 622 LINE",
"-10 622 LINE",
"-10 561 LINE"
);
},
{
closed = 1;
nodes = (
"166 561 LINE",
"612 561 LINE",
"612 536 LINE SMOOTH",
"613 478 OFFCURVE",
"604 416 OFFCURVE",
"593 367 CURVE",
"564 381 OFFCURVE",
"527 390 OFFCURVE",
"481 390 CURVE SMOOTH",
"422 390 LINE",
"419 437 OFFCURVE",
"383 475 OFFCURVE",
"316 475 CURVE SMOOTH",
"166 475 LINE"
);
},
{
closed = 1;
nodes = (
"604 178 OFFCURVE",
"612 213 OFFCURVE",
"629 270 CURVE",
"647 245 OFFCURVE",
"659 205 OFFCURVE",
"659 153 CURVE SMOOTH",
"659 118 OFFCURVE",
"649 99 OFFCURVE",
"631 99 CURVE SMOOTH",
"614 99 OFFCURVE",
"604 114 OFFCURVE",
"604 145 CURVE SMOOTH"
);
}
);
width = 823;
}
);
unicode = 11D65;
category = Letter;
},
{
glyphname = Ya.GGondi;
lastChange = "2019-10-04 20:07:41 +0000";
layers = (
{
anchors = (
{
name = bottom;
position = "{457, -28}";
},
{
name = top;
position = "{651, 656}";
}
);
background = {
anchors = (
{
name = bottom;
position = "{457, -28}";
},
{
name = top;
position = "{651, 656}";
}
);
paths = (
{
closed = 1;
nodes = (
"610 561 LINE",
"610 554 LINE SMOOTH",
"610 401 OFFCURVE",
"535 318 OFFCURVE",
"464 263 CURVE",
"425 282 OFFCURVE",
"393 298 OFFCURVE",
"368 312 CURVE",
"402 332 OFFCURVE",
"424 369 OFFCURVE",
"424 407 CURVE SMOOTH",
"424 473 OFFCURVE",
"371 508 OFFCURVE",
"314 510 CURVE SMOOTH",
"250 512 OFFCURVE",
"201 475 OFFCURVE",
"201 411 CURVE SMOOTH",
"201 382 OFFCURVE",
"212 358 OFFCURVE",
"228 342 CURVE",
"156 349 OFFCURVE",
"109 398 OFFCURVE",
"99 493 CURVE",
"28 493 LINE",
"38 336 OFFCURVE",
"140 279 OFFCURVE",
"255 279 CURVE SMOOTH",
"271 279 OFFCURVE",
"283 280 OFFCURVE",
"293 282 CURVE",
"304 275 OFFCURVE",
"314 269 OFFCURVE",
"319 266 CURVE SMOOTH",
"355 247 OFFCURVE",
"378 234 OFFCURVE",
"399 224 CURVE",
"367 198 OFFCURVE",
"339 165 OFFCURVE",
"339 112 CURVE SMOOTH",
"339 45 OFFCURVE",
"393 3 OFFCURVE",
"469 3 CURVE SMOOTH",
"546 3 OFFCURVE",
"595 48 OFFCURVE",
"595 112 CURVE SMOOTH",
"595 161 OFFCURVE",
"562 203 OFFCURVE",
"527 228 CURVE",
"599 282 OFFCURVE",
"691 377 OFFCURVE",
"690 554 CURVE",
"690 561 LINE",
"773 561 LINE",
"773 622 LINE",
"-20 622 LINE",
"-20 561 LINE"
);
},
{
closed = 1;
nodes = (
"276 440 OFFCURVE",
"300 449 OFFCURVE",
"314 449 CURVE SMOOTH",
"334 449 OFFCURVE",
"353 437 OFFCURVE",
"353 406 CURVE SMOOTH",
"353 385 OFFCURVE",
"336 362 OFFCURVE",
"312 347 CURVE",
"283 367 OFFCURVE",
"276 388 OFFCURVE",
"276 405 CURVE SMOOTH"
);
},
{
closed = 1;
nodes = (
"419 150 OFFCURVE",
"438 171 OFFCURVE",
"465 195 CURVE",
"497 176 OFFCURVE",
"517 150 OFFCURVE",
"517 120 CURVE SMOOTH",
"517 93 OFFCURVE",
"498 71 OFFCURVE",
"468 71 CURVE SMOOTH",
"435 71 OFFCURVE",
"419 92 OFFCURVE",
"419 118 CURVE SMOOTH"
);
}
);
};
layerId = "1D9335A4-69BC-4202-817B-D13DAA30F854";
paths = (
{
closed = 1;
nodes = (
"610 561 LINE",
"610 554 LINE SMOOTH",
"610 401 OFFCURVE",
"535 318 OFFCURVE",
"464 263 CURVE",
"425 282 OFFCURVE",
"393 298 OFFCURVE",
"368 312 CURVE",
"402 332 OFFCURVE",
"424 369 OFFCURVE",
"424 407 CURVE SMOOTH",
"424 473 OFFCURVE",
"371 508 OFFCURVE",
"314 510 CURVE SMOOTH",
"250 512 OFFCURVE",
"201 475 OFFCURVE",
"201 411 CURVE SMOOTH",
"201 382 OFFCURVE",
"212 358 OFFCURVE",
"228 342 CURVE",
"156 349 OFFCURVE",
"109 398 OFFCURVE",
"99 493 CURVE",
"28 493 LINE",
"38 336 OFFCURVE",
"140 279 OFFCURVE",
"255 279 CURVE SMOOTH",
"271 279 OFFCURVE",
"283 280 OFFCURVE",
"293 282 CURVE",
"304 275 OFFCURVE",
"314 269 OFFCURVE",
"319 266 CURVE SMOOTH",
"355 247 OFFCURVE",
"378 234 OFFCURVE",
"399 224 CURVE",
"367 198 OFFCURVE",
"339 165 OFFCURVE",
"339 112 CURVE SMOOTH",
"339 45 OFFCURVE",
"393 3 OFFCURVE",
"469 3 CURVE SMOOTH",
"546 3 OFFCURVE",
"595 48 OFFCURVE",
"595 112 CURVE SMOOTH",
"595 161 OFFCURVE",
"562 203 OFFCURVE",
"527 228 CURVE",
"599 282 OFFCURVE",
"691 377 OFFCURVE",
"690 554 CURVE",
"690 561 LINE",
"773 561 LINE",
"773 622 LINE",
"-20 622 LINE",
"-20 561 LINE"
);
},
{
closed = 1;
nodes = (
"276 440 OFFCURVE",
"300 449 OFFCURVE",
"314 449 CURVE SMOOTH",
"334 449 OFFCURVE",
"353 437 OFFCURVE",
"353 406 CURVE SMOOTH",
"353 385 OFFCURVE",
"336 362 OFFCURVE",
"312 347 CURVE",
"283 367 OFFCURVE",
"276 388 OFFCURVE",
"276 405 CURVE SMOOTH"
);
},
{
closed = 1;
nodes = (
"419 150 OFFCURVE",
"438 171 OFFCURVE",
"465 195 CURVE",
"497 176 OFFCURVE",
"517 150 OFFCURVE",
"517 120 CURVE SMOOTH",
"517 93 OFFCURVE",
"498 71 OFFCURVE",
"468 71 CURVE SMOOTH",
"435 71 OFFCURVE",
"419 92 OFFCURVE",
"419 118 CURVE SMOOTH"
);
}
);
width = 743;
}
);
unicode = 11D6C;
category = Letter;
userData = {
com.typemytype.robofont.mark = (
0.835,
1,
0.6,
1
);
};
},
{
glyphname = Va.GGondi;
lastChange = "2019-10-04 20:07:41 +0000";
layers = (
{
anchors = (
{
name = bottom;
position = "{345, -28}";
},
{
name = top;
position = "{524, 656}";
}
);
background = {
anchors = (
{
name = bottom;
position = "{345, -28}";
},
{
name = top;
position = "{524, 656}";
}
);
paths = (
{
closed = 1;
nodes = (
"485 561 LINE",
"485 239 LINE SMOOTH",
"485 142 OFFCURVE",
"426 87 OFFCURVE",
"325 87 CURVE SMOOTH",
"247 87 OFFCURVE",
"188 122 OFFCURVE",
"165 191 CURVE",
"245 199 OFFCURVE",
"328 241 OFFCURVE",
"328 347 CURVE SMOOTH",
"328 450 OFFCURVE",
"253 505 OFFCURVE",
"154 505 CURVE SMOOTH",
"129 505 OFFCURVE",
"105 501 OFFCURVE",
"84 496 CURVE",
"94 430 LINE",
"112 434 OFFCURVE",
"131 437 OFFCURVE",
"151 437 CURVE SMOOTH",
"208 437 OFFCURVE",
"250 408 OFFCURVE",
"250 348 CURVE SMOOTH",
"250 285 OFFCURVE",
"198 258 OFFCURVE",
"128 253 CURVE SMOOTH",
"77 249 LINE",
"77 241 LINE SMOOTH",
"77 112 OFFCURVE",
"165 19 OFFCURVE",
"324 19 CURVE SMOOTH",
"482 19 OFFCURVE",
"563 100 OFFCURVE",
"563 239 CURVE SMOOTH",
"563 561 LINE",
"673 561 LINE",
"673 622 LINE",
"-10 622 LINE",
"-10 561 LINE"
);
}
);
};
guideLines = (
{
angle = 90;
position = "{657, 566}";
}
);
layerId = "1D9335A4-69BC-4202-817B-D13DAA30F854";
paths = (
{
closed = 1;
nodes = (
"485 561 LINE",
"485 239 LINE SMOOTH",
"485 142 OFFCURVE",
"426 87 OFFCURVE",
"325 87 CURVE SMOOTH",
"247 87 OFFCURVE",
"188 122 OFFCURVE",
"165 191 CURVE",
"245 199 OFFCURVE",
"328 241 OFFCURVE",
"328 347 CURVE SMOOTH",
"328 450 OFFCURVE",
"253 505 OFFCURVE",
"154 505 CURVE SMOOTH",
"129 505 OFFCURVE",
"105 501 OFFCURVE",
"84 496 CURVE",
"94 430 LINE",
"112 434 OFFCURVE",
"131 437 OFFCURVE",
"151 437 CURVE SMOOTH",
"208 437 OFFCURVE",
"250 408 OFFCURVE",
"250 348 CURVE SMOOTH",
"250 285 OFFCURVE",
"198 258 OFFCURVE",
"128 253 CURVE SMOOTH",
"77 249 LINE",
"77 241 LINE SMOOTH",
"77 112 OFFCURVE",
"165 19 OFFCURVE",
"324 19 CURVE SMOOTH",
"482 19 OFFCURVE",
"563 100 OFFCURVE",
"563 239 CURVE SMOOTH",
"563 561 LINE",
"673 561 LINE",
"673 622 LINE",
"-10 622 LINE",
"-10 561 LINE"
);
}
);
width = 663;
}
);
rightKerningGroup = Na.GGondi;
unicode = 11D6D;
category = Letter;
userData = {
com.typemytype.robofont.mark = (
0.835,
1,
0.6,
1
);
};
},
{
glyphname = Ba.GGondi;
lastChange = "2019-10-04 20:07:41 +0000";
layers = (
{
anchors = (
{
name = bottom;
position = "{409, -28}";
},
{
name = top;
position = "{577, 656}";
}
);
background = {
anchors = (
{
name = bottom;
position = "{409, -28}";
},
{
name = top;
position = "{577, 656}";
}
);
paths = (
{
closed = 1;
nodes = (
"538 561 LINE",
"538 226 LINE SMOOTH",
"538 135 OFFCURVE",
"493 87 OFFCURVE",
"414 87 CURVE SMOOTH",
"322 87 OFFCURVE",
"284 136 OFFCURVE",
"282 191 CURVE",
"284 274 OFFCURVE",
"326 308 OFFCURVE",
"326 379 CURVE SMOOTH",
"326 450 OFFCURVE",
"269 497 OFFCURVE",
"191 497 CURVE SMOOTH",
"122 497 OFFCURVE",
"56 457 OFFCURVE",
"56 373 CURVE SMOOTH",
"56 310 OFFCURVE",
"99 263 OFFCURVE",
"170 255 CURVE",
"183 317 LINE",
"153 323 OFFCURVE",
"134 342 OFFCURVE",
"134 376 CURVE SMOOTH",
"134 404 OFFCURVE",
"154 431 OFFCURVE",
"192 431 CURVE SMOOTH",
"227 431 OFFCURVE",
"248 407 OFFCURVE",
"248 376 CURVE SMOOTH",
"248 320 OFFCURVE",
"202 273 OFFCURVE",
"202 190 CURVE SMOOTH",
"202 84 OFFCURVE",
"286 19 OFFCURVE",
"413 19 CURVE SMOOTH",
"539 20 OFFCURVE",
"616 88 OFFCURVE",
"616 225 CURVE SMOOTH",
"616 561 LINE",
"726 561 LINE",
"726 622 LINE",
"-10 622 LINE",
"-10 561 LINE"
);
}
);
};
layerId = "1D9335A4-69BC-4202-817B-D13DAA30F854";
paths = (
{
closed = 1;
nodes = (
"538 561 LINE",
"538 226 LINE SMOOTH",
"538 135 OFFCURVE",
"493 87 OFFCURVE",
"414 87 CURVE SMOOTH",
"322 87 OFFCURVE",
"284 136 OFFCURVE",
"282 191 CURVE",
"284 274 OFFCURVE",
"326 308 OFFCURVE",
"326 379 CURVE SMOOTH",
"326 450 OFFCURVE",
"269 497 OFFCURVE",
"191 497 CURVE SMOOTH",
"122 497 OFFCURVE",
"56 457 OFFCURVE",
"56 373 CURVE SMOOTH",
"56 310 OFFCURVE",
"99 263 OFFCURVE",
"170 255 CURVE",
"183 317 LINE",
"153 323 OFFCURVE",
"134 342 OFFCURVE",
"134 376 CURVE SMOOTH",
"134 404 OFFCURVE",
"154 431 OFFCURVE",
"192 431 CURVE SMOOTH",
"227 431 OFFCURVE",
"248 407 OFFCURVE",
"248 376 CURVE SMOOTH",
"248 320 OFFCURVE",
"202 273 OFFCURVE",
"202 190 CURVE SMOOTH",
"202 84 OFFCURVE",
"286 19 OFFCURVE",
"413 19 CURVE SMOOTH",
"539 20 OFFCURVE",
"616 88 OFFCURVE",
"616 225 CURVE SMOOTH",
"616 561 LINE",
"726 561 LINE",
"726 622 LINE",
"-10 622 LINE",
"-10 561 LINE"
);
}
);
width = 716;
}
);
rightKerningGroup = Na.GGondi;
unicode = 11D6E;
category = Letter;
userData = {
com.typemytype.robofont.mark = (
0.835,
1,
0.6,
1
);
};
},
{
glyphname = Bha.GGondi;
lastChange = "2019-10-04 20:07:41 +0000";
layers = (
{
anchors = (
{
name = bottom;
position = "{759, -28}";
},
{
name = top;
position = "{817, 656}";
}
);
background = {
anchors = (
{
name = bottom;
position = "{759, -28}";
},
{
name = top;
position = "{817, 656}";
}
);
paths = (
{
closed = 1;
nodes = (
"778 561 LINE",
"779 549 OFFCURVE",
"779 538 OFFCURVE",
"779 526 CURVE SMOOTH",
"779 473 OFFCURVE",
"771 418 OFFCURVE",
"760 374 CURVE",
"728 396 OFFCURVE",
"673 411 OFFCURVE",
"594 411 CURVE SMOOTH",
"450 411 LINE",
"450 347 LINE",
"480 323 OFFCURVE",
"508 276 OFFCURVE",
"508 212 CURVE SMOOTH",
"508 146 OFFCURVE",
"469 107 OFFCURVE",
"404 107 CURVE SMOOTH",
"346 107 OFFCURVE",
"302 141 OFFCURVE",
"302 203 CURVE SMOOTH",
"302 262 OFFCURVE",
"326 311 OFFCURVE",
"326 376 CURVE SMOOTH",
"326 449 OFFCURVE",
"267 497 OFFCURVE",
"187 497 CURVE SMOOTH",
"120 497 OFFCURVE",
"56 457 OFFCURVE",
"56 373 CURVE SMOOTH",
"56 310 OFFCURVE",
"99 263 OFFCURVE",
"170 255 CURVE",
"183 317 LINE",
"153 323 OFFCURVE",
"134 342 OFFCURVE",
"134 376 CURVE SMOOTH",
"134 404 OFFCURVE",
"153 431 OFFCURVE",
"188 431 CURVE SMOOTH",
"226 431 OFFCURVE",
"248 406 OFFCURVE",
"248 373 CURVE SMOOTH",
"248 322 OFFCURVE",
"222 271 OFFCURVE",
"222 202 CURVE SMOOTH",
"222 99 OFFCURVE",
"298 39 OFFCURVE",
"406 39 CURVE SMOOTH",
"519 39 OFFCURVE",
"586 102 OFFCURVE",
"586 206 CURVE SMOOTH",
"586 268 OFFCURVE",
"569 313 OFFCURVE",
"540 343 CURVE",
"592 343 LINE SMOOTH",
"671 343 OFFCURVE",
"707 331 OFFCURVE",
"737 313 CURVE",
"714 244 OFFCURVE",
"697 193 OFFCURVE",
"697 143 CURVE SMOOTH",
"697 67 OFFCURVE",
"745 38 OFFCURVE",
"797 38 CURVE SMOOTH",
"858 38 OFFCURVE",
"897 75 OFFCURVE",
"897 151 CURVE SMOOTH",
"897 232 OFFCURVE",
"863 293 OFFCURVE",
"824 331 CURVE",
"841 377 OFFCURVE",
"858 458 OFFCURVE",
"858 530 CURVE SMOOTH",
"858 541 OFFCURVE",
"857 551 OFFCURVE",
"857 561 CURVE",
"999 561 LINE",
"999 622 LINE",
"-10 622 LINE",
"-10 561 LINE"
);
},
{
closed = 1;
nodes = (
"770 178 OFFCURVE",
"778 213 OFFCURVE",
"795 270 CURVE",
"813 245 OFFCURVE",
"825 205 OFFCURVE",
"825 153 CURVE SMOOTH",
"825 118 OFFCURVE",
"815 99 OFFCURVE",
"797 99 CURVE SMOOTH",
"780 99 OFFCURVE",
"770 114 OFFCURVE",
"770 145 CURVE SMOOTH"
);
}
);
};
layerId = "1D9335A4-69BC-4202-817B-D13DAA30F854";
paths = (
{
closed = 1;
nodes = (
"778 561 LINE",
"779 549 OFFCURVE",
"779 538 OFFCURVE",
"779 526 CURVE SMOOTH",
"779 473 OFFCURVE",
"771 418 OFFCURVE",
"760 374 CURVE",
"728 396 OFFCURVE",
"673 411 OFFCURVE",
"594 411 CURVE SMOOTH",
"450 411 LINE",
"450 347 LINE",
"480 323 OFFCURVE",
"508 276 OFFCURVE",
"508 212 CURVE SMOOTH",
"508 146 OFFCURVE",
"469 107 OFFCURVE",
"404 107 CURVE SMOOTH",
"346 107 OFFCURVE",
"302 141 OFFCURVE",
"302 203 CURVE SMOOTH",
"302 262 OFFCURVE",
"326 311 OFFCURVE",
"326 376 CURVE SMOOTH",
"326 449 OFFCURVE",
"267 497 OFFCURVE",
"187 497 CURVE SMOOTH",
"120 497 OFFCURVE",
"56 457 OFFCURVE",
"56 373 CURVE SMOOTH",
"56 310 OFFCURVE",
"99 263 OFFCURVE",
"170 255 CURVE",
"183 317 LINE",
"153 323 OFFCURVE",
"134 342 OFFCURVE",
"134 376 CURVE SMOOTH",
"134 404 OFFCURVE",
"153 431 OFFCURVE",
"188 431 CURVE SMOOTH",
"226 431 OFFCURVE",
"248 406 OFFCURVE",
"248 373 CURVE SMOOTH",
"248 322 OFFCURVE",
"222 271 OFFCURVE",
"222 202 CURVE SMOOTH",
"222 99 OFFCURVE",
"298 39 OFFCURVE",
"406 39 CURVE SMOOTH",
"519 39 OFFCURVE",
"586 102 OFFCURVE",
"586 206 CURVE SMOOTH",
"586 268 OFFCURVE",
"569 313 OFFCURVE",
"540 343 CURVE",
"592 343 LINE SMOOTH",
"671 343 OFFCURVE",
"707 331 OFFCURVE",
"737 313 CURVE",
"714 244 OFFCURVE",
"697 193 OFFCURVE",
"697 143 CURVE SMOOTH",
"697 67 OFFCURVE",
"745 38 OFFCURVE",
"797 38 CURVE SMOOTH",
"858 38 OFFCURVE",
"897 75 OFFCURVE",
"897 151 CURVE SMOOTH",
"897 232 OFFCURVE",
"863 293 OFFCURVE",
"824 331 CURVE",
"841 377 OFFCURVE",
"858 458 OFFCURVE",
"858 530 CURVE SMOOTH",
"858 541 OFFCURVE",
"857 551 OFFCURVE",
"857 561 CURVE",
"999 561 LINE",
"999 622 LINE",
"-10 622 LINE",
"-10 561 LINE"
);
},
{
closed = 1;
nodes = (
"770 178 OFFCURVE",
"778 213 OFFCURVE",
"795 270 CURVE",
"813 245 OFFCURVE",
"825 205 OFFCURVE",
"825 153 CURVE SMOOTH",
"825 118 OFFCURVE",
"815 99 OFFCURVE",
"797 99 CURVE SMOOTH",
"780 99 OFFCURVE",
"770 114 OFFCURVE",
"770 145 CURVE SMOOTH"
);
}
);
width = 989;
}
);
unicode = 11D6F;
category = Letter;
userData = {
com.typemytype.robofont.mark = (
0.835,
1,
0.6,
1
);
};
},
{
glyphname = Ma.GGondi;
lastChange = "2019-10-04 20:07:41 +0000";
layers = (
{
anchors = (
{
name = bottom;
position = "{502, -28}";
},
{
name = top;
position = "{696, 656}";
}
);
background = {
anchors = (
{
name = bottom;
position = "{502, -28}";
},
{
name = top;
position = "{696, 656}";
}
);
paths = (
{
closed = 1;
nodes = (
"280 561 LINE",
"281 480 OFFCURVE",
"298 434 OFFCURVE",
"313 400 CURVE",
"313 390 OFFCURVE",
"314 379 OFFCURVE",
"314 364 CURVE SMOOTH",
"314 313 OFFCURVE",
"279 265 OFFCURVE",
"217 265 CURVE SMOOTH",
"169 265 OFFCURVE",
"126 295 OFFCURVE",
"126 354 CURVE SMOOTH",
"126 405 OFFCURVE",
"161 438 OFFCURVE",
"208 438 CURVE SMOOTH",
"218 438 OFFCURVE",
"225 438 OFFCURVE",
"237 436 CURVE",
"243 501 LINE",
"233 503 OFFCURVE",
"220 504 OFFCURVE",
"204 504 CURVE SMOOTH",
"117 504 OFFCURVE",
"48 446 OFFCURVE",
"48 351 CURVE SMOOTH",
"48 254 OFFCURVE",
"127 199 OFFCURVE",
"210 199 CURVE SMOOTH",
"299 199 OFFCURVE",
"352 251 OFFCURVE",
"366 308 CURVE",
"389 277 OFFCURVE",
"417 251 OFFCURVE",
"448 227 CURVE",
"415 201 OFFCURVE",
"384 167 OFFCURVE",
"384 112 CURVE SMOOTH",
"384 45 OFFCURVE",
"438 3 OFFCURVE",
"514 3 CURVE SMOOTH",
"591 3 OFFCURVE",
"640 48 OFFCURVE",
"640 112 CURVE SMOOTH",
"640 161 OFFCURVE",
"607 203 OFFCURVE",
"572 228 CURVE",
"644 282 OFFCURVE",
"735 377 OFFCURVE",
"735 554 CURVE SMOOTH",
"735 561 LINE",
"828 561 LINE",
"828 622 LINE",
"-10 622 LINE",
"-10 561 LINE"
);
},
{
closed = 1;
nodes = (
"655 561 LINE",
"655 554 LINE SMOOTH",
"655 400 OFFCURVE",
"580 318 OFFCURVE",
"508 263 CURVE",
"443 315 OFFCURVE",
"357 394 OFFCURVE",
"360 561 CURVE"
);
},
{
closed = 1;
nodes = (
"464 150 OFFCURVE",
"483 171 OFFCURVE",
"510 195 CURVE",
"542 176 OFFCURVE",
"562 150 OFFCURVE",
"562 120 CURVE SMOOTH",
"562 93 OFFCURVE",
"543 71 OFFCURVE",
"513 71 CURVE SMOOTH",
"480 71 OFFCURVE",
"464 92 OFFCURVE",
"464 118 CURVE SMOOTH"
);
}
);
};
layerId = "1D9335A4-69BC-4202-817B-D13DAA30F854";
paths = (
{
closed = 1;
nodes = (
"280 561 LINE",
"281 480 OFFCURVE",
"298 434 OFFCURVE",
"313 400 CURVE",
"313 390 OFFCURVE",
"314 379 OFFCURVE",
"314 364 CURVE SMOOTH",
"314 313 OFFCURVE",
"279 265 OFFCURVE",
"217 265 CURVE SMOOTH",
"169 265 OFFCURVE",
"126 295 OFFCURVE",
"126 354 CURVE SMOOTH",
"126 405 OFFCURVE",
"161 438 OFFCURVE",
"208 438 CURVE SMOOTH",
"218 438 OFFCURVE",
"225 438 OFFCURVE",
"237 436 CURVE",
"243 501 LINE",
"233 503 OFFCURVE",
"220 504 OFFCURVE",
"204 504 CURVE SMOOTH",
"117 504 OFFCURVE",
"48 446 OFFCURVE",
"48 351 CURVE SMOOTH",
"48 254 OFFCURVE",
"127 199 OFFCURVE",
"210 199 CURVE SMOOTH",
"299 199 OFFCURVE",
"352 251 OFFCURVE",
"366 308 CURVE",
"389 277 OFFCURVE",
"417 251 OFFCURVE",
"448 227 CURVE",
"415 201 OFFCURVE",
"384 167 OFFCURVE",
"384 112 CURVE SMOOTH",
"384 45 OFFCURVE",
"438 3 OFFCURVE",
"514 3 CURVE SMOOTH",
"591 3 OFFCURVE",
"640 48 OFFCURVE",
"640 112 CURVE SMOOTH",
"640 161 OFFCURVE",
"607 203 OFFCURVE",
"572 228 CURVE",
"644 282 OFFCURVE",
"735 377 OFFCURVE",
"735 554 CURVE SMOOTH",
"735 561 LINE",
"828 561 LINE",
"828 622 LINE",
"-10 622 LINE",
"-10 561 LINE"
);
},
{
closed = 1;
nodes = (
"655 561 LINE",
"655 554 LINE SMOOTH",
"655 400 OFFCURVE",
"580 318 OFFCURVE",
"508 263 CURVE",
"443 315 OFFCURVE",
"357 394 OFFCURVE",
"360 561 CURVE"
);
},
{
closed = 1;
nodes = (
"464 150 OFFCURVE",
"483 171 OFFCURVE",
"510 195 CURVE",
"542 176 OFFCURVE",
"562 150 OFFCURVE",
"562 120 CURVE SMOOTH",
"562 93 OFFCURVE",
"543 71 OFFCURVE",
"513 71 CURVE SMOOTH",
"480 71 OFFCURVE",
"464 92 OFFCURVE",
"464 118 CURVE SMOOTH"
);
}
);
width = 798;
}
);
rightKerningGroup = Ya.GGondi;
unicode = 11D70;
category = Letter;
userData = {
com.typemytype.robofont.mark = (
0.835,
1,
0.6,
1
);
};
},
{
glyphname = Ka.GGondi;
lastChange = "2019-10-04 20:07:41 +0000";
layers = (
{
anchors = (
{
name = bottom;
position = "{678, -28}";
},
{
name = top;
position = "{736, 656}";
}
);
background = {
anchors = (
{
name = bottom;
position = "{678, -28}";
},
{
name = top;
position = "{736, 656}";
}
);
paths = (
{
closed = 1;
nodes = (
"448 561 LINE",
"450 550 OFFCURVE",
"452 537 OFFCURVE",
"452 522 CURVE SMOOTH",
"452 508 OFFCURVE",
"451 496 OFFCURVE",
"449 483 CURVE",
"424 487 OFFCURVE",
"396 489 OFFCURVE",
"369 489 CURVE SMOOTH",
"188 489 OFFCURVE",
"60 396 OFFCURVE",
"60 222 CURVE SMOOTH",
"60 69 OFFCURVE",
"164 -9 OFFCURVE",
"301 -9 CURVE SMOOTH",
"436 -9 OFFCURVE",
"497 59 OFFCURVE",
"497 148 CURVE SMOOTH",
"497 228 OFFCURVE",
"434 276 OFFCURVE",
"373 284 CURVE",
"424 296 OFFCURVE",
"481 346 OFFCURVE",
"502 398 CURVE",
"562 381 OFFCURVE",
"626 342 OFFCURVE",
"657 309 CURVE",
"628 239 OFFCURVE",
"616 186 OFFCURVE",
"616 138 CURVE SMOOTH",
"616 66 OFFCURVE",
"664 38 OFFCURVE",
"716 38 CURVE SMOOTH",
"777 38 OFFCURVE",
"816 73 OFFCURVE",
"816 146 CURVE SMOOTH",
"816 217 OFFCURVE",
"781 277 OFFCURVE",
"743 318 CURVE",
"761 364 OFFCURVE",
"777 444 OFFCURVE",
"777 518 CURVE SMOOTH",
"777 532 OFFCURVE",
"776 547 OFFCURVE",
"776 561 CURVE",
"918 561 LINE",
"918 622 LINE",
"504 622 LINE",
"469 708 OFFCURVE",
"379 756 OFFCURVE",
"269 756 CURVE SMOOTH",
"205 756 OFFCURVE",
"140 738 OFFCURVE",
"100 711 CURVE",
"129 653 LINE",
"164 674 OFFCURVE",
"215 693 OFFCURVE",
"271 693 CURVE SMOOTH",
"331 693 OFFCURVE",
"393 673 OFFCURVE",
"425 622 CURVE",
"-10 622 LINE",
"-10 561 LINE"
);
},
{
closed = 1;
nodes = (
"138 354 OFFCURVE",
"226 421 OFFCURVE",
"374 421 CURVE SMOOTH",
"385 421 OFFCURVE",
"408 420 OFFCURVE",
"429 416 CURVE",
"401 350 OFFCURVE",
"342 311 OFFCURVE",
"257 311 CURVE",
"257 250 LINE",
"273 250 LINE SMOOTH",
"369 250 OFFCURVE",
"420 223 OFFCURVE",
"420 153 CURVE SMOOTH",
"420 105 OFFCURVE",
"386 55 OFFCURVE",
"298 55 CURVE SMOOTH",
"210 55 OFFCURVE",
"138 114 OFFCURVE",
"138 222 CURVE SMOOTH"
);
},
{
closed = 1;
nodes = (
"526 480 OFFCURVE",
"528 497 OFFCURVE",
"528 519 CURVE SMOOTH",
"528 535 OFFCURVE",
"527 547 OFFCURVE",
"524 561 CURVE",
"697 561 LINE",
"698 545 OFFCURVE",
"698 530 OFFCURVE",
"698 514 CURVE SMOOTH",
"698 467 OFFCURVE",
"692 418 OFFCURVE",
"683 377 CURVE",
"646 410 OFFCURVE",
"581 446 OFFCURVE",
"522 464 CURVE"
);
},
{
closed = 1;
nodes = (
"689 175 OFFCURVE",
"696 206 OFFCURVE",
"713 258 CURVE",
"732 231 OFFCURVE",
"744 191 OFFCURVE",
"744 148 CURVE SMOOTH",
"744 116 OFFCURVE",
"734 99 OFFCURVE",
"716 99 CURVE SMOOTH",
"699 99 OFFCURVE",
"689 112 OFFCURVE",
"689 140 CURVE SMOOTH"
);
}
);
};
guideLines = (
{
angle = 90;
position = "{880, 608}";
}
);
layerId = "1D9335A4-69BC-4202-817B-D13DAA30F854";
paths = (
{
closed = 1;
nodes = (
"448 561 LINE",
"450 550 OFFCURVE",
"452 537 OFFCURVE",
"452 522 CURVE SMOOTH",
"452 508 OFFCURVE",
"451 496 OFFCURVE",
"449 483 CURVE",
"424 487 OFFCURVE",
"396 489 OFFCURVE",
"369 489 CURVE SMOOTH",
"188 489 OFFCURVE",
"60 396 OFFCURVE",
"60 222 CURVE SMOOTH",
"60 69 OFFCURVE",
"164 -9 OFFCURVE",
"301 -9 CURVE SMOOTH",
"436 -9 OFFCURVE",
"497 59 OFFCURVE",
"497 148 CURVE SMOOTH",
"497 228 OFFCURVE",
"434 276 OFFCURVE",
"373 284 CURVE",
"424 296 OFFCURVE",
"481 346 OFFCURVE",
"502 398 CURVE",
"562 381 OFFCURVE",
"626 342 OFFCURVE",
"657 309 CURVE",
"628 239 OFFCURVE",
"616 186 OFFCURVE",
"616 138 CURVE SMOOTH",
"616 66 OFFCURVE",
"664 38 OFFCURVE",
"716 38 CURVE SMOOTH",
"777 38 OFFCURVE",
"816 73 OFFCURVE",
"816 146 CURVE SMOOTH",
"816 217 OFFCURVE",
"781 277 OFFCURVE",
"743 318 CURVE",
"761 364 OFFCURVE",
"777 444 OFFCURVE",
"777 518 CURVE SMOOTH",
"777 532 OFFCURVE",
"776 547 OFFCURVE",
"776 561 CURVE",
"918 561 LINE",
"918 622 LINE",
"504 622 LINE",
"469 708 OFFCURVE",
"379 756 OFFCURVE",
"269 756 CURVE SMOOTH",
"205 756 OFFCURVE",
"140 738 OFFCURVE",
"100 711 CURVE",
"129 653 LINE",
"164 674 OFFCURVE",
"215 693 OFFCURVE",
"271 693 CURVE SMOOTH",
"331 693 OFFCURVE",
"393 673 OFFCURVE",
"425 622 CURVE",
"-10 622 LINE",
"-10 561 LINE"
);
},
{
closed = 1;
nodes = (
"138 354 OFFCURVE",
"226 421 OFFCURVE",
"374 421 CURVE SMOOTH",
"385 421 OFFCURVE",
"408 420 OFFCURVE",
"429 416 CURVE",
"401 350 OFFCURVE",
"342 311 OFFCURVE",
"257 311 CURVE",
"257 250 LINE",
"273 250 LINE SMOOTH",
"369 250 OFFCURVE",
"420 223 OFFCURVE",
"420 153 CURVE SMOOTH",
"420 105 OFFCURVE",
"386 55 OFFCURVE",
"298 55 CURVE SMOOTH",
"210 55 OFFCURVE",
"138 114 OFFCURVE",
"138 222 CURVE SMOOTH"
);
},
{
closed = 1;
nodes = (
"526 480 OFFCURVE",
"528 497 OFFCURVE",
"528 519 CURVE SMOOTH",
"528 535 OFFCURVE",
"527 547 OFFCURVE",
"524 561 CURVE",
"697 561 LINE",
"698 545 OFFCURVE",
"698 530 OFFCURVE",
"698 514 CURVE SMOOTH",
"698 467 OFFCURVE",
"692 418 OFFCURVE",
"683 377 CURVE",
"646 410 OFFCURVE",
"581 446 OFFCURVE",
"522 464 CURVE"
);
},
{
closed = 1;
nodes = (
"689 175 OFFCURVE",
"696 206 OFFCURVE",
"713 258 CURVE",
"732 231 OFFCURVE",
"744 191 OFFCURVE",
"744 148 CURVE SMOOTH",
"744 116 OFFCURVE",
"734 99 OFFCURVE",
"716 99 CURVE SMOOTH",
"699 99 OFFCURVE",
"689 112 OFFCURVE",
"689 140 CURVE SMOOTH"
);
}
);
width = 908;
}
);
unicode = 11D71;
category = Letter;
userData = {
com.typemytype.robofont.guides = (
{
angle = 0;
isGlobal = 0;
magnetic = 5;
x = 0;
y = -22;
},
{
angle = 0;
isGlobal = 0;
magnetic = 5;
name = danda;
x = 0;
y = 75;
}
);
com.typemytype.robofont.mark = (
1,
0.6,
0.6,
1
);
};
},
{
glyphname = Kha.GGondi;
lastChange = "2019-10-04 20:07:41 +0000";
layers = (
{
anchors = (
{
name = bottom;
position = "{617, -28}";
},
{
name = top;
position = "{675, 656}";
}
);
background = {
anchors = (
{
name = bottom;
position = "{617, -28}";
},
{
name = top;
position = "{675, 656}";
}
);
paths = (
{
closed = 1;
nodes = (
"637 561 LINE",
"637 534 LINE SMOOTH",
"639 476 OFFCURVE",
"627 408 OFFCURVE",
"603 330 CURVE",
"579 337 OFFCURVE",
"551 340 OFFCURVE",
"520 340 CURVE SMOOTH",
"437 340 LINE",
"422 469 OFFCURVE",
"326 518 OFFCURVE",
"237 518 CURVE SMOOTH",
"137 518 OFFCURVE",
"87 470 OFFCURVE",
"87 398 CURVE SMOOTH",
"87 343 OFFCURVE",
"131 288 OFFCURVE",
"226 288 CURVE SMOOTH",
"256 288 OFFCURVE",
"294 296 OFFCURVE",
"311 306 CURVE",
"290 366 LINE",
"274 359 OFFCURVE",
"251 354 OFFCURVE",
"231 354 CURVE SMOOTH",
"182 354 OFFCURVE",
"165 374 OFFCURVE",
"165 400 CURVE SMOOTH",
"165 430 OFFCURVE",
"192 452 OFFCURVE",
"237 452 CURVE SMOOTH",
"295 452 OFFCURVE",
"359 414 OFFCURVE",
"359 309 CURVE SMOOTH",
"359 244 OFFCURVE",
"330 196 OFFCURVE",
"299 170 CURVE",
"260 216 OFFCURVE",
"216 242 OFFCURVE",
"161 242 CURVE SMOOTH",
"114 242 OFFCURVE",
"67 220 OFFCURVE",
"67 159 CURVE SMOOTH",
"67 107 OFFCURVE",
"115 67 OFFCURVE",
"199 67 CURVE SMOOTH",
"237 67 OFFCURVE",
"264 74 OFFCURVE",
"286 83 CURVE",
"363 -52 LINE",
"430 -15 LINE",
"344 111 LINE",
"383 138 OFFCURVE",
"427 196 OFFCURVE",
"437 272 CURVE",
"520 272 LINE SMOOTH",
"545 272 OFFCURVE",
"564 271 OFFCURVE",
"578 268 CURVE",
"565 231 OFFCURVE",
"555 189 OFFCURVE",
"555 148 CURVE SMOOTH",
"555 69 OFFCURVE",
"603 38 OFFCURVE",
"656 38 CURVE SMOOTH",
"716 38 OFFCURVE",
"755 73 OFFCURVE",
"755 146 CURVE SMOOTH",
"755 216 OFFCURVE",
"718 270 OFFCURVE",
"670 303 CURVE",
"701 381 OFFCURVE",
"716 463 OFFCURVE",
"716 538 CURVE",
"715 561 LINE",
"857 561 LINE",
"857 622 LINE",
"-10 622 LINE",
"-10 561 LINE"
);
},
{
closed = 1;
nodes = (
"145 170 OFFCURVE",
"155 176 OFFCURVE",
"168 176 CURVE SMOOTH",
"194 176 OFFCURVE",
"217 165 OFFCURVE",
"245 141 CURVE",
"230 137 OFFCURVE",
"215 134 OFFCURVE",
"197 134 CURVE SMOOTH",
"167 134 OFFCURVE",
"145 141 OFFCURVE",
"145 157 CURVE SMOOTH"
);
},
{
closed = 1;
nodes = (
"628 180 OFFCURVE",
"634 212 OFFCURVE",
"645 242 CURVE",
"667 226 OFFCURVE",
"683 193 OFFCURVE",
"683 148 CURVE SMOOTH",
"683 116 OFFCURVE",
"673 99 OFFCURVE",
"656 99 CURVE SMOOTH",
"638 99 OFFCURVE",
"628 115 OFFCURVE",
"628 150 CURVE SMOOTH"
);
}
);
};
layerId = "1D9335A4-69BC-4202-817B-D13DAA30F854";
paths = (
{
closed = 1;
nodes = (
"637 561 LINE",
"637 534 LINE SMOOTH",
"639 476 OFFCURVE",
"627 408 OFFCURVE",
"603 330 CURVE",
"579 337 OFFCURVE",
"551 340 OFFCURVE",
"520 340 CURVE SMOOTH",
"437 340 LINE",
"422 469 OFFCURVE",
"326 518 OFFCURVE",
"237 518 CURVE SMOOTH",
"137 518 OFFCURVE",
"87 470 OFFCURVE",
"87 398 CURVE SMOOTH",
"87 343 OFFCURVE",
"131 288 OFFCURVE",
"226 288 CURVE SMOOTH",
"256 288 OFFCURVE",
"294 296 OFFCURVE",
"311 306 CURVE",
"290 366 LINE",
"274 359 OFFCURVE",
"251 354 OFFCURVE",
"231 354 CURVE SMOOTH",
"182 354 OFFCURVE",
"165 374 OFFCURVE",
"165 400 CURVE SMOOTH",
"165 430 OFFCURVE",
"192 452 OFFCURVE",
"237 452 CURVE SMOOTH",
"295 452 OFFCURVE",
"359 414 OFFCURVE",
"359 309 CURVE SMOOTH",
"359 244 OFFCURVE",
"330 196 OFFCURVE",
"299 170 CURVE",
"260 216 OFFCURVE",
"216 242 OFFCURVE",
"161 242 CURVE SMOOTH",
"114 242 OFFCURVE",
"67 220 OFFCURVE",
"67 159 CURVE SMOOTH",
"67 107 OFFCURVE",
"115 67 OFFCURVE",
"199 67 CURVE SMOOTH",
"237 67 OFFCURVE",
"264 74 OFFCURVE",
"286 83 CURVE",
"363 -52 LINE",
"430 -15 LINE",
"344 111 LINE",
"383 138 OFFCURVE",
"427 196 OFFCURVE",
"437 272 CURVE",
"520 272 LINE SMOOTH",
"545 272 OFFCURVE",
"564 271 OFFCURVE",
"578 268 CURVE",
"565 231 OFFCURVE",
"555 189 OFFCURVE",
"555 148 CURVE SMOOTH",
"555 69 OFFCURVE",
"603 38 OFFCURVE",
"656 38 CURVE SMOOTH",
"716 38 OFFCURVE",
"755 73 OFFCURVE",
"755 146 CURVE SMOOTH",
"755 216 OFFCURVE",
"718 270 OFFCURVE",
"670 303 CURVE",
"701 381 OFFCURVE",
"716 463 OFFCURVE",
"716 538 CURVE",
"715 561 LINE",
"857 561 LINE",
"857 622 LINE",
"-10 622 LINE",
"-10 561 LINE"
);
},
{
closed = 1;
nodes = (
"145 170 OFFCURVE",
"155 176 OFFCURVE",
"168 176 CURVE SMOOTH",
"194 176 OFFCURVE",
"217 165 OFFCURVE",
"245 141 CURVE",
"230 137 OFFCURVE",
"215 134 OFFCURVE",
"197 134 CURVE SMOOTH",
"167 134 OFFCURVE",
"145 141 OFFCURVE",
"145 157 CURVE SMOOTH"
);
},
{
closed = 1;
nodes = (
"628 180 OFFCURVE",
"634 212 OFFCURVE",
"645 242 CURVE",
"667 226 OFFCURVE",
"683 193 OFFCURVE",
"683 148 CURVE SMOOTH",
"683 116 OFFCURVE",
"673 99 OFFCURVE",
"656 99 CURVE SMOOTH",
"638 99 OFFCURVE",
"628 115 OFFCURVE",
"628 150 CURVE SMOOTH"
);
}
);
width = 847;
}
);
unicode = 11D72;
category = Letter;
userData = {
com.typemytype.robofont.mark = (
1,
0.6,
0.6,
1
);
};
},
{
glyphname = Ta.GGondi;
lastChange = "2019-10-04 20:07:41 +0000";
layers = (
{
anchors = (
{
name = bottom;
position = "{426, -28}";
},
{
name = top;
position = "{483, 656}";
}
);
background = {
anchors = (
{
name = bottom;
position = "{426, -28}";
},
{
name = top;
position = "{483, 656}";
}
);
paths = (
{
closed = 1;
nodes = (
"445 561 LINE",
"445 546 LINE SMOOTH",
"445 507 OFFCURVE",
"439 455 OFFCURVE",
"431 411 CURVE",
"401 426 OFFCURVE",
"353 441 OFFCURVE",
"301 441 CURVE SMOOTH",
"175 441 OFFCURVE",
"66 372 OFFCURVE",
"66 217 CURVE SMOOTH",
"66 116 OFFCURVE",
"105 39 OFFCURVE",
"136 -5 CURVE",
"203 24 LINE",
"182 61 OFFCURVE",
"146 132 OFFCURVE",
"146 214 CURVE SMOOTH",
"146 318 OFFCURVE",
"218 373 OFFCURVE",
"303 373 CURVE SMOOTH",
"346 373 OFFCURVE",
"384 363 OFFCURVE",
"410 350 CURVE",
"409 348 LINE",
"384 272 OFFCURVE",
"364 217 OFFCURVE",
"364 163 CURVE SMOOTH",
"364 87 OFFCURVE",
"412 58 OFFCURVE",
"464 58 CURVE SMOOTH",
"525 58 OFFCURVE",
"564 95 OFFCURVE",
"564 171 CURVE SMOOTH",
"564 252 OFFCURVE",
"532 315 OFFCURVE",
"494 355 CURVE",
"512 406 OFFCURVE",
"524 479 OFFCURVE",
"524 550 CURVE",
"524 561 LINE",
"665 561 LINE",
"665 622 LINE",
"-10 622 LINE",
"-10 561 LINE"
);
},
{
closed = 1;
nodes = (
"437 199 OFFCURVE",
"446 234 OFFCURVE",
"463 295 CURVE",
"481 267 OFFCURVE",
"492 226 OFFCURVE",
"492 173 CURVE SMOOTH",
"492 138 OFFCURVE",
"482 119 OFFCURVE",
"464 119 CURVE SMOOTH",
"447 119 OFFCURVE",
"437 134 OFFCURVE",
"437 165 CURVE SMOOTH"
);
}
);
};
layerId = "1D9335A4-69BC-4202-817B-D13DAA30F854";
paths = (
{
closed = 1;
nodes = (
"445 561 LINE",
"445 546 LINE SMOOTH",
"445 507 OFFCURVE",
"439 455 OFFCURVE",
"431 411 CURVE",
"401 426 OFFCURVE",
"353 441 OFFCURVE",
"301 441 CURVE SMOOTH",
"175 441 OFFCURVE",
"66 372 OFFCURVE",
"66 217 CURVE SMOOTH",
"66 116 OFFCURVE",
"105 39 OFFCURVE",
"136 -5 CURVE",
"203 24 LINE",
"182 61 OFFCURVE",
"146 132 OFFCURVE",
"146 214 CURVE SMOOTH",
"146 318 OFFCURVE",
"218 373 OFFCURVE",
"303 373 CURVE SMOOTH",
"346 373 OFFCURVE",
"384 363 OFFCURVE",
"410 350 CURVE",
"409 348 LINE",
"384 272 OFFCURVE",
"364 217 OFFCURVE",
"364 163 CURVE SMOOTH",
"364 87 OFFCURVE",
"412 58 OFFCURVE",
"464 58 CURVE SMOOTH",
"525 58 OFFCURVE",
"564 95 OFFCURVE",
"564 171 CURVE SMOOTH",
"564 252 OFFCURVE",
"532 315 OFFCURVE",
"494 355 CURVE",
"512 406 OFFCURVE",
"524 479 OFFCURVE",
"524 550 CURVE",
"524 561 LINE",
"665 561 LINE",
"665 622 LINE",
"-10 622 LINE",
"-10 561 LINE"
);
},
{
closed = 1;
nodes = (
"437 199 OFFCURVE",
"446 234 OFFCURVE",
"463 295 CURVE",
"481 267 OFFCURVE",
"492 226 OFFCURVE",
"492 173 CURVE SMOOTH",
"492 138 OFFCURVE",
"482 119 OFFCURVE",
"464 119 CURVE SMOOTH",
"447 119 OFFCURVE",
"437 134 OFFCURVE",
"437 165 CURVE SMOOTH"
);
}
);
width = 655;
}
);
unicode = 11D73;
category = Letter;
userData = {
com.typemytype.robofont.guides = (
{
angle = 0;
isGlobal = 0;
magnetic = 5;
x = 0;
y = 444;
}
);
com.typemytype.robofont.mark = (
1,
0.6,
0.6,
1
);
};
},
{
glyphname = Tha.GGondi;
lastChange = "2019-10-04 20:07:41 +0000";
layers = (
{
anchors = (
{
name = bottom;
position = "{684, -28}";
},
{
name = top;
position = "{742, 656}";
}
);
background = {
anchors = (
{
name = bottom;
position = "{684, -28}";
},
{
name = top;
position = "{742, 656}";
}
);
paths = (
{
closed = 1;
nodes = (
"71 459 OFFCURVE",
"119 410 OFFCURVE",
"195 401 CURVE",
"208 463 LINE",
"172 469 OFFCURVE",
"149 490 OFFCURVE",
"149 528 CURVE SMOOTH",
"149 563 OFFCURVE",
"174 590 OFFCURVE",
"213 590 CURVE SMOOTH",
"257 590 OFFCURVE",
"288 558 OFFCURVE",
"288 496 CURVE SMOOTH",
"288 391 OFFCURVE",
"201 339 OFFCURVE",
"83 323 CURVE",
"83 292 LINE SMOOTH",
"83 129 OFFCURVE",
"171 42 OFFCURVE",
"313 42 CURVE SMOOTH",
"453 42 OFFCURVE",
"521 124 OFFCURVE",
"521 230 CURVE SMOOTH",
"521 270 OFFCURVE",
"512 301 OFFCURVE",
"497 329 CURVE",
"527 329 LINE SMOOTH",
"595 329 OFFCURVE",
"632 320 OFFCURVE",
"660 306 CURVE",
"638 241 OFFCURVE",
"622 192 OFFCURVE",
"622 143 CURVE SMOOTH",
"622 67 OFFCURVE",
"670 38 OFFCURVE",
"722 38 CURVE SMOOTH",
"783 38 OFFCURVE",
"822 75 OFFCURVE",
"822 151 CURVE SMOOTH",
"822 232 OFFCURVE",
"788 293 OFFCURVE",
"749 331 CURVE",
"766 377 OFFCURVE",
"783 458 OFFCURVE",
"783 530 CURVE SMOOTH",
"783 541 OFFCURVE",
"782 551 OFFCURVE",
"782 561 CURVE",
"924 561 LINE",
"924 622 LINE",
"425 622 LINE",
"425 561 LINE",
"703 561 LINE",
"704 549 OFFCURVE",
"704 538 OFFCURVE",
"704 526 CURVE SMOOTH",
"706 470 OFFCURVE",
"695 411 OFFCURVE",
"683 366 CURVE",
"651 383 OFFCURVE",
"599 397 OFFCURVE",
"529 397 CURVE SMOOTH",
"412 397 LINE",
"412 343 LINE",
"433 312 OFFCURVE",
"443 277 OFFCURVE",
"443 237 CURVE SMOOTH",
"443 161 OFFCURVE",
"395 110 OFFCURVE",
"313 110 CURVE SMOOTH",
"220 110 OFFCURVE",
"173 169 OFFCURVE",
"168 265 CURVE",
"286 291 OFFCURVE",
"366 390 OFFCURVE",
"366 496 CURVE SMOOTH",
"366 593 OFFCURVE",
"301 656 OFFCURVE",
"212 656 CURVE SMOOTH",
"137 656 OFFCURVE",
"71 613 OFFCURVE",
"71 525 CURVE SMOOTH"
);
},
{
closed = 1;
nodes = (
"695 178 OFFCURVE",
"703 213 OFFCURVE",
"720 270 CURVE",
"738 245 OFFCURVE",
"750 205 OFFCURVE",
"750 153 CURVE SMOOTH",
"750 118 OFFCURVE",
"740 99 OFFCURVE",
"722 99 CURVE SMOOTH",
"705 99 OFFCURVE",
"695 114 OFFCURVE",
"695 145 CURVE SMOOTH"
);
}
);
};
layerId = "1D9335A4-69BC-4202-817B-D13DAA30F854";
paths = (
{
closed = 1;
nodes = (
"71 459 OFFCURVE",
"119 410 OFFCURVE",
"195 401 CURVE",
"208 463 LINE",
"172 469 OFFCURVE",
"149 490 OFFCURVE",
"149 528 CURVE SMOOTH",
"149 563 OFFCURVE",
"174 590 OFFCURVE",
"213 590 CURVE SMOOTH",
"257 590 OFFCURVE",
"288 558 OFFCURVE",
"288 496 CURVE SMOOTH",
"288 391 OFFCURVE",
"201 339 OFFCURVE",
"83 323 CURVE",
"83 292 LINE SMOOTH",
"83 129 OFFCURVE",
"171 42 OFFCURVE",
"313 42 CURVE SMOOTH",
"453 42 OFFCURVE",
"521 124 OFFCURVE",
"521 230 CURVE SMOOTH",
"521 270 OFFCURVE",
"512 301 OFFCURVE",
"497 329 CURVE",
"527 329 LINE SMOOTH",
"595 329 OFFCURVE",
"632 320 OFFCURVE",
"660 306 CURVE",
"638 241 OFFCURVE",
"622 192 OFFCURVE",
"622 143 CURVE SMOOTH",
"622 67 OFFCURVE",
"670 38 OFFCURVE",
"722 38 CURVE SMOOTH",
"783 38 OFFCURVE",
"822 75 OFFCURVE",
"822 151 CURVE SMOOTH",
"822 232 OFFCURVE",
"788 293 OFFCURVE",
"749 331 CURVE",
"766 377 OFFCURVE",
"783 458 OFFCURVE",
"783 530 CURVE SMOOTH",
"783 541 OFFCURVE",
"782 551 OFFCURVE",
"782 561 CURVE",
"924 561 LINE",
"924 622 LINE",
"425 622 LINE",
"425 561 LINE",
"703 561 LINE",
"704 549 OFFCURVE",
"704 538 OFFCURVE",
"704 526 CURVE SMOOTH",
"706 470 OFFCURVE",
"695 411 OFFCURVE",
"683 366 CURVE",
"651 383 OFFCURVE",
"599 397 OFFCURVE",
"529 397 CURVE SMOOTH",
"412 397 LINE",
"412 343 LINE",
"433 312 OFFCURVE",
"443 277 OFFCURVE",
"443 237 CURVE SMOOTH",
"443 161 OFFCURVE",
"395 110 OFFCURVE",
"313 110 CURVE SMOOTH",
"220 110 OFFCURVE",
"173 169 OFFCURVE",
"168 265 CURVE",
"286 291 OFFCURVE",
"366 390 OFFCURVE",
"366 496 CURVE SMOOTH",
"366 593 OFFCURVE",
"301 656 OFFCURVE",
"212 656 CURVE SMOOTH",
"137 656 OFFCURVE",
"71 613 OFFCURVE",
"71 525 CURVE SMOOTH"
);
},
{
closed = 1;
nodes = (
"695 178 OFFCURVE",
"703 213 OFFCURVE",
"720 270 CURVE",
"738 245 OFFCURVE",
"750 205 OFFCURVE",
"750 153 CURVE SMOOTH",
"750 118 OFFCURVE",
"740 99 OFFCURVE",
"722 99 CURVE SMOOTH",
"705 99 OFFCURVE",
"695 114 OFFCURVE",
"695 145 CURVE SMOOTH"
);
}
);
width = 914;
}
);
unicode = 11D74;
category = Letter;
userData = {
com.typemytype.robofont.mark = (
1,
0.6,
0.6,
1
);
};
},
{
glyphname = La.GGondi;
lastChange = "2019-10-04 20:07:41 +0000";
layers = (
{
anchors = (
{
name = bottom;
position = "{486, -28}";
},
{
name = top;
position = "{543, 656}";
}
);
background = {
anchors = (
{
name = bottom;
position = "{486, -28}";
},
{
name = top;
position = "{543, 656}";
}
);
paths = (
{
closed = 1;
nodes = (
"505 561 LINE",
"505 546 LINE SMOOTH",
"506 504 OFFCURVE",
"499 446 OFFCURVE",
"489 401 CURVE",
"456 422 OFFCURVE",
"409 441 OFFCURVE",
"329 441 CURVE SMOOTH",
"196 441 OFFCURVE",
"61 366 OFFCURVE",
"61 192 CURVE SMOOTH",
"61 72 OFFCURVE",
"133 0 OFFCURVE",
"223 0 CURVE SMOOTH",
"299 0 OFFCURVE",
"348 41 OFFCURVE",
"348 114 CURVE SMOOTH",
"348 186 OFFCURVE",
"293 227 OFFCURVE",
"239 227 CURVE SMOOTH",
"192 227 OFFCURVE",
"160 205 OFFCURVE",
"142 175 CURVE",
"141 198 LINE",
"141 313 OFFCURVE",
"231 373 OFFCURVE",
"337 373 CURVE SMOOTH",
"396 373 OFFCURVE",
"437 357 OFFCURVE",
"466 338 CURVE",
"442 267 OFFCURVE",
"424 215 OFFCURVE",
"424 163 CURVE SMOOTH",
"424 87 OFFCURVE",
"472 58 OFFCURVE",
"524 58 CURVE SMOOTH",
"585 58 OFFCURVE",
"624 95 OFFCURVE",
"624 171 CURVE SMOOTH",
"624 252 OFFCURVE",
"592 315 OFFCURVE",
"554 355 CURVE",
"572 406 OFFCURVE",
"584 479 OFFCURVE",
"584 550 CURVE",
"584 561 LINE",
"726 561 LINE",
"726 622 LINE",
"-10 622 LINE",
"-10 561 LINE"
);
},
{
closed = 1;
nodes = (
"172 145 OFFCURVE",
"198 160 OFFCURVE",
"221 161 CURVE SMOOTH",
"248 162 OFFCURVE",
"272 144 OFFCURVE",
"272 113 CURVE SMOOTH",
"272 85 OFFCURVE",
"252 66 OFFCURVE",
"221 66 CURVE SMOOTH",
"194 66 OFFCURVE",
"174 78 OFFCURVE",
"160 99 CURVE"
);
},
{
closed = 1;
nodes = (
"497 199 OFFCURVE",
"506 234 OFFCURVE",
"523 295 CURVE",
"541 267 OFFCURVE",
"552 226 OFFCURVE",
"552 173 CURVE SMOOTH",
"552 138 OFFCURVE",
"542 119 OFFCURVE",
"524 119 CURVE SMOOTH",
"507 119 OFFCURVE",
"497 134 OFFCURVE",
"497 165 CURVE SMOOTH"
);
}
);
};
layerId = "1D9335A4-69BC-4202-817B-D13DAA30F854";
paths = (
{
closed = 1;
nodes = (
"505 561 LINE",
"505 546 LINE SMOOTH",
"506 504 OFFCURVE",
"499 446 OFFCURVE",
"489 401 CURVE",
"456 422 OFFCURVE",
"409 441 OFFCURVE",
"329 441 CURVE SMOOTH",
"196 441 OFFCURVE",
"61 366 OFFCURVE",
"61 192 CURVE SMOOTH",
"61 72 OFFCURVE",
"133 0 OFFCURVE",
"223 0 CURVE SMOOTH",
"299 0 OFFCURVE",
"348 41 OFFCURVE",
"348 114 CURVE SMOOTH",
"348 186 OFFCURVE",
"293 227 OFFCURVE",
"239 227 CURVE SMOOTH",
"192 227 OFFCURVE",
"160 205 OFFCURVE",
"142 175 CURVE",
"141 198 LINE",
"141 313 OFFCURVE",
"231 373 OFFCURVE",
"337 373 CURVE SMOOTH",
"396 373 OFFCURVE",
"437 357 OFFCURVE",
"466 338 CURVE",
"442 267 OFFCURVE",
"424 215 OFFCURVE",
"424 163 CURVE SMOOTH",
"424 87 OFFCURVE",
"472 58 OFFCURVE",
"524 58 CURVE SMOOTH",
"585 58 OFFCURVE",
"624 95 OFFCURVE",
"624 171 CURVE SMOOTH",
"624 252 OFFCURVE",
"592 315 OFFCURVE",
"554 355 CURVE",
"572 406 OFFCURVE",
"584 479 OFFCURVE",
"584 550 CURVE",
"584 561 LINE",
"726 561 LINE",
"726 622 LINE",
"-10 622 LINE",
"-10 561 LINE"
);
},
{
closed = 1;
nodes = (
"172 145 OFFCURVE",
"198 160 OFFCURVE",
"221 161 CURVE SMOOTH",
"248 162 OFFCURVE",
"272 144 OFFCURVE",
"272 113 CURVE SMOOTH",
"272 85 OFFCURVE",
"252 66 OFFCURVE",
"221 66 CURVE SMOOTH",
"194 66 OFFCURVE",
"174 78 OFFCURVE",
"160 99 CURVE"
);
},
{
closed = 1;
nodes = (
"497 199 OFFCURVE",
"506 234 OFFCURVE",
"523 295 CURVE",
"541 267 OFFCURVE",
"552 226 OFFCURVE",
"552 173 CURVE SMOOTH",
"552 138 OFFCURVE",
"542 119 OFFCURVE",
"524 119 CURVE SMOOTH",
"507 119 OFFCURVE",
"497 134 OFFCURVE",
"497 165 CURVE SMOOTH"
);
}
);
width = 716;
}
);
unicode = 11D75;
category = Letter;
userData = {
com.typemytype.robofont.mark = (
1,
0.6,
0.6,
1
);
};
},
{
glyphname = Ga.GGondi;
lastChange = "2019-10-04 20:07:41 +0000";
layers = (
{
anchors = (
{
name = bottom;
position = "{465, -28}";
},
{
name = top;
position = "{659, 656}";
}
);
background = {
anchors = (
{
name = bottom;
position = "{465, -28}";
},
{
name = top;
position = "{659, 656}";
}
);
paths = (
{
closed = 1;
nodes = (
"618 561 LINE",
"618 554 LINE SMOOTH",
"618 401 OFFCURVE",
"543 318 OFFCURVE",
"472 263 CURVE",
"432 282 OFFCURVE",
"400 297 OFFCURVE",
"375 311 CURVE",
"410 332 OFFCURVE",
"432 369 OFFCURVE",
"432 407 CURVE SMOOTH",
"432 473 OFFCURVE",
"379 508 OFFCURVE",
"322 510 CURVE SMOOTH",
"258 512 OFFCURVE",
"209 475 OFFCURVE",
"209 411 CURVE SMOOTH",
"209 376 OFFCURVE",
"225 347 OFFCURVE",
"252 323 CURVE",
"138 269 LINE SMOOTH",
"73 238 OFFCURVE",
"33 206 OFFCURVE",
"33 147 CURVE SMOOTH",
"33 89 OFFCURVE",
"78 52 OFFCURVE",
"142 52 CURVE SMOOTH",
"200 52 OFFCURVE",
"245 88 OFFCURVE",
"245 144 CURVE SMOOTH",
"245 176 OFFCURVE",
"223 209 OFFCURVE",
"195 229 CURVE",
"301 280 LINE",
"309 275 OFFCURVE",
"319 271 OFFCURVE",
"327 266 CURVE SMOOTH",
"363 247 OFFCURVE",
"386 234 OFFCURVE",
"407 224 CURVE",
"375 198 OFFCURVE",
"347 165 OFFCURVE",
"347 112 CURVE SMOOTH",
"347 45 OFFCURVE",
"401 3 OFFCURVE",
"477 3 CURVE SMOOTH",
"554 3 OFFCURVE",
"603 48 OFFCURVE",
"603 112 CURVE SMOOTH",
"603 161 OFFCURVE",
"570 203 OFFCURVE",
"535 228 CURVE",
"607 282 OFFCURVE",
"698 377 OFFCURVE",
"698 554 CURVE SMOOTH",
"698 561 LINE",
"791 561 LINE",
"791 622 LINE",
"-20 622 LINE",
"-20 561 LINE"
);
},
{
closed = 1;
nodes = (
"106 171 OFFCURVE",
"118 188 OFFCURVE",
"143 202 CURVE",
"160 189 OFFCURVE",
"177 171 OFFCURVE",
"177 148 CURVE SMOOTH",
"177 127 OFFCURVE",
"162 113 OFFCURVE",
"142 113 CURVE SMOOTH",
"123 113 OFFCURVE",
"106 126 OFFCURVE",
"106 150 CURVE SMOOTH"
);
},
{
closed = 1;
nodes = (
"284 441 OFFCURVE",
"308 449 OFFCURVE",
"322 449 CURVE SMOOTH",
"342 449 OFFCURVE",
"361 437 OFFCURVE",
"361 406 CURVE SMOOTH",
"361 384 OFFCURVE",
"344 362 OFFCURVE",
"319 347 CURVE",
"291 369 OFFCURVE",
"284 387 OFFCURVE",
"284 408 CURVE SMOOTH"
);
},
{
closed = 1;
nodes = (
"427 150 OFFCURVE",
"446 171 OFFCURVE",
"473 195 CURVE",
"505 176 OFFCURVE",
"525 150 OFFCURVE",
"525 120 CURVE SMOOTH",
"525 93 OFFCURVE",
"506 71 OFFCURVE",
"476 71 CURVE SMOOTH",
"443 71 OFFCURVE",
"427 92 OFFCURVE",
"427 118 CURVE SMOOTH"
);
}
);
};
layerId = "1D9335A4-69BC-4202-817B-D13DAA30F854";
paths = (
{
closed = 1;
nodes = (
"618 561 LINE",
"618 554 LINE SMOOTH",
"618 401 OFFCURVE",
"543 318 OFFCURVE",
"472 263 CURVE",
"432 282 OFFCURVE",
"400 297 OFFCURVE",
"375 311 CURVE",
"410 332 OFFCURVE",
"432 369 OFFCURVE",
"432 407 CURVE SMOOTH",
"432 473 OFFCURVE",
"379 508 OFFCURVE",
"322 510 CURVE SMOOTH",
"258 512 OFFCURVE",
"209 475 OFFCURVE",
"209 411 CURVE SMOOTH",
"209 376 OFFCURVE",
"225 347 OFFCURVE",
"252 323 CURVE",
"138 269 LINE SMOOTH",
"73 238 OFFCURVE",
"33 206 OFFCURVE",
"33 147 CURVE SMOOTH",
"33 89 OFFCURVE",
"78 52 OFFCURVE",
"142 52 CURVE SMOOTH",
"200 52 OFFCURVE",
"245 88 OFFCURVE",
"245 144 CURVE SMOOTH",
"245 176 OFFCURVE",
"223 209 OFFCURVE",
"195 229 CURVE",
"301 280 LINE",
"309 275 OFFCURVE",
"319 271 OFFCURVE",
"327 266 CURVE SMOOTH",
"363 247 OFFCURVE",
"386 234 OFFCURVE",
"407 224 CURVE",
"375 198 OFFCURVE",
"347 165 OFFCURVE",
"347 112 CURVE SMOOTH",
"347 45 OFFCURVE",
"401 3 OFFCURVE",
"477 3 CURVE SMOOTH",
"554 3 OFFCURVE",
"603 48 OFFCURVE",
"603 112 CURVE SMOOTH",
"603 161 OFFCURVE",
"570 203 OFFCURVE",
"535 228 CURVE",
"607 282 OFFCURVE",
"698 377 OFFCURVE",
"698 554 CURVE SMOOTH",
"698 561 LINE",
"791 561 LINE",
"791 622 LINE",
"-20 622 LINE",
"-20 561 LINE"
);
},
{
closed = 1;
nodes = (
"106 171 OFFCURVE",
"118 188 OFFCURVE",
"143 202 CURVE",
"160 189 OFFCURVE",
"177 171 OFFCURVE",
"177 148 CURVE SMOOTH",
"177 127 OFFCURVE",
"162 113 OFFCURVE",
"142 113 CURVE SMOOTH",
"123 113 OFFCURVE",
"106 126 OFFCURVE",
"106 150 CURVE SMOOTH"
);
},
{
closed = 1;
nodes = (
"284 441 OFFCURVE",
"308 449 OFFCURVE",
"322 449 CURVE SMOOTH",
"342 449 OFFCURVE",
"361 437 OFFCURVE",
"361 406 CURVE SMOOTH",
"361 384 OFFCURVE",
"344 362 OFFCURVE",
"319 347 CURVE",
"291 369 OFFCURVE",
"284 387 OFFCURVE",
"284 408 CURVE SMOOTH"
);
},
{
closed = 1;
nodes = (
"427 150 OFFCURVE",
"446 171 OFFCURVE",
"473 195 CURVE",
"505 176 OFFCURVE",
"525 150 OFFCURVE",
"525 120 CURVE SMOOTH",
"525 93 OFFCURVE",
"506 71 OFFCURVE",
"476 71 CURVE SMOOTH",
"443 71 OFFCURVE",
"427 92 OFFCURVE",
"427 118 CURVE SMOOTH"
);
}
);
width = 761;
}
);
rightKerningGroup = Ya.GGondi;
unicode = 11D76;
category = Letter;
userData = {
com.typemytype.robofont.mark = (
0.835,
1,
0.6,
1
);
};
},
{
glyphname = Gha.GGondi;
lastChange = "2019-10-04 20:07:41 +0000";
layers = (
{
anchors = (
{
name = bottom;
position = "{596, -28}";
},
{
name = top;
position = "{653, 656}";
}
);
background = {
anchors = (
{
name = bottom;
position = "{596, -28}";
},
{
name = top;
position = "{653, 656}";
}
);
paths = (
{
closed = 1;
nodes = (
"65 561 LINE",
"59 545 OFFCURVE",
"56 528 OFFCURVE",
"56 508 CURVE SMOOTH",
"56 417 OFFCURVE",
"116 369 OFFCURVE",
"206 324 CURVE SMOOTH",
"282 286 LINE SMOOTH",
"310 272 OFFCURVE",
"323 254 OFFCURVE",
"323 230 CURVE SMOOTH",
"323 202 OFFCURVE",
"301 184 OFFCURVE",
"264 184 CURVE SMOOTH",
"115 184 LINE",
"115 120 LINE",
"262 120 LINE SMOOTH",
"295 120 OFFCURVE",
"324 101 OFFCURVE",
"324 63 CURVE SMOOTH",
"324 24 OFFCURVE",
"286 0 OFFCURVE",
"233 0 CURVE SMOOTH",
"179 0 OFFCURVE",
"141 14 OFFCURVE",
"101 38 CURVE",
"69 -22 LINE",
"107 -48 OFFCURVE",
"161 -68 OFFCURVE",
"234 -68 CURVE SMOOTH",
"341 -68 OFFCURVE",
"402 -17 OFFCURVE",
"402 54 CURVE SMOOTH",
"402 102 OFFCURVE",
"373 131 OFFCURVE",
"348 145 CURVE",
"376 158 OFFCURVE",
"401 185 OFFCURVE",
"401 230 CURVE SMOOTH",
"401 284 OFFCURVE",
"358 324 OFFCURVE",
"304 348 CURVE",
"322 348 OFFCURVE",
"340 347 OFFCURVE",
"349 347 CURVE SMOOTH",
"438 347 LINE SMOOTH",
"487 347 OFFCURVE",
"535 339 OFFCURVE",
"576 318 CURVE",
"552 247 OFFCURVE",
"534 195 OFFCURVE",
"534 143 CURVE SMOOTH",
"534 67 OFFCURVE",
"582 38 OFFCURVE",
"634 38 CURVE SMOOTH",
"695 38 OFFCURVE",
"734 75 OFFCURVE",
"734 151 CURVE SMOOTH",
"734 232 OFFCURVE",
"700 292 OFFCURVE",
"662 329 CURVE",
"681 380 OFFCURVE",
"694 454 OFFCURVE",
"694 530 CURVE SMOOTH",
"694 541 OFFCURVE",
"693 551 OFFCURVE",
"693 561 CURVE",
"836 561 LINE",
"836 622 LINE",
"331 622 LINE",
"309 643 OFFCURVE",
"273 656 OFFCURVE",
"226 656 CURVE SMOOTH",
"181 656 OFFCURVE",
"141 644 OFFCURVE",
"111 622 CURVE",
"-20 622 LINE",
"-20 561 LINE"
);
},
{
closed = 1;
nodes = (
"158 473 OFFCURVE",
"193 460 OFFCURVE",
"235 460 CURVE SMOOTH",
"315 460 OFFCURVE",
"358 498 OFFCURVE",
"358 558 CURVE",
"358 561 LINE",
"614 561 LINE",
"615 549 OFFCURVE",
"615 538 OFFCURVE",
"615 526 CURVE SMOOTH",
"616 482 OFFCURVE",
"608 420 OFFCURVE",
"597 374 CURVE",
"553 401 OFFCURVE",
"502 409 OFFCURVE",
"433 409 CURVE SMOOTH",
"284 409 LINE SMOOTH",
"257 409 OFFCURVE",
"232 407 OFFCURVE",
"199 405 CURVE",
"164 424 OFFCURVE",
"138 452 OFFCURVE",
"133 492 CURVE"
);
},
{
closed = 1;
nodes = (
"161 579 OFFCURVE",
"189 595 OFFCURVE",
"228 595 CURVE SMOOTH",
"253 595 OFFCURVE",
"280 584 OFFCURVE",
"280 557 CURVE SMOOTH",
"280 534 OFFCURVE",
"260 521 OFFCURVE",
"225 521 CURVE SMOOTH",
"207 521 OFFCURVE",
"170 529 OFFCURVE",
"143 554 CURVE"
);
},
{
closed = 1;
nodes = (
"607 178 OFFCURVE",
"615 213 OFFCURVE",
"632 270 CURVE",
"650 245 OFFCURVE",
"662 205 OFFCURVE",
"662 153 CURVE SMOOTH",
"662 118 OFFCURVE",
"652 99 OFFCURVE",
"634 99 CURVE SMOOTH",
"617 99 OFFCURVE",
"607 114 OFFCURVE",
"607 145 CURVE SMOOTH"
);
}
);
};
layerId = "1D9335A4-69BC-4202-817B-D13DAA30F854";
paths = (
{
closed = 1;
nodes = (
"65 561 LINE",
"59 545 OFFCURVE",
"56 528 OFFCURVE",
"56 508 CURVE SMOOTH",
"56 417 OFFCURVE",
"116 369 OFFCURVE",
"206 324 CURVE SMOOTH",
"282 286 LINE SMOOTH",
"310 272 OFFCURVE",
"323 254 OFFCURVE",
"323 230 CURVE SMOOTH",
"323 202 OFFCURVE",
"301 184 OFFCURVE",
"264 184 CURVE SMOOTH",
"115 184 LINE",
"115 120 LINE",
"262 120 LINE SMOOTH",
"295 120 OFFCURVE",
"324 101 OFFCURVE",
"324 63 CURVE SMOOTH",
"324 24 OFFCURVE",
"286 0 OFFCURVE",
"233 0 CURVE SMOOTH",
"179 0 OFFCURVE",
"141 14 OFFCURVE",
"101 38 CURVE",
"69 -22 LINE",
"107 -48 OFFCURVE",
"161 -68 OFFCURVE",
"234 -68 CURVE SMOOTH",
"341 -68 OFFCURVE",
"402 -17 OFFCURVE",
"402 54 CURVE SMOOTH",
"402 102 OFFCURVE",
"373 131 OFFCURVE",
"348 145 CURVE",
"376 158 OFFCURVE",
"401 185 OFFCURVE",
"401 230 CURVE SMOOTH",
"401 284 OFFCURVE",
"358 324 OFFCURVE",
"304 348 CURVE",
"322 348 OFFCURVE",
"340 347 OFFCURVE",
"349 347 CURVE SMOOTH",
"438 347 LINE SMOOTH",
"487 347 OFFCURVE",
"535 339 OFFCURVE",
"576 318 CURVE",
"552 247 OFFCURVE",
"534 195 OFFCURVE",
"534 143 CURVE SMOOTH",
"534 67 OFFCURVE",
"582 38 OFFCURVE",
"634 38 CURVE SMOOTH",
"695 38 OFFCURVE",
"734 75 OFFCURVE",
"734 151 CURVE SMOOTH",
"734 232 OFFCURVE",
"700 292 OFFCURVE",
"662 329 CURVE",
"681 380 OFFCURVE",
"694 454 OFFCURVE",
"694 530 CURVE SMOOTH",
"694 541 OFFCURVE",
"693 551 OFFCURVE",
"693 561 CURVE",
"836 561 LINE",
"836 622 LINE",
"331 622 LINE",
"309 643 OFFCURVE",
"273 656 OFFCURVE",
"226 656 CURVE SMOOTH",
"181 656 OFFCURVE",
"141 644 OFFCURVE",
"111 622 CURVE",
"-20 622 LINE",
"-20 561 LINE"
);
},
{
closed = 1;
nodes = (
"158 473 OFFCURVE",
"193 460 OFFCURVE",
"235 460 CURVE SMOOTH",
"315 460 OFFCURVE",
"358 498 OFFCURVE",
"358 558 CURVE",
"358 561 LINE",
"614 561 LINE",
"615 549 OFFCURVE",
"615 538 OFFCURVE",
"615 526 CURVE SMOOTH",
"616 482 OFFCURVE",
"608 420 OFFCURVE",
"597 374 CURVE",
"553 401 OFFCURVE",
"502 409 OFFCURVE",
"433 409 CURVE SMOOTH",
"284 409 LINE SMOOTH",
"257 409 OFFCURVE",
"232 407 OFFCURVE",
"199 405 CURVE",
"164 424 OFFCURVE",
"138 452 OFFCURVE",
"133 492 CURVE"
);
},
{
closed = 1;
nodes = (
"161 579 OFFCURVE",
"189 595 OFFCURVE",
"228 595 CURVE SMOOTH",
"253 595 OFFCURVE",
"280 584 OFFCURVE",
"280 557 CURVE SMOOTH",
"280 534 OFFCURVE",
"260 521 OFFCURVE",
"225 521 CURVE SMOOTH",
"207 521 OFFCURVE",
"170 529 OFFCURVE",
"143 554 CURVE"
);
},
{
closed = 1;
nodes = (
"607 178 OFFCURVE",
"615 213 OFFCURVE",
"632 270 CURVE",
"650 245 OFFCURVE",
"662 205 OFFCURVE",
"662 153 CURVE SMOOTH",
"662 118 OFFCURVE",
"652 99 OFFCURVE",
"634 99 CURVE SMOOTH",
"617 99 OFFCURVE",
"607 114 OFFCURVE",
"607 145 CURVE SMOOTH"
);
}
);
width = 826;
}
);
unicode = 11D77;
category = Letter;
userData = {
com.typemytype.robofont.mark = (
1,
0.6,
0.6,
1
);
};
},
{
glyphname = Da.GGondi;
lastChange = "2019-10-04 20:07:41 +0000";
layers = (
{
anchors = (
{
name = bottom;
position = "{588, -28}";
},
{
name = top;
position = "{636, 656}";
}
);
background = {
anchors = (
{
name = bottom;
position = "{588, -28}";
},
{
name = top;
position = "{636, 656}";
}
);
paths = (
{
closed = 1;
nodes = (
"596 561 LINE",
"598 542 OFFCURVE",
"598 530 OFFCURVE",
"598 519 CURVE SMOOTH",
"599 456 OFFCURVE",
"591 370 OFFCURVE",
"566 287 CURVE",
"544 292 OFFCURVE",
"519 295 OFFCURVE",
"491 295 CURVE SMOOTH",
"428 295 LINE",
"416 429 OFFCURVE",
"320 506 OFFCURVE",
"211 506 CURVE SMOOTH",
"127 506 OFFCURVE",
"72 453 OFFCURVE",
"72 386 CURVE SMOOTH",
"72 322 OFFCURVE",
"119 273 OFFCURVE",
"198 273 CURVE SMOOTH",
"259 273 OFFCURVE",
"314 308 OFFCURVE",
"319 379 CURVE",
"335 354 OFFCURVE",
"350 317 OFFCURVE",
"349 269 CURVE SMOOTH",
"347 164 OFFCURVE",
"304 84 OFFCURVE",
"194 84 CURVE SMOOTH",
"156 84 OFFCURVE",
"118 94 OFFCURVE",
"89 107 CURVE",
"64 44 LINE",
"103 25 OFFCURVE",
"152 16 OFFCURVE",
"197 16 CURVE SMOOTH",
"329 16 OFFCURVE",
"413 91 OFFCURVE",
"427 227 CURVE",
"491 227 LINE SMOOTH",
"512 227 OFFCURVE",
"529 226 OFFCURVE",
"542 225 CURVE",
"534 195 OFFCURVE",
"526 158 OFFCURVE",
"526 123 CURVE SMOOTH",
"526 44 OFFCURVE",
"574 13 OFFCURVE",
"627 13 CURVE SMOOTH",
"687 13 OFFCURVE",
"726 47 OFFCURVE",
"726 117 CURVE SMOOTH",
"726 184 OFFCURVE",
"685 233 OFFCURVE",
"633 264 CURVE",
"664 352 OFFCURVE",
"677 444 OFFCURVE",
"677 523 CURVE SMOOTH",
"677 537 OFFCURVE",
"676 549 OFFCURVE",
"675 561 CURVE",
"818 561 LINE",
"818 622 LINE",
"-10 622 LINE",
"-10 561 LINE"
);
},
{
closed = 1;
nodes = (
"150 417 OFFCURVE",
"175 438 OFFCURVE",
"215 438 CURVE SMOOTH",
"232 438 OFFCURVE",
"245 435 OFFCURVE",
"259 428 CURVE",
"270 358 OFFCURVE",
"231 338 OFFCURVE",
"204 338 CURVE SMOOTH",
"169 338 OFFCURVE",
"150 358 OFFCURVE",
"150 386 CURVE SMOOTH"
);
},
{
closed = 1;
nodes = (
"599 150 OFFCURVE",
"603 176 OFFCURVE",
"611 201 CURVE",
"636 189 OFFCURVE",
"654 160 OFFCURVE",
"654 119 CURVE SMOOTH",
"654 90 OFFCURVE",
"644 74 OFFCURVE",
"627 74 CURVE SMOOTH",
"609 74 OFFCURVE",
"599 90 OFFCURVE",
"599 125 CURVE SMOOTH"
);
}
);
};
layerId = "1D9335A4-69BC-4202-817B-D13DAA30F854";
paths = (
{
closed = 1;
nodes = (
"596 561 LINE",
"598 542 OFFCURVE",
"598 530 OFFCURVE",
"598 519 CURVE SMOOTH",
"599 456 OFFCURVE",
"591 370 OFFCURVE",
"566 287 CURVE",
"544 292 OFFCURVE",
"519 295 OFFCURVE",
"491 295 CURVE SMOOTH",
"428 295 LINE",
"416 429 OFFCURVE",
"320 506 OFFCURVE",
"211 506 CURVE SMOOTH",
"127 506 OFFCURVE",
"72 453 OFFCURVE",
"72 386 CURVE SMOOTH",
"72 322 OFFCURVE",
"119 273 OFFCURVE",
"198 273 CURVE SMOOTH",
"259 273 OFFCURVE",
"314 308 OFFCURVE",
"319 379 CURVE",
"335 354 OFFCURVE",
"350 317 OFFCURVE",
"349 269 CURVE SMOOTH",
"347 164 OFFCURVE",
"304 84 OFFCURVE",
"194 84 CURVE SMOOTH",
"156 84 OFFCURVE",
"118 94 OFFCURVE",
"89 107 CURVE",
"64 44 LINE",
"103 25 OFFCURVE",
"152 16 OFFCURVE",
"197 16 CURVE SMOOTH",
"329 16 OFFCURVE",
"413 91 OFFCURVE",
"427 227 CURVE",
"491 227 LINE SMOOTH",
"512 227 OFFCURVE",
"529 226 OFFCURVE",
"542 225 CURVE",
"534 195 OFFCURVE",
"526 158 OFFCURVE",
"526 123 CURVE SMOOTH",
"526 44 OFFCURVE",
"574 13 OFFCURVE",
"627 13 CURVE SMOOTH",
"687 13 OFFCURVE",
"726 47 OFFCURVE",
"726 117 CURVE SMOOTH",
"726 184 OFFCURVE",
"685 233 OFFCURVE",
"633 264 CURVE",
"664 352 OFFCURVE",
"677 444 OFFCURVE",
"677 523 CURVE SMOOTH",
"677 537 OFFCURVE",
"676 549 OFFCURVE",
"675 561 CURVE",
"818 561 LINE",
"818 622 LINE",
"-10 622 LINE",
"-10 561 LINE"
);
},
{
closed = 1;
nodes = (
"150 417 OFFCURVE",
"175 438 OFFCURVE",
"215 438 CURVE SMOOTH",
"232 438 OFFCURVE",
"245 435 OFFCURVE",
"259 428 CURVE",
"270 358 OFFCURVE",
"231 338 OFFCURVE",
"204 338 CURVE SMOOTH",
"169 338 OFFCURVE",
"150 358 OFFCURVE",
"150 386 CURVE SMOOTH"
);
},
{
closed = 1;
nodes = (
"599 150 OFFCURVE",
"603 176 OFFCURVE",
"611 201 CURVE",
"636 189 OFFCURVE",
"654 160 OFFCURVE",
"654 119 CURVE SMOOTH",
"654 90 OFFCURVE",
"644 74 OFFCURVE",
"627 74 CURVE SMOOTH",
"609 74 OFFCURVE",
"599 90 OFFCURVE",
"599 125 CURVE SMOOTH"
);
}
);
width = 808;
}
);
unicode = 11D78;
category = Letter;
userData = {
com.typemytype.robofont.mark = (
1,
0.6,
0.6,
1
);
};
},
{
glyphname = Dha.GGondi;
lastChange = "2019-10-04 20:07:41 +0000";
layers = (
{
anchors = (
{
name = bottom;
position = "{517, -28}";
},
{
name = top;
position = "{711, 656}";
}
);
background = {
anchors = (
{
name = bottom;
position = "{517, -28}";
},
{
name = top;
position = "{711, 656}";
}
);
paths = (
{
closed = 1;
nodes = (
"297 561 LINE",
"298 487 OFFCURVE",
"311 448 OFFCURVE",
"324 416 CURVE",
"325 404 OFFCURVE",
"327 396 OFFCURVE",
"327 372 CURVE SMOOTH",
"327 338 OFFCURVE",
"316 309 OFFCURVE",
"296 288 CURVE",
"179 430 LINE",
"191 435 OFFCURVE",
"204 438 OFFCURVE",
"218 438 CURVE SMOOTH",
"228 438 OFFCURVE",
"235 438 OFFCURVE",
"247 436 CURVE",
"253 501 LINE",
"243 503 OFFCURVE",
"230 504 OFFCURVE",
"214 504 CURVE SMOOTH",
"121 504 OFFCURVE",
"48 444 OFFCURVE",
"48 345 CURVE SMOOTH",
"48 247 OFFCURVE",
"125 192 OFFCURVE",
"215 192 CURVE SMOOTH",
"312 192 OFFCURVE",
"364 250 OFFCURVE",
"379 311 CURVE",
"402 279 OFFCURVE",
"431 252 OFFCURVE",
"463 227 CURVE",
"430 201 OFFCURVE",
"399 167 OFFCURVE",
"399 112 CURVE SMOOTH",
"399 45 OFFCURVE",
"453 3 OFFCURVE",
"529 3 CURVE SMOOTH",
"606 3 OFFCURVE",
"655 48 OFFCURVE",
"655 112 CURVE SMOOTH",
"655 161 OFFCURVE",
"622 203 OFFCURVE",
"587 228 CURVE",
"659 282 OFFCURVE",
"750 377 OFFCURVE",
"750 554 CURVE SMOOTH",
"750 561 LINE",
"843 561 LINE",
"843 622 LINE",
"-10 622 LINE",
"-10 561 LINE"
);
},
{
closed = 1;
nodes = (
"126 371 OFFCURVE",
"133 391 OFFCURVE",
"146 406 CURVE",
"260 264 LINE",
"249 260 OFFCURVE",
"236 258 OFFCURVE",
"223 258 CURVE SMOOTH",
"168 258 OFFCURVE",
"126 288 OFFCURVE",
"126 348 CURVE SMOOTH"
);
},
{
closed = 1;
nodes = (
"670 561 LINE",
"670 554 LINE SMOOTH",
"670 400 OFFCURVE",
"595 318 OFFCURVE",
"523 263 CURVE",
"458 315 OFFCURVE",
"372 394 OFFCURVE",
"375 561 CURVE"
);
},
{
closed = 1;
nodes = (
"479 150 OFFCURVE",
"498 171 OFFCURVE",
"525 195 CURVE",
"557 176 OFFCURVE",
"577 150 OFFCURVE",
"577 120 CURVE SMOOTH",
"577 93 OFFCURVE",
"558 71 OFFCURVE",
"528 71 CURVE SMOOTH",
"495 71 OFFCURVE",
"479 92 OFFCURVE",
"479 118 CURVE SMOOTH"
);
}
);
};
layerId = "1D9335A4-69BC-4202-817B-D13DAA30F854";
paths = (
{
closed = 1;
nodes = (
"297 561 LINE",
"298 487 OFFCURVE",
"311 448 OFFCURVE",
"324 416 CURVE",
"325 404 OFFCURVE",
"327 396 OFFCURVE",
"327 372 CURVE SMOOTH",
"327 338 OFFCURVE",
"316 309 OFFCURVE",
"296 288 CURVE",
"179 430 LINE",
"191 435 OFFCURVE",
"204 438 OFFCURVE",
"218 438 CURVE SMOOTH",
"228 438 OFFCURVE",
"235 438 OFFCURVE",
"247 436 CURVE",
"253 501 LINE",
"243 503 OFFCURVE",
"230 504 OFFCURVE",
"214 504 CURVE SMOOTH",
"121 504 OFFCURVE",
"48 444 OFFCURVE",
"48 345 CURVE SMOOTH",
"48 247 OFFCURVE",
"125 192 OFFCURVE",
"215 192 CURVE SMOOTH",
"312 192 OFFCURVE",
"364 250 OFFCURVE",
"379 311 CURVE",
"402 279 OFFCURVE",
"431 252 OFFCURVE",
"463 227 CURVE",
"430 201 OFFCURVE",
"399 167 OFFCURVE",
"399 112 CURVE SMOOTH",
"399 45 OFFCURVE",
"453 3 OFFCURVE",
"529 3 CURVE SMOOTH",
"606 3 OFFCURVE",
"655 48 OFFCURVE",
"655 112 CURVE SMOOTH",
"655 161 OFFCURVE",
"622 203 OFFCURVE",
"587 228 CURVE",
"659 282 OFFCURVE",
"750 377 OFFCURVE",
"750 554 CURVE SMOOTH",
"750 561 LINE",
"843 561 LINE",
"843 622 LINE",
"-10 622 LINE",
"-10 561 LINE"
);
},
{
closed = 1;
nodes = (
"126 371 OFFCURVE",
"133 391 OFFCURVE",
"146 406 CURVE",
"260 264 LINE",
"249 260 OFFCURVE",
"236 258 OFFCURVE",
"223 258 CURVE SMOOTH",
"168 258 OFFCURVE",
"126 288 OFFCURVE",
"126 348 CURVE SMOOTH"
);
},
{
closed = 1;
nodes = (
"670 561 LINE",
"670 554 LINE SMOOTH",
"670 400 OFFCURVE",
"595 318 OFFCURVE",
"523 263 CURVE",
"458 315 OFFCURVE",
"372 394 OFFCURVE",
"375 561 CURVE"
);
},
{
closed = 1;
nodes = (
"479 150 OFFCURVE",
"498 171 OFFCURVE",
"525 195 CURVE",
"557 176 OFFCURVE",
"577 150 OFFCURVE",
"577 120 CURVE SMOOTH",
"577 93 OFFCURVE",
"558 71 OFFCURVE",
"528 71 CURVE SMOOTH",
"495 71 OFFCURVE",
"479 92 OFFCURVE",
"479 118 CURVE SMOOTH"
);
}
);
width = 833;
}
);
rightKerningGroup = Ya.GGondi;
unicode = 11D79;
category = Letter;
userData = {
com.typemytype.robofont.mark = (
0.835,
1,
0.6,
1
);
};
},
{
glyphname = Na.GGondi;
lastChange = "2019-10-04 20:07:41 +0000";
layers = (
{
anchors = (
{
name = bottom;
position = "{320, -28}";
},
{
name = top;
position = "{511, 656}";
}
);
background = {
anchors = (
{
name = bottom;
position = "{320, -28}";
},
{
name = top;
position = "{511, 656}";
}
);
paths = (
{
closed = 1;
nodes = (
"100 561 LINE",
"100 224 LINE SMOOTH",
"100 85 OFFCURVE",
"199 15 OFFCURVE",
"326 15 CURVE SMOOTH",
"454 15 OFFCURVE",
"550 85 OFFCURVE",
"550 224 CURVE SMOOTH",
"550 561 LINE",
"660 561 LINE",
"660 622 LINE",
"-10 622 LINE",
"-10 561 LINE"
);
},
{
closed = 1;
nodes = (
"178 561 LINE",
"472 561 LINE",
"472 224 LINE SMOOTH",
"472 136 OFFCURVE",
"416 83 OFFCURVE",
"326 83 CURVE SMOOTH",
"236 83 OFFCURVE",
"178 135 OFFCURVE",
"178 224 CURVE SMOOTH"
);
},
{
closed = 1;
nodes = (
"275 304 OFFCURVE",
"298 286 OFFCURVE",
"327 286 CURVE SMOOTH",
"354 286 OFFCURVE",
"378 304 OFFCURVE",
"378 342 CURVE SMOOTH",
"378 381 OFFCURVE",
"354 398 OFFCURVE",
"327 398 CURVE SMOOTH",
"298 398 OFFCURVE",
"275 381 OFFCURVE",
"275 342 CURVE SMOOTH"
);
}
);
};
layerId = "1D9335A4-69BC-4202-817B-D13DAA30F854";
paths = (
{
closed = 1;
nodes = (
"100 561 LINE",
"100 224 LINE SMOOTH",
"100 85 OFFCURVE",
"199 15 OFFCURVE",
"326 15 CURVE SMOOTH",
"454 15 OFFCURVE",
"550 85 OFFCURVE",
"550 224 CURVE SMOOTH",
"550 561 LINE",
"660 561 LINE",
"660 622 LINE",
"-10 622 LINE",
"-10 561 LINE"
);
},
{
closed = 1;
nodes = (
"178 561 LINE",
"472 561 LINE",
"472 224 LINE SMOOTH",
"472 136 OFFCURVE",
"416 83 OFFCURVE",
"326 83 CURVE SMOOTH",
"236 83 OFFCURVE",
"178 135 OFFCURVE",
"178 224 CURVE SMOOTH"
);
},
{
closed = 1;
nodes = (
"275 304 OFFCURVE",
"298 286 OFFCURVE",
"327 286 CURVE SMOOTH",
"354 286 OFFCURVE",
"378 304 OFFCURVE",
"378 342 CURVE SMOOTH",
"378 381 OFFCURVE",
"354 398 OFFCURVE",
"327 398 CURVE SMOOTH",
"298 398 OFFCURVE",
"275 381 OFFCURVE",
"275 342 CURVE SMOOTH"
);
}
);
width = 650;
}
);
rightKerningGroup = Na.GGondi;
unicode = 11D7A;
category = Letter;
userData = {
com.typemytype.robofont.mark = (
0.835,
1,
0.6,
1
);
};
},
{
glyphname = Ca.GGondi;
lastChange = "2019-10-04 20:07:41 +0000";
layers = (
{
anchors = (
{
name = bottom;
position = "{356, -28}";
},
{
name = top;
position = "{550, 656}";
}
);
background = {
anchors = (
{
name = bottom;
position = "{356, -28}";
},
{
name = top;
position = "{550, 656}";
}
);
paths = (
{
closed = 1;
nodes = (
"509 561 LINE",
"509 554 LINE SMOOTH",
"509 400 OFFCURVE",
"433 318 OFFCURVE",
"362 263 CURVE",
"322 282 OFFCURVE",
"290 297 OFFCURVE",
"265 311 CURVE",
"300 332 OFFCURVE",
"322 369 OFFCURVE",
"322 407 CURVE SMOOTH",
"322 473 OFFCURVE",
"269 508 OFFCURVE",
"212 510 CURVE SMOOTH",
"148 512 OFFCURVE",
"99 475 OFFCURVE",
"99 411 CURVE SMOOTH",
"99 372 OFFCURVE",
"118 339 OFFCURVE",
"151 315 CURVE",
"96 288 OFFCURVE",
"40 236 OFFCURVE",
"15 167 CURVE",
"78 134 LINE",
"104 195 OFFCURVE",
"155 248 OFFCURVE",
"203 274 CURVE",
"217 266 LINE SMOOTH",
"253 246 OFFCURVE",
"276 234 OFFCURVE",
"297 223 CURVE",
"266 198 OFFCURVE",
"238 164 OFFCURVE",
"238 112 CURVE SMOOTH",
"238 45 OFFCURVE",
"292 3 OFFCURVE",
"368 3 CURVE SMOOTH",
"445 3 OFFCURVE",
"494 48 OFFCURVE",
"494 112 CURVE SMOOTH",
"494 161 OFFCURVE",
"461 203 OFFCURVE",
"426 228 CURVE",
"498 282 OFFCURVE",
"589 377 OFFCURVE",
"589 554 CURVE SMOOTH",
"589 561 LINE",
"682 561 LINE",
"682 622 LINE",
"-10 622 LINE",
"-10 561 LINE"
);
},
{
closed = 1;
nodes = (
"174 441 OFFCURVE",
"198 449 OFFCURVE",
"212 449 CURVE SMOOTH",
"232 449 OFFCURVE",
"251 437 OFFCURVE",
"251 406 CURVE SMOOTH",
"251 384 OFFCURVE",
"234 362 OFFCURVE",
"209 347 CURVE",
"181 369 OFFCURVE",
"174 387 OFFCURVE",
"174 408 CURVE SMOOTH"
);
},
{
closed = 1;
nodes = (
"318 150 OFFCURVE",
"337 171 OFFCURVE",
"364 195 CURVE",
"396 176 OFFCURVE",
"416 150 OFFCURVE",
"416 120 CURVE SMOOTH",
"416 93 OFFCURVE",
"397 71 OFFCURVE",
"367 71 CURVE SMOOTH",
"334 71 OFFCURVE",
"318 92 OFFCURVE",
"318 118 CURVE SMOOTH"
);
}
);
};
layerId = "1D9335A4-69BC-4202-817B-D13DAA30F854";
paths = (
{
closed = 1;
nodes = (
"509 561 LINE",
"509 554 LINE SMOOTH",
"509 400 OFFCURVE",
"433 318 OFFCURVE",
"362 263 CURVE",
"322 282 OFFCURVE",
"290 297 OFFCURVE",
"265 311 CURVE",
"300 332 OFFCURVE",
"322 369 OFFCURVE",
"322 407 CURVE SMOOTH",
"322 473 OFFCURVE",
"269 508 OFFCURVE",
"212 510 CURVE SMOOTH",
"148 512 OFFCURVE",
"99 475 OFFCURVE",
"99 411 CURVE SMOOTH",
"99 372 OFFCURVE",
"118 339 OFFCURVE",
"151 315 CURVE",
"96 288 OFFCURVE",
"40 236 OFFCURVE",
"15 167 CURVE",
"78 134 LINE",
"104 195 OFFCURVE",
"155 248 OFFCURVE",
"203 274 CURVE",
"217 266 LINE SMOOTH",
"253 246 OFFCURVE",
"276 234 OFFCURVE",
"297 223 CURVE",
"266 198 OFFCURVE",
"238 164 OFFCURVE",
"238 112 CURVE SMOOTH",
"238 45 OFFCURVE",
"292 3 OFFCURVE",
"368 3 CURVE SMOOTH",
"445 3 OFFCURVE",
"494 48 OFFCURVE",
"494 112 CURVE SMOOTH",
"494 161 OFFCURVE",
"461 203 OFFCURVE",
"426 228 CURVE",
"498 282 OFFCURVE",
"589 377 OFFCURVE",
"589 554 CURVE SMOOTH",
"589 561 LINE",
"682 561 LINE",
"682 622 LINE",
"-10 622 LINE",
"-10 561 LINE"
);
},
{
closed = 1;
nodes = (
"174 441 OFFCURVE",
"198 449 OFFCURVE",
"212 449 CURVE SMOOTH",
"232 449 OFFCURVE",
"251 437 OFFCURVE",
"251 406 CURVE SMOOTH",
"251 384 OFFCURVE",
"234 362 OFFCURVE",
"209 347 CURVE",
"181 369 OFFCURVE",
"174 387 OFFCURVE",
"174 408 CURVE SMOOTH"
);
},
{
closed = 1;
nodes = (
"318 150 OFFCURVE",
"337 171 OFFCURVE",
"364 195 CURVE",
"396 176 OFFCURVE",
"416 150 OFFCURVE",
"416 120 CURVE SMOOTH",
"416 93 OFFCURVE",
"397 71 OFFCURVE",
"367 71 CURVE SMOOTH",
"334 71 OFFCURVE",
"318 92 OFFCURVE",
"318 118 CURVE SMOOTH"
);
}
);
width = 652;
}
);
rightKerningGroup = Ya.GGondi;
unicode = 11D7B;
category = Letter;
userData = {
com.typemytype.robofont.mark = (
0.835,
1,
0.6,
1
);
};
},
{
glyphname = Cha.GGondi;
lastChange = "2019-10-04 20:07:41 +0000";
layers = (
{
anchors = (
{
name = bottom;
position = "{370, -28}";
},
{
name = top;
position = "{564, 656}";
}
);
background = {
anchors = (
{
name = bottom;
position = "{370, -28}";
},
{
name = top;
position = "{564, 656}";
}
);
paths = (
{
closed = 1;
nodes = (
"525 561 LINE",
"525 245 LINE SMOOTH",
"525 141 OFFCURVE",
"464 87 OFFCURVE",
"374 87 CURVE SMOOTH",
"321 87 OFFCURVE",
"279 103 OFFCURVE",
"248 136 CURVE",
"309 189 OFFCURVE",
"368 265 OFFCURVE",
"368 373 CURVE SMOOTH",
"368 453 OFFCURVE",
"318 497 OFFCURVE",
"249 497 CURVE SMOOTH",
"169 497 OFFCURVE",
"114 441 OFFCURVE",
"114 310 CURVE SMOOTH",
"116 243 OFFCURVE",
"130 193 OFFCURVE",
"153 150 CURVE",
"113 119 OFFCURVE",
"60 85 OFFCURVE",
"26 62 CURVE",
"69 0 LINE",
"101 22 OFFCURVE",
"152 58 OFFCURVE",
"191 91 CURVE",
"235 44 OFFCURVE",
"296 20 OFFCURVE",
"373 19 CURVE SMOOTH",
"509 20 OFFCURVE",
"603 89 OFFCURVE",
"603 244 CURVE SMOOTH",
"603 561 LINE",
"713 561 LINE",
"713 622 LINE",
"-10 622 LINE",
"-10 561 LINE"
);
},
{
closed = 1;
nodes = (
"192 397 OFFCURVE",
"215 429 OFFCURVE",
"248 429 CURVE SMOOTH",
"274 429 OFFCURVE",
"290 408 OFFCURVE",
"290 374 CURVE SMOOTH",
"290 318 OFFCURVE",
"264 253 OFFCURVE",
"211 197 CURVE",
"199 227 OFFCURVE",
"192 261 OFFCURVE",
"192 310 CURVE SMOOTH"
);
}
);
};
layerId = "1D9335A4-69BC-4202-817B-D13DAA30F854";
paths = (
{
closed = 1;
nodes = (
"525 561 LINE",
"525 245 LINE SMOOTH",
"525 141 OFFCURVE",
"464 87 OFFCURVE",
"374 87 CURVE SMOOTH",
"321 87 OFFCURVE",
"279 103 OFFCURVE",
"248 136 CURVE",
"309 189 OFFCURVE",
"368 265 OFFCURVE",
"368 373 CURVE SMOOTH",
"368 453 OFFCURVE",
"318 497 OFFCURVE",
"249 497 CURVE SMOOTH",
"169 497 OFFCURVE",
"114 441 OFFCURVE",
"114 310 CURVE SMOOTH",
"116 243 OFFCURVE",
"130 193 OFFCURVE",
"153 150 CURVE",
"113 119 OFFCURVE",
"60 85 OFFCURVE",
"26 62 CURVE",
"69 0 LINE",
"101 22 OFFCURVE",
"152 58 OFFCURVE",
"191 91 CURVE",
"235 44 OFFCURVE",
"296 20 OFFCURVE",
"373 19 CURVE SMOOTH",
"509 20 OFFCURVE",
"603 89 OFFCURVE",
"603 244 CURVE SMOOTH",
"603 561 LINE",
"713 561 LINE",
"713 622 LINE",
"-10 622 LINE",
"-10 561 LINE"
);
},
{
closed = 1;
nodes = (
"192 397 OFFCURVE",
"215 429 OFFCURVE",
"248 429 CURVE SMOOTH",
"274 429 OFFCURVE",
"290 408 OFFCURVE",
"290 374 CURVE SMOOTH",
"290 318 OFFCURVE",
"264 253 OFFCURVE",
"211 197 CURVE",
"199 227 OFFCURVE",
"192 261 OFFCURVE",
"192 310 CURVE SMOOTH"
);
}
);
width = 703;
}
);
rightKerningGroup = Na.GGondi;
unicode = 11D7C;
category = Letter;
userData = {
com.typemytype.robofont.mark = (
0.835,
1,
0.6,
1
);
};
},
{
glyphname = Tta.GGondi;
lastChange = "2019-10-04 20:07:41 +0000";
layers = (
{
anchors = (
{
name = bottom;
position = "{640, -28}";
},
{
name = top;
position = "{688, 656}";
}
);
background = {
anchors = (
{
name = bottom;
position = "{640, -28}";
},
{
name = top;
position = "{688, 656}";
}
);
paths = (
{
closed = 1;
nodes = (
"649 561 LINE",
"650 545 OFFCURVE",
"650 533 OFFCURVE",
"650 519 CURVE SMOOTH",
"650 456 OFFCURVE",
"643 370 OFFCURVE",
"618 287 CURVE",
"596 292 OFFCURVE",
"571 295 OFFCURVE",
"543 295 CURVE SMOOTH",
"479 295 LINE",
"468 413 OFFCURVE",
"403 506 OFFCURVE",
"275 506 CURVE SMOOTH",
"157 506 OFFCURVE",
"70 425 OFFCURVE",
"70 261 CURVE SMOOTH",
"70 109 OFFCURVE",
"143 15 OFFCURVE",
"271 15 CURVE SMOOTH",
"384 15 OFFCURVE",
"469 86 OFFCURVE",
"480 227 CURVE",
"543 227 LINE SMOOTH",
"564 227 OFFCURVE",
"581 226 OFFCURVE",
"594 225 CURVE",
"586 195 OFFCURVE",
"578 158 OFFCURVE",
"578 123 CURVE SMOOTH",
"578 44 OFFCURVE",
"626 13 OFFCURVE",
"679 13 CURVE SMOOTH",
"739 13 OFFCURVE",
"778 47 OFFCURVE",
"778 117 CURVE SMOOTH",
"778 184 OFFCURVE",
"737 233 OFFCURVE",
"685 264 CURVE",
"716 352 OFFCURVE",
"729 444 OFFCURVE",
"729 523 CURVE SMOOTH",
"729 537 OFFCURVE",
"728 549 OFFCURVE",
"728 561 CURVE",
"870 561 LINE",
"870 622 LINE",
"-10 622 LINE",
"-10 561 LINE"
);
},
{
closed = 1;
nodes = (
"150 346 OFFCURVE",
"174 436 OFFCURVE",
"273 436 CURVE SMOOTH",
"357 436 OFFCURVE",
"401 370 OFFCURVE",
"401 260 CURVE SMOOTH",
"401 150 OFFCURVE",
"357 85 OFFCURVE",
"278 85 CURVE SMOOTH",
"195 85 OFFCURVE",
"150 150 OFFCURVE",
"150 262 CURVE SMOOTH"
);
},
{
closed = 1;
nodes = (
"651 150 OFFCURVE",
"655 176 OFFCURVE",
"663 201 CURVE",
"688 189 OFFCURVE",
"706 160 OFFCURVE",
"706 119 CURVE SMOOTH",
"706 90 OFFCURVE",
"696 74 OFFCURVE",
"679 74 CURVE SMOOTH",
"661 74 OFFCURVE",
"651 90 OFFCURVE",
"651 125 CURVE SMOOTH"
);
}
);
};
layerId = "1D9335A4-69BC-4202-817B-D13DAA30F854";
paths = (
{
closed = 1;
nodes = (
"649 561 LINE",
"650 545 OFFCURVE",
"650 533 OFFCURVE",
"650 519 CURVE SMOOTH",
"650 456 OFFCURVE",
"643 370 OFFCURVE",
"618 287 CURVE",
"596 292 OFFCURVE",
"571 295 OFFCURVE",
"543 295 CURVE SMOOTH",
"479 295 LINE",
"468 413 OFFCURVE",
"403 506 OFFCURVE",
"275 506 CURVE SMOOTH",
"157 506 OFFCURVE",
"70 425 OFFCURVE",
"70 261 CURVE SMOOTH",
"70 109 OFFCURVE",
"143 15 OFFCURVE",
"271 15 CURVE SMOOTH",
"384 15 OFFCURVE",
"469 86 OFFCURVE",
"480 227 CURVE",
"543 227 LINE SMOOTH",
"564 227 OFFCURVE",
"581 226 OFFCURVE",
"594 225 CURVE",
"586 195 OFFCURVE",
"578 158 OFFCURVE",
"578 123 CURVE SMOOTH",
"578 44 OFFCURVE",
"626 13 OFFCURVE",
"679 13 CURVE SMOOTH",
"739 13 OFFCURVE",
"778 47 OFFCURVE",
"778 117 CURVE SMOOTH",
"778 184 OFFCURVE",
"737 233 OFFCURVE",
"685 264 CURVE",
"716 352 OFFCURVE",
"729 444 OFFCURVE",
"729 523 CURVE SMOOTH",
"729 537 OFFCURVE",
"728 549 OFFCURVE",
"728 561 CURVE",
"870 561 LINE",
"870 622 LINE",
"-10 622 LINE",
"-10 561 LINE"
);
},
{
closed = 1;
nodes = (
"150 346 OFFCURVE",
"174 436 OFFCURVE",
"273 436 CURVE SMOOTH",
"357 436 OFFCURVE",
"401 370 OFFCURVE",
"401 260 CURVE SMOOTH",
"401 150 OFFCURVE",
"357 85 OFFCURVE",
"278 85 CURVE SMOOTH",
"195 85 OFFCURVE",
"150 150 OFFCURVE",
"150 262 CURVE SMOOTH"
);
},
{
closed = 1;
nodes = (
"651 150 OFFCURVE",
"655 176 OFFCURVE",
"663 201 CURVE",
"688 189 OFFCURVE",
"706 160 OFFCURVE",
"706 119 CURVE SMOOTH",
"706 90 OFFCURVE",
"696 74 OFFCURVE",
"679 74 CURVE SMOOTH",
"661 74 OFFCURVE",
"651 90 OFFCURVE",
"651 125 CURVE SMOOTH"
);
}
);
width = 860;
}
);
unicode = 11D7D;
category = Letter;
userData = {
com.typemytype.robofont.mark = (
1,
0.6,
0.6,
1
);
};
},
{
glyphname = Ttha.GGondi;
lastChange = "2019-10-04 20:07:41 +0000";
layers = (
{
anchors = (
{
name = bottom;
position = "{640, -28}";
}
);
background = {
anchors = (
{
name = bottom;
position = "{640, -28}";
}
);
components = (
{
name = Tta.GGondi;
}
);
paths = (
{
closed = 1;
nodes = (
"423 235 LINE",
"423 296 LINE",
"110 296 LINE",
"110 235 LINE"
);
}
);
};
components = (
{
name = Tta.GGondi;
}
);
layerId = "1D9335A4-69BC-4202-817B-D13DAA30F854";
paths = (
{
closed = 1;
nodes = (
"423 235 LINE",
"423 296 LINE",
"110 296 LINE",
"110 235 LINE"
);
}
);
width = 860;
}
);
unicode = 11D7E;
category = Letter;
userData = {
com.typemytype.robofont.mark = (
1,
0.6,
0.6,
1
);
};
},
{
glyphname = Lla.GGondi;
lastChange = "2019-10-04 20:07:41 +0000";
layers = (
{
anchors = (
{
name = bottom;
position = "{302, -28}";
},
{
name = top;
position = "{496, 656}";
}
);
background = {
anchors = (
{
name = bottom;
position = "{302, -28}";
},
{
name = top;
position = "{496, 656}";
}
);
paths = (
{
closed = 1;
nodes = (
"455 561 LINE",
"455 554 LINE SMOOTH",
"455 401 OFFCURVE",
"380 318 OFFCURVE",
"309 263 CURVE",
"269 282 OFFCURVE",
"237 297 OFFCURVE",
"212 311 CURVE",
"247 332 OFFCURVE",
"269 369 OFFCURVE",
"269 407 CURVE SMOOTH",
"269 473 OFFCURVE",
"216 508 OFFCURVE",
"159 510 CURVE",
"95 510 OFFCURVE",
"46 475 OFFCURVE",
"46 411 CURVE SMOOTH",
"46 345 OFFCURVE",
"100 301 OFFCURVE",
"164 266 CURVE SMOOTH",
"200 246 OFFCURVE",
"223 234 OFFCURVE",
"244 224 CURVE",
"212 198 OFFCURVE",
"184 165 OFFCURVE",
"184 112 CURVE SMOOTH",
"184 45 OFFCURVE",
"238 3 OFFCURVE",
"314 3 CURVE SMOOTH",
"391 3 OFFCURVE",
"440 48 OFFCURVE",
"440 112 CURVE SMOOTH",
"440 160 OFFCURVE",
"407 202 OFFCURVE",
"373 228 CURVE",
"445 279 OFFCURVE",
"535 376 OFFCURVE",
"535 554 CURVE SMOOTH",
"535 561 LINE",
"628 561 LINE",
"628 622 LINE",
"-30 622 LINE",
"-30 561 LINE"
);
},
{
closed = 1;
nodes = (
"120 441 OFFCURVE",
"145 449 OFFCURVE",
"159 449 CURVE SMOOTH",
"179 449 OFFCURVE",
"198 437 OFFCURVE",
"198 406 CURVE SMOOTH",
"198 384 OFFCURVE",
"181 362 OFFCURVE",
"156 347 CURVE",
"128 369 OFFCURVE",
"121 387 OFFCURVE",
"121 408 CURVE"
);
},
{
closed = 1;
nodes = (
"264 150 OFFCURVE",
"283 171 OFFCURVE",
"310 195 CURVE",
"342 176 OFFCURVE",
"362 150 OFFCURVE",
"362 120 CURVE SMOOTH",
"362 93 OFFCURVE",
"343 71 OFFCURVE",
"313 71 CURVE SMOOTH",
"280 71 OFFCURVE",
"264 92 OFFCURVE",
"264 118 CURVE SMOOTH"
);
}
);
};
layerId = "1D9335A4-69BC-4202-817B-D13DAA30F854";
paths = (
{
closed = 1;
nodes = (
"455 561 LINE",
"455 554 LINE SMOOTH",
"455 401 OFFCURVE",
"380 318 OFFCURVE",
"309 263 CURVE",
"269 282 OFFCURVE",
"237 297 OFFCURVE",
"212 311 CURVE",
"247 332 OFFCURVE",
"269 369 OFFCURVE",
"269 407 CURVE SMOOTH",
"269 473 OFFCURVE",
"216 508 OFFCURVE",
"159 510 CURVE",
"95 510 OFFCURVE",
"46 475 OFFCURVE",
"46 411 CURVE SMOOTH",
"46 345 OFFCURVE",
"100 301 OFFCURVE",
"164 266 CURVE SMOOTH",
"200 246 OFFCURVE",
"223 234 OFFCURVE",
"244 224 CURVE",
"212 198 OFFCURVE",
"184 165 OFFCURVE",
"184 112 CURVE SMOOTH",
"184 45 OFFCURVE",
"238 3 OFFCURVE",
"314 3 CURVE SMOOTH",
"391 3 OFFCURVE",
"440 48 OFFCURVE",
"440 112 CURVE SMOOTH",
"440 160 OFFCURVE",
"407 202 OFFCURVE",
"373 228 CURVE",
"445 279 OFFCURVE",
"535 376 OFFCURVE",
"535 554 CURVE SMOOTH",
"535 561 LINE",
"628 561 LINE",
"628 622 LINE",
"-30 622 LINE",
"-30 561 LINE"
);
},
{
closed = 1;
nodes = (
"120 441 OFFCURVE",
"145 449 OFFCURVE",
"159 449 CURVE SMOOTH",
"179 449 OFFCURVE",
"198 437 OFFCURVE",
"198 406 CURVE SMOOTH",
"198 384 OFFCURVE",
"181 362 OFFCURVE",
"156 347 CURVE",
"128 369 OFFCURVE",
"121 387 OFFCURVE",
"121 408 CURVE"
);
},
{
closed = 1;
nodes = (
"264 150 OFFCURVE",
"283 171 OFFCURVE",
"310 195 CURVE",
"342 176 OFFCURVE",
"362 150 OFFCURVE",
"362 120 CURVE SMOOTH",
"362 93 OFFCURVE",
"343 71 OFFCURVE",
"313 71 CURVE SMOOTH",
"280 71 OFFCURVE",
"264 92 OFFCURVE",
"264 118 CURVE SMOOTH"
);
}
);
width = 598;
}
);
rightKerningGroup = Ya.GGondi;
unicode = 11D7F;
category = Letter;
userData = {
com.typemytype.robofont.mark = (
0.835,
1,
0.6,
1
);
};
},
{
glyphname = Ja.GGondi;
lastChange = "2019-10-04 20:07:41 +0000";
layers = (
{
anchors = (
{
name = bottom;
position = "{599, -28}";
},
{
name = top;
position = "{657, 656}";
}
);
background = {
anchors = (
{
name = bottom;
position = "{599, -28}";
},
{
name = top;
position = "{657, 656}";
}
);
paths = (
{
closed = 1;
nodes = (
"105 561 LINE",
"82 525 OFFCURVE",
"68 479 OFFCURVE",
"68 422 CURVE SMOOTH",
"68 288 OFFCURVE",
"154 223 OFFCURVE",
"205 205 CURVE",
"169 197 OFFCURVE",
"110 160 OFFCURVE",
"110 76 CURVE SMOOTH",
"110 -20 OFFCURVE",
"191 -68 OFFCURVE",
"295 -68 CURVE SMOOTH",
"370 -68 OFFCURVE",
"416 -42 OFFCURVE",
"441 -22 CURVE",
"404 33 LINE",
"379 15 OFFCURVE",
"342 0 OFFCURVE",
"295 0 CURVE SMOOTH",
"228 0 OFFCURVE",
"188 30 OFFCURVE",
"188 84 CURVE SMOOTH",
"188 142 OFFCURVE",
"229 169 OFFCURVE",
"300 169 CURVE SMOOTH",
"389 169 LINE",
"389 233 LINE",
"329 233 LINE SMOOTH",
"254 233 OFFCURVE",
"180 268 OFFCURVE",
"153 349 CURVE",
"178 346 OFFCURVE",
"221 344 OFFCURVE",
"242 344 CURVE SMOOTH",
"464 344 LINE SMOOTH",
"502 344 OFFCURVE",
"541 339 OFFCURVE",
"575 327 CURVE",
"553 261 OFFCURVE",
"537 212 OFFCURVE",
"537 163 CURVE SMOOTH",
"537 87 OFFCURVE",
"585 58 OFFCURVE",
"637 58 CURVE SMOOTH",
"698 58 OFFCURVE",
"737 95 OFFCURVE",
"737 171 CURVE SMOOTH",
"737 251 OFFCURVE",
"703 312 OFFCURVE",
"665 349 CURVE",
"685 400 OFFCURVE",
"698 476 OFFCURVE",
"698 550 CURVE",
"698 561 LINE",
"839 561 LINE",
"839 622 LINE",
"395 622 LINE",
"372 642 OFFCURVE",
"336 656 OFFCURVE",
"286 656 CURVE SMOOTH",
"245 656 OFFCURVE",
"203 645 OFFCURVE",
"167 622 CURVE",
"-10 622 LINE",
"-10 561 LINE"
);
},
{
closed = 1;
nodes = (
"143 461 OFFCURVE",
"154 497 OFFCURVE",
"172 522 CURVE",
"201 485 OFFCURVE",
"250 460 OFFCURVE",
"304 460 CURVE SMOOTH",
"376 460 OFFCURVE",
"424 499 OFFCURVE",
"424 558 CURVE",
"424 561 LINE",
"619 561 LINE",
"619 546 LINE SMOOTH",
"620 498 OFFCURVE",
"609 429 OFFCURVE",
"597 382 CURVE",
"559 398 OFFCURVE",
"517 406 OFFCURVE",
"464 406 CURVE SMOOTH",
"237 406 LINE SMOOTH",
"207 406 OFFCURVE",
"181 405 OFFCURVE",
"143 403 CURVE",
"143 417 LINE"
);
},
{
closed = 1;
nodes = (
"235 587 OFFCURVE",
"264 595 OFFCURVE",
"292 595 CURVE SMOOTH",
"326 595 OFFCURVE",
"353 582 OFFCURVE",
"353 557 CURVE SMOOTH",
"353 536 OFFCURVE",
"337 521 OFFCURVE",
"298 521 CURVE SMOOTH",
"270 521 OFFCURVE",
"239 535 OFFCURVE",
"213 568 CURVE"
);
},
{
closed = 1;
nodes = (
"610 198 OFFCURVE",
"618 233 OFFCURVE",
"635 290 CURVE",
"653 265 OFFCURVE",
"665 225 OFFCURVE",
"665 173 CURVE SMOOTH",
"665 138 OFFCURVE",
"655 119 OFFCURVE",
"637 119 CURVE SMOOTH",
"620 119 OFFCURVE",
"610 134 OFFCURVE",
"610 165 CURVE SMOOTH"
);
}
);
};
layerId = "1D9335A4-69BC-4202-817B-D13DAA30F854";
paths = (
{
closed = 1;
nodes = (
"105 561 LINE",
"82 525 OFFCURVE",
"68 479 OFFCURVE",
"68 422 CURVE SMOOTH",
"68 288 OFFCURVE",
"154 223 OFFCURVE",
"205 205 CURVE",
"169 197 OFFCURVE",
"110 160 OFFCURVE",
"110 76 CURVE SMOOTH",
"110 -20 OFFCURVE",
"191 -68 OFFCURVE",
"295 -68 CURVE SMOOTH",
"370 -68 OFFCURVE",
"416 -42 OFFCURVE",
"441 -22 CURVE",
"404 33 LINE",
"379 15 OFFCURVE",
"342 0 OFFCURVE",
"295 0 CURVE SMOOTH",
"228 0 OFFCURVE",
"188 30 OFFCURVE",
"188 84 CURVE SMOOTH",
"188 142 OFFCURVE",
"229 169 OFFCURVE",
"300 169 CURVE SMOOTH",
"389 169 LINE",
"389 233 LINE",
"329 233 LINE SMOOTH",
"254 233 OFFCURVE",
"180 268 OFFCURVE",
"153 349 CURVE",
"178 346 OFFCURVE",
"221 344 OFFCURVE",
"242 344 CURVE SMOOTH",
"464 344 LINE SMOOTH",
"502 344 OFFCURVE",
"541 339 OFFCURVE",
"575 327 CURVE",
"553 261 OFFCURVE",
"537 212 OFFCURVE",
"537 163 CURVE SMOOTH",
"537 87 OFFCURVE",
"585 58 OFFCURVE",
"637 58 CURVE SMOOTH",
"698 58 OFFCURVE",
"737 95 OFFCURVE",
"737 171 CURVE SMOOTH",
"737 251 OFFCURVE",
"703 312 OFFCURVE",
"665 349 CURVE",
"685 400 OFFCURVE",
"698 476 OFFCURVE",
"698 550 CURVE",
"698 561 LINE",
"839 561 LINE",
"839 622 LINE",
"395 622 LINE",
"372 642 OFFCURVE",
"336 656 OFFCURVE",
"286 656 CURVE SMOOTH",
"245 656 OFFCURVE",
"203 645 OFFCURVE",
"167 622 CURVE",
"-10 622 LINE",
"-10 561 LINE"
);
},
{
closed = 1;
nodes = (
"143 461 OFFCURVE",
"154 497 OFFCURVE",
"172 522 CURVE",
"201 485 OFFCURVE",
"250 460 OFFCURVE",
"304 460 CURVE SMOOTH",
"376 460 OFFCURVE",
"424 499 OFFCURVE",
"424 558 CURVE",
"424 561 LINE",
"619 561 LINE",
"619 546 LINE SMOOTH",
"620 498 OFFCURVE",
"609 429 OFFCURVE",
"597 382 CURVE",
"559 398 OFFCURVE",
"517 406 OFFCURVE",
"464 406 CURVE SMOOTH",
"237 406 LINE SMOOTH",
"207 406 OFFCURVE",
"181 405 OFFCURVE",
"143 403 CURVE",
"143 417 LINE"
);
},
{
closed = 1;
nodes = (
"235 587 OFFCURVE",
"264 595 OFFCURVE",
"292 595 CURVE SMOOTH",
"326 595 OFFCURVE",
"353 582 OFFCURVE",
"353 557 CURVE SMOOTH",
"353 536 OFFCURVE",
"337 521 OFFCURVE",
"298 521 CURVE SMOOTH",
"270 521 OFFCURVE",
"239 535 OFFCURVE",
"213 568 CURVE"
);
},
{
closed = 1;
nodes = (
"610 198 OFFCURVE",
"618 233 OFFCURVE",
"635 290 CURVE",
"653 265 OFFCURVE",
"665 225 OFFCURVE",
"665 173 CURVE SMOOTH",
"665 138 OFFCURVE",
"655 119 OFFCURVE",
"637 119 CURVE SMOOTH",
"620 119 OFFCURVE",
"610 134 OFFCURVE",
"610 165 CURVE SMOOTH"
);
}
);
width = 829;
}
);
unicode = 11D80;
category = Letter;
userData = {
com.typemytype.robofont.mark = (
0.835,
1,
0.6,
1
);
};
},
{
glyphname = Jha.GGondi;
lastChange = "2019-10-04 20:07:41 +0000";
layers = (
{
anchors = (
{
name = bottom;
position = "{639, -28}";
},
{
name = top;
position = "{697, 656}";
}
);
background = {
anchors = (
{
name = bottom;
position = "{639, -28}";
},
{
name = top;
position = "{697, 656}";
}
);
paths = (
{
closed = 1;
nodes = (
"74 561 LINE",
"75 337 LINE SMOOTH",
"75 213 OFFCURVE",
"169 161 OFFCURVE",
"262 161 CURVE SMOOTH",
"318 161 OFFCURVE",
"355 176 OFFCURVE",
"378 200 CURVE",
"378 151 LINE SMOOTH",
"378 73 OFFCURVE",
"332 40 OFFCURVE",
"265 40 CURVE SMOOTH",
"207 40 OFFCURVE",
"163 71 OFFCURVE",
"129 113 CURVE",
"74 64 LINE",
"114 4 OFFCURVE",
"180 -28 OFFCURVE",
"265 -28 CURVE SMOOTH",
"385 -28 OFFCURVE",
"456 37 OFFCURVE",
"456 149 CURVE SMOOTH",
"456 317 LINE",
"387 317 LINE",
"377 279 OFFCURVE",
"347 232 OFFCURVE",
"274 229 CURVE SMOOTH",
"206 227 OFFCURVE",
"155 264 OFFCURVE",
"155 333 CURVE SMOOTH",
"155 400 LINE",
"426 400 LINE SMOOTH",
"511 400 OFFCURVE",
"578 374 OFFCURVE",
"619 338 CURVE",
"589 260 OFFCURVE",
"577 201 OFFCURVE",
"577 147 CURVE SMOOTH",
"577 75 OFFCURVE",
"625 47 OFFCURVE",
"677 47 CURVE SMOOTH",
"738 47 OFFCURVE",
"777 82 OFFCURVE",
"777 155 CURVE SMOOTH",
"777 233 OFFCURVE",
"742 301 OFFCURVE",
"703 346 CURVE",
"722 392 OFFCURVE",
"738 473 OFFCURVE",
"738 547 CURVE",
"738 561 LINE",
"879 561 LINE",
"879 622 LINE",
"-30 622 LINE",
"-30 561 LINE"
);
},
{
closed = 1;
nodes = (
"155 561 LINE",
"659 561 LINE",
"659 543 LINE SMOOTH",
"660 493 OFFCURVE",
"652 441 OFFCURVE",
"642 398 CURVE",
"598 433 OFFCURVE",
"534 467 OFFCURVE",
"421 467 CURVE SMOOTH",
"155 467 LINE"
);
},
{
closed = 1;
nodes = (
"650 184 OFFCURVE",
"658 222 OFFCURVE",
"674 283 CURVE",
"693 252 OFFCURVE",
"705 206 OFFCURVE",
"705 157 CURVE SMOOTH",
"705 125 OFFCURVE",
"695 108 OFFCURVE",
"677 108 CURVE SMOOTH",
"660 108 OFFCURVE",
"650 121 OFFCURVE",
"650 149 CURVE SMOOTH"
);
}
);
};
layerId = "1D9335A4-69BC-4202-817B-D13DAA30F854";
paths = (
{
closed = 1;
nodes = (
"74 561 LINE",
"75 337 LINE SMOOTH",
"75 213 OFFCURVE",
"169 161 OFFCURVE",
"262 161 CURVE SMOOTH",
"318 161 OFFCURVE",
"355 176 OFFCURVE",
"378 200 CURVE",
"378 151 LINE SMOOTH",
"378 73 OFFCURVE",
"332 40 OFFCURVE",
"265 40 CURVE SMOOTH",
"207 40 OFFCURVE",
"163 71 OFFCURVE",
"129 113 CURVE",
"74 64 LINE",
"114 4 OFFCURVE",
"180 -28 OFFCURVE",
"265 -28 CURVE SMOOTH",
"385 -28 OFFCURVE",
"456 37 OFFCURVE",
"456 149 CURVE SMOOTH",
"456 317 LINE",
"387 317 LINE",
"377 279 OFFCURVE",
"347 232 OFFCURVE",
"274 229 CURVE SMOOTH",
"206 227 OFFCURVE",
"155 264 OFFCURVE",
"155 333 CURVE SMOOTH",
"155 400 LINE",
"426 400 LINE SMOOTH",
"511 400 OFFCURVE",
"578 374 OFFCURVE",
"619 338 CURVE",
"589 260 OFFCURVE",
"577 201 OFFCURVE",
"577 147 CURVE SMOOTH",
"577 75 OFFCURVE",
"625 47 OFFCURVE",
"677 47 CURVE SMOOTH",
"738 47 OFFCURVE",
"777 82 OFFCURVE",
"777 155 CURVE SMOOTH",
"777 233 OFFCURVE",
"742 301 OFFCURVE",
"703 346 CURVE",
"722 392 OFFCURVE",
"738 473 OFFCURVE",
"738 547 CURVE",
"738 561 LINE",
"879 561 LINE",
"879 622 LINE",
"-30 622 LINE",
"-30 561 LINE"
);
},
{
closed = 1;
nodes = (
"155 561 LINE",
"659 561 LINE",
"659 543 LINE SMOOTH",
"660 493 OFFCURVE",
"652 441 OFFCURVE",
"642 398 CURVE",
"598 433 OFFCURVE",
"534 467 OFFCURVE",
"421 467 CURVE SMOOTH",
"155 467 LINE"
);
},
{
closed = 1;
nodes = (
"650 184 OFFCURVE",
"658 222 OFFCURVE",
"674 283 CURVE",
"693 252 OFFCURVE",
"705 206 OFFCURVE",
"705 157 CURVE SMOOTH",
"705 125 OFFCURVE",
"695 108 OFFCURVE",
"677 108 CURVE SMOOTH",
"660 108 OFFCURVE",
"650 121 OFFCURVE",
"650 149 CURVE SMOOTH"
);
}
);
width = 869;
}
);
unicode = 11D81;
category = Letter;
userData = {
com.typemytype.robofont.mark = (
0.835,
1,
0.6,
1
);
};
},
{
glyphname = Dda.GGondi;
lastChange = "2019-10-04 20:07:41 +0000";
layers = (
{
anchors = (
{
name = bottom;
position = "{517, -28}";
},
{
name = top;
position = "{565, 656}";
}
);
background = {
anchors = (
{
name = bottom;
position = "{517, -28}";
},
{
name = top;
position = "{565, 656}";
}
);
paths = (
{
closed = 1;
nodes = (
"37 541 OFFCURVE",
"80 506 OFFCURVE",
"130 496 CURVE",
"156 556 LINE",
"132 565 OFFCURVE",
"115 581 OFFCURVE",
"115 609 CURVE SMOOTH",
"115 643 OFFCURVE",
"142 661 OFFCURVE",
"171 661 CURVE SMOOTH",
"201 661 OFFCURVE",
"230 644 OFFCURVE",
"230 605 CURVE SMOOTH",
"230 540 OFFCURVE",
"116 482 OFFCURVE",
"116 377 CURVE SMOOTH",
"116 315 OFFCURVE",
"161 287 OFFCURVE",
"186 279 CURVE",
"155 268 OFFCURVE",
"111 229 OFFCURVE",
"111 155 CURVE SMOOTH",
"111 63 OFFCURVE",
"180 11 OFFCURVE",
"269 11 CURVE SMOOTH",
"330 11 OFFCURVE",
"367 32 OFFCURVE",
"385 51 CURVE",
"344 106 LINE",
"329 94 OFFCURVE",
"307 81 OFFCURVE",
"272 81 CURVE SMOOTH",
"221 81 OFFCURVE",
"189 113 OFFCURVE",
"189 161 CURVE SMOOTH",
"189 220 OFFCURVE",
"228 253 OFFCURVE",
"291 253 CURVE SMOOTH",
"410 253 LINE SMOOTH",
"440 253 OFFCURVE",
"462 252 OFFCURVE",
"477 248 CURVE",
"466 216 OFFCURVE",
"455 171 OFFCURVE",
"455 128 CURVE SMOOTH",
"455 49 OFFCURVE",
"503 18 OFFCURVE",
"556 18 CURVE SMOOTH",
"616 18 OFFCURVE",
"655 52 OFFCURVE",
"655 122 CURVE SMOOTH",
"655 192 OFFCURVE",
"617 245 OFFCURVE",
"566 280 CURVE",
"594 364 OFFCURVE",
"606 452 OFFCURVE",
"606 528 CURVE SMOOTH",
"606 540 OFFCURVE",
"606 550 OFFCURVE",
"605 561 CURVE",
"748 561 LINE",
"748 622 LINE",
"307 622 LINE",
"299 690 OFFCURVE",
"241 727 OFFCURVE",
"171 727 CURVE SMOOTH",
"101 727 OFFCURVE",
"37 687 OFFCURVE",
"37 604 CURVE SMOOTH"
);
},
{
closed = 1;
nodes = (
"194 443 OFFCURVE",
"277 484 OFFCURVE",
"301 561 CURVE",
"527 561 LINE",
"527 547 OFFCURVE",
"527 537 OFFCURVE",
"527 524 CURVE SMOOTH",
"528 465 OFFCURVE",
"521 385 OFFCURVE",
"500 309 CURVE",
"474 317 OFFCURVE",
"444 321 OFFCURVE",
"410 321 CURVE SMOOTH",
"263 321 LINE SMOOTH",
"217 321 OFFCURVE",
"194 342 OFFCURVE",
"194 377 CURVE SMOOTH"
);
},
{
closed = 1;
nodes = (
"528 159 OFFCURVE",
"534 189 OFFCURVE",
"543 218 CURVE",
"567 201 OFFCURVE",
"583 168 OFFCURVE",
"583 124 CURVE SMOOTH",
"583 95 OFFCURVE",
"573 79 OFFCURVE",
"556 79 CURVE SMOOTH",
"538 79 OFFCURVE",
"528 95 OFFCURVE",
"528 130 CURVE SMOOTH"
);
}
);
};
layerId = "1D9335A4-69BC-4202-817B-D13DAA30F854";
paths = (
{
closed = 1;
nodes = (
"37 541 OFFCURVE",
"80 506 OFFCURVE",
"130 496 CURVE",
"156 556 LINE",
"132 565 OFFCURVE",
"115 581 OFFCURVE",
"115 609 CURVE SMOOTH",
"115 643 OFFCURVE",
"142 661 OFFCURVE",
"171 661 CURVE SMOOTH",
"201 661 OFFCURVE",
"230 644 OFFCURVE",
"230 605 CURVE SMOOTH",
"230 540 OFFCURVE",
"116 482 OFFCURVE",
"116 377 CURVE SMOOTH",
"116 315 OFFCURVE",
"161 287 OFFCURVE",
"186 279 CURVE",
"155 268 OFFCURVE",
"111 229 OFFCURVE",
"111 155 CURVE SMOOTH",
"111 63 OFFCURVE",
"180 11 OFFCURVE",
"269 11 CURVE SMOOTH",
"330 11 OFFCURVE",
"367 32 OFFCURVE",
"385 51 CURVE",
"344 106 LINE",
"329 94 OFFCURVE",
"307 81 OFFCURVE",
"272 81 CURVE SMOOTH",
"221 81 OFFCURVE",
"189 113 OFFCURVE",
"189 161 CURVE SMOOTH",
"189 220 OFFCURVE",
"228 253 OFFCURVE",
"291 253 CURVE SMOOTH",
"410 253 LINE SMOOTH",
"440 253 OFFCURVE",
"462 252 OFFCURVE",
"477 248 CURVE",
"466 216 OFFCURVE",
"455 171 OFFCURVE",
"455 128 CURVE SMOOTH",
"455 49 OFFCURVE",
"503 18 OFFCURVE",
"556 18 CURVE SMOOTH",
"616 18 OFFCURVE",
"655 52 OFFCURVE",
"655 122 CURVE SMOOTH",
"655 192 OFFCURVE",
"617 245 OFFCURVE",
"566 280 CURVE",
"594 364 OFFCURVE",
"606 452 OFFCURVE",
"606 528 CURVE SMOOTH",
"606 540 OFFCURVE",
"606 550 OFFCURVE",
"605 561 CURVE",
"748 561 LINE",
"748 622 LINE",
"307 622 LINE",
"299 690 OFFCURVE",
"241 727 OFFCURVE",
"171 727 CURVE SMOOTH",
"101 727 OFFCURVE",
"37 687 OFFCURVE",
"37 604 CURVE SMOOTH"
);
},
{
closed = 1;
nodes = (
"194 443 OFFCURVE",
"277 484 OFFCURVE",
"301 561 CURVE",
"527 561 LINE",
"527 547 OFFCURVE",
"527 537 OFFCURVE",
"527 524 CURVE SMOOTH",
"528 465 OFFCURVE",
"521 385 OFFCURVE",
"500 309 CURVE",
"474 317 OFFCURVE",
"444 321 OFFCURVE",
"410 321 CURVE SMOOTH",
"263 321 LINE SMOOTH",
"217 321 OFFCURVE",
"194 342 OFFCURVE",
"194 377 CURVE SMOOTH"
);
},
{
closed = 1;
nodes = (
"528 159 OFFCURVE",
"534 189 OFFCURVE",
"543 218 CURVE",
"567 201 OFFCURVE",
"583 168 OFFCURVE",
"583 124 CURVE SMOOTH",
"583 95 OFFCURVE",
"573 79 OFFCURVE",
"556 79 CURVE SMOOTH",
"538 79 OFFCURVE",
"528 95 OFFCURVE",
"528 130 CURVE SMOOTH"
);
}
);
width = 738;
}
);
unicode = 11D82;
category = Letter;
userData = {
com.typemytype.robofont.mark = (
1,
0.6,
0.6,
1
);
};
},
{
glyphname = Ddha.GGondi;
lastChange = "2019-10-04 20:07:41 +0000";
layers = (
{
anchors = (
{
name = bottom;
position = "{551, -28}";
},
{
name = top;
position = "{745, 656}";
}
);
background = {
anchors = (
{
name = bottom;
position = "{551, -28}";
},
{
name = top;
position = "{745, 656}";
}
);
paths = (
{
closed = 1;
nodes = (
"80 561 LINE",
"80 422 LINE SMOOTH",
"80 307 OFFCURVE",
"162 260 OFFCURVE",
"252 260 CURVE SMOOTH",
"328 260 OFFCURVE",
"370 295 OFFCURVE",
"394 333 CURVE",
"424 289 OFFCURVE",
"462 254 OFFCURVE",
"497 227 CURVE",
"464 201 OFFCURVE",
"433 167 OFFCURVE",
"433 112 CURVE SMOOTH",
"433 45 OFFCURVE",
"487 3 OFFCURVE",
"563 3 CURVE SMOOTH",
"640 3 OFFCURVE",
"689 48 OFFCURVE",
"689 112 CURVE SMOOTH",
"689 160 OFFCURVE",
"656 202 OFFCURVE",
"622 228 CURVE",
"693 282 OFFCURVE",
"784 376 OFFCURVE",
"784 554 CURVE SMOOTH",
"784 561 LINE",
"878 561 LINE",
"878 622 LINE",
"-30 622 LINE",
"-30 561 LINE"
);
},
{
closed = 1;
nodes = (
"158 561 LINE",
"322 561 LINE",
"323 507 OFFCURVE",
"335 440 OFFCURVE",
"356 401 CURVE",
"356 399 LINE",
"158 559 LINE"
);
},
{
closed = 1;
nodes = (
"158 498 LINE",
"332 357 LINE",
"314 337 OFFCURVE",
"287 326 OFFCURVE",
"256 326 CURVE SMOOTH",
"196 326 OFFCURVE",
"158 358 OFFCURVE",
"158 422 CURVE SMOOTH"
);
},
{
closed = 1;
nodes = (
"704 561 LINE",
"704 554 LINE SMOOTH",
"704 400 OFFCURVE",
"629 318 OFFCURVE",
"559 263 CURVE",
"490 319 OFFCURVE",
"404 398 OFFCURVE",
"400 561 CURVE"
);
},
{
closed = 1;
nodes = (
"513 150 OFFCURVE",
"532 171 OFFCURVE",
"559 195 CURVE",
"591 176 OFFCURVE",
"611 150 OFFCURVE",
"611 120 CURVE SMOOTH",
"611 93 OFFCURVE",
"592 71 OFFCURVE",
"562 71 CURVE SMOOTH",
"529 71 OFFCURVE",
"513 92 OFFCURVE",
"513 118 CURVE SMOOTH"
);
}
);
};
layerId = "1D9335A4-69BC-4202-817B-D13DAA30F854";
paths = (
{
closed = 1;
nodes = (
"80 561 LINE",
"80 422 LINE SMOOTH",
"80 307 OFFCURVE",
"162 260 OFFCURVE",
"252 260 CURVE SMOOTH",
"328 260 OFFCURVE",
"370 295 OFFCURVE",
"394 333 CURVE",
"424 289 OFFCURVE",
"462 254 OFFCURVE",
"497 227 CURVE",
"464 201 OFFCURVE",
"433 167 OFFCURVE",
"433 112 CURVE SMOOTH",
"433 45 OFFCURVE",
"487 3 OFFCURVE",
"563 3 CURVE SMOOTH",
"640 3 OFFCURVE",
"689 48 OFFCURVE",
"689 112 CURVE SMOOTH",
"689 160 OFFCURVE",
"656 202 OFFCURVE",
"622 228 CURVE",
"693 282 OFFCURVE",
"784 376 OFFCURVE",
"784 554 CURVE SMOOTH",
"784 561 LINE",
"878 561 LINE",
"878 622 LINE",
"-30 622 LINE",
"-30 561 LINE"
);
},
{
closed = 1;
nodes = (
"158 561 LINE",
"322 561 LINE",
"323 507 OFFCURVE",
"335 440 OFFCURVE",
"356 401 CURVE",
"356 399 LINE",
"158 559 LINE"
);
},
{
closed = 1;
nodes = (
"158 498 LINE",
"332 357 LINE",
"314 337 OFFCURVE",
"287 326 OFFCURVE",
"256 326 CURVE SMOOTH",
"196 326 OFFCURVE",
"158 358 OFFCURVE",
"158 422 CURVE SMOOTH"
);
},
{
closed = 1;
nodes = (
"704 561 LINE",
"704 554 LINE SMOOTH",
"704 400 OFFCURVE",
"629 318 OFFCURVE",
"559 263 CURVE",
"490 319 OFFCURVE",
"404 398 OFFCURVE",
"400 561 CURVE"
);
},
{
closed = 1;
nodes = (
"513 150 OFFCURVE",
"532 171 OFFCURVE",
"559 195 CURVE",
"591 176 OFFCURVE",
"611 150 OFFCURVE",
"611 120 CURVE SMOOTH",
"611 93 OFFCURVE",
"592 71 OFFCURVE",
"562 71 CURVE SMOOTH",
"529 71 OFFCURVE",
"513 92 OFFCURVE",
"513 118 CURVE SMOOTH"
);
}
);
width = 848;
}
);
rightKerningGroup = Ya.GGondi;
unicode = 11D83;
category = Letter;
userData = {
com.typemytype.robofont.mark = (
0.835,
1,
0.6,
1
);
};
},
{
glyphname = Nga.GGondi;
lastChange = "2019-10-04 20:07:41 +0000";
layers = (
{
anchors = (
{
name = bottom;
position = "{343, -28}";
},
{
name = top;
position = "{537, 656}";
}
);
background = {
anchors = (
{
name = bottom;
position = "{343, -28}";
},
{
name = top;
position = "{537, 656}";
}
);
paths = (
{
closed = 1;
nodes = (
"-10 536 OFFCURVE",
"47 500 OFFCURVE",
"113 500 CURVE",
"119 565 LINE",
"89 565 OFFCURVE",
"68 583 OFFCURVE",
"68 611 CURVE SMOOTH",
"68 637 OFFCURVE",
"84 661 OFFCURVE",
"121 661 CURVE SMOOTH",
"153 661 OFFCURVE",
"183 640 OFFCURVE",
"183 590 CURVE SMOOTH",
"183 527 OFFCURVE",
"129 488 OFFCURVE",
"129 400 CURVE SMOOTH",
"129 314 OFFCURVE",
"189 259 OFFCURVE",
"282 222 CURVE",
"252 197 OFFCURVE",
"225 163 OFFCURVE",
"225 112 CURVE SMOOTH",
"225 45 OFFCURVE",
"279 3 OFFCURVE",
"355 3 CURVE SMOOTH",
"432 3 OFFCURVE",
"481 48 OFFCURVE",
"481 112 CURVE SMOOTH",
"481 161 OFFCURVE",
"448 203 OFFCURVE",
"413 228 CURVE",
"485 282 OFFCURVE",
"576 377 OFFCURVE",
"576 554 CURVE SMOOTH",
"576 561 LINE",
"679 561 LINE",
"679 622 LINE",
"258 622 LINE",
"245 690 OFFCURVE",
"189 727 OFFCURVE",
"121 727 CURVE SMOOTH",
"53 727 OFFCURVE",
"-10 688 OFFCURVE",
"-10 608 CURVE SMOOTH"
);
},
{
closed = 1;
nodes = (
"207 464 OFFCURVE",
"245 505 OFFCURVE",
"257 561 CURVE",
"496 561 LINE",
"496 554 LINE SMOOTH",
"496 400 OFFCURVE",
"420 317 OFFCURVE",
"348 262 CURVE",
"251 305 OFFCURVE",
"205 338 OFFCURVE",
"205 401 CURVE SMOOTH"
);
},
{
closed = 1;
nodes = (
"305 150 OFFCURVE",
"324 171 OFFCURVE",
"351 195 CURVE",
"383 176 OFFCURVE",
"403 150 OFFCURVE",
"403 120 CURVE SMOOTH",
"403 93 OFFCURVE",
"384 71 OFFCURVE",
"354 71 CURVE SMOOTH",
"321 71 OFFCURVE",
"305 92 OFFCURVE",
"305 118 CURVE SMOOTH"
);
}
);
};
layerId = "1D9335A4-69BC-4202-817B-D13DAA30F854";
paths = (
{
closed = 1;
nodes = (
"-10 536 OFFCURVE",
"47 500 OFFCURVE",
"113 500 CURVE",
"119 565 LINE",
"89 565 OFFCURVE",
"68 583 OFFCURVE",
"68 611 CURVE SMOOTH",
"68 637 OFFCURVE",
"84 661 OFFCURVE",
"121 661 CURVE SMOOTH",
"153 661 OFFCURVE",
"183 640 OFFCURVE",
"183 590 CURVE SMOOTH",
"183 527 OFFCURVE",
"129 488 OFFCURVE",
"129 400 CURVE SMOOTH",
"129 314 OFFCURVE",
"189 259 OFFCURVE",
"282 222 CURVE",
"252 197 OFFCURVE",
"225 163 OFFCURVE",
"225 112 CURVE SMOOTH",
"225 45 OFFCURVE",
"279 3 OFFCURVE",
"355 3 CURVE SMOOTH",
"432 3 OFFCURVE",
"481 48 OFFCURVE",
"481 112 CURVE SMOOTH",
"481 161 OFFCURVE",
"448 203 OFFCURVE",
"413 228 CURVE",
"485 282 OFFCURVE",
"576 377 OFFCURVE",
"576 554 CURVE SMOOTH",
"576 561 LINE",
"679 561 LINE",
"679 622 LINE",
"258 622 LINE",
"245 690 OFFCURVE",
"189 727 OFFCURVE",
"121 727 CURVE SMOOTH",
"53 727 OFFCURVE",
"-10 688 OFFCURVE",
"-10 608 CURVE SMOOTH"
);
},
{
closed = 1;
nodes = (
"207 464 OFFCURVE",
"245 505 OFFCURVE",
"257 561 CURVE",
"496 561 LINE",
"496 554 LINE SMOOTH",
"496 400 OFFCURVE",
"420 317 OFFCURVE",
"348 262 CURVE",
"251 305 OFFCURVE",
"205 338 OFFCURVE",
"205 401 CURVE SMOOTH"
);
},
{
closed = 1;
nodes = (
"305 150 OFFCURVE",
"324 171 OFFCURVE",
"351 195 CURVE",
"383 176 OFFCURVE",
"403 150 OFFCURVE",
"403 120 CURVE SMOOTH",
"403 93 OFFCURVE",
"384 71 OFFCURVE",
"354 71 CURVE SMOOTH",
"321 71 OFFCURVE",
"305 92 OFFCURVE",
"305 118 CURVE SMOOTH"
);
}
);
width = 639;
}
);
rightKerningGroup = Ya.GGondi;
unicode = 11D84;
category = Letter;
userData = {
com.typemytype.robofont.mark = (
0.835,
1,
0.6,
1
);
};
},
{
glyphname = Pa.GGondi;
lastChange = "2019-10-04 20:07:41 +0000";
layers = (
{
anchors = (
{
name = bottom;
position = "{623, -28}";
},
{
name = top;
position = "{680, 656}";
}
);
background = {
anchors = (
{
name = bottom;
position = "{623, -28}";
},
{
name = top;
position = "{680, 656}";
}
);
paths = (
{
closed = 1;
nodes = (
"643 561 LINE",
"643 526 LINE SMOOTH",
"643 476 OFFCURVE",
"636 425 OFFCURVE",
"626 382 CURVE",
"587 412 OFFCURVE",
"526 431 OFFCURVE",
"438 431 CURVE SMOOTH",
"176 431 LINE",
"176 363 LINE",
"243 363 LINE SMOOTH",
"316 363 OFFCURVE",
"378 313 OFFCURVE",
"378 225 CURVE SMOOTH",
"378 150 OFFCURVE",
"325 102 OFFCURVE",
"249 101 CURVE",
"274 115 OFFCURVE",
"291 141 OFFCURVE",
"291 178 CURVE SMOOTH",
"291 237 OFFCURVE",
"239 275 OFFCURVE",
"176 275 CURVE SMOOTH",
"108 275 OFFCURVE",
"61 234 OFFCURVE",
"61 170 CURVE SMOOTH",
"61 93 OFFCURVE",
"140 38 OFFCURVE",
"243 38 CURVE SMOOTH",
"377 38 OFFCURVE",
"458 106 OFFCURVE",
"458 217 CURVE SMOOTH",
"458 286 OFFCURVE",
"424 336 OFFCURVE",
"385 363 CURVE",
"438 363 LINE SMOOTH",
"520 363 OFFCURVE",
"567 346 OFFCURVE",
"603 320 CURVE",
"580 248 OFFCURVE",
"561 195 OFFCURVE",
"561 143 CURVE SMOOTH",
"561 67 OFFCURVE",
"609 38 OFFCURVE",
"661 38 CURVE SMOOTH",
"722 38 OFFCURVE",
"761 75 OFFCURVE",
"761 151 CURVE SMOOTH",
"761 232 OFFCURVE",
"727 293 OFFCURVE",
"688 331 CURVE",
"705 377 OFFCURVE",
"721 458 OFFCURVE",
"721 530 CURVE SMOOTH",
"721 541 OFFCURVE",
"721 551 OFFCURVE",
"720 561 CURVE",
"864 561 LINE",
"864 622 LINE",
"-10 622 LINE",
"-10 561 LINE"
);
},
{
closed = 1;
nodes = (
"136 192 OFFCURVE",
"152 213 OFFCURVE",
"178 213 CURVE SMOOTH",
"205 213 OFFCURVE",
"222 195 OFFCURVE",
"222 167 CURVE SMOOTH",
"222 134 OFFCURVE",
"191 120 OFFCURVE",
"167 119 CURVE",
"146 131 OFFCURVE",
"136 150 OFFCURVE",
"136 170 CURVE SMOOTH"
);
},
{
closed = 1;
nodes = (
"634 178 OFFCURVE",
"642 213 OFFCURVE",
"659 270 CURVE",
"677 245 OFFCURVE",
"689 205 OFFCURVE",
"689 153 CURVE SMOOTH",
"689 118 OFFCURVE",
"679 99 OFFCURVE",
"661 99 CURVE SMOOTH",
"644 99 OFFCURVE",
"634 114 OFFCURVE",
"634 145 CURVE SMOOTH"
);
}
);
};
layerId = "1D9335A4-69BC-4202-817B-D13DAA30F854";
paths = (
{
closed = 1;
nodes = (
"643 561 LINE",
"643 526 LINE SMOOTH",
"643 476 OFFCURVE",
"636 425 OFFCURVE",
"626 382 CURVE",
"587 412 OFFCURVE",
"526 431 OFFCURVE",
"438 431 CURVE SMOOTH",
"176 431 LINE",
"176 363 LINE",
"243 363 LINE SMOOTH",
"316 363 OFFCURVE",
"378 313 OFFCURVE",
"378 225 CURVE SMOOTH",
"378 150 OFFCURVE",
"325 102 OFFCURVE",
"249 101 CURVE",
"274 115 OFFCURVE",
"291 141 OFFCURVE",
"291 178 CURVE SMOOTH",
"291 237 OFFCURVE",
"239 275 OFFCURVE",
"176 275 CURVE SMOOTH",
"108 275 OFFCURVE",
"61 234 OFFCURVE",
"61 170 CURVE SMOOTH",
"61 93 OFFCURVE",
"140 38 OFFCURVE",
"243 38 CURVE SMOOTH",
"377 38 OFFCURVE",
"458 106 OFFCURVE",
"458 217 CURVE SMOOTH",
"458 286 OFFCURVE",
"424 336 OFFCURVE",
"385 363 CURVE",
"438 363 LINE SMOOTH",
"520 363 OFFCURVE",
"567 346 OFFCURVE",
"603 320 CURVE",
"580 248 OFFCURVE",
"561 195 OFFCURVE",
"561 143 CURVE SMOOTH",
"561 67 OFFCURVE",
"609 38 OFFCURVE",
"661 38 CURVE SMOOTH",
"722 38 OFFCURVE",
"761 75 OFFCURVE",
"761 151 CURVE SMOOTH",
"761 232 OFFCURVE",
"727 293 OFFCURVE",
"688 331 CURVE",
"705 377 OFFCURVE",
"721 458 OFFCURVE",
"721 530 CURVE SMOOTH",
"721 541 OFFCURVE",
"721 551 OFFCURVE",
"720 561 CURVE",
"864 561 LINE",
"864 622 LINE",
"-10 622 LINE",
"-10 561 LINE"
);
},
{
closed = 1;
nodes = (
"136 192 OFFCURVE",
"152 213 OFFCURVE",
"178 213 CURVE SMOOTH",
"205 213 OFFCURVE",
"222 195 OFFCURVE",
"222 167 CURVE SMOOTH",
"222 134 OFFCURVE",
"191 120 OFFCURVE",
"167 119 CURVE",
"146 131 OFFCURVE",
"136 150 OFFCURVE",
"136 170 CURVE SMOOTH"
);
},
{
closed = 1;
nodes = (
"634 178 OFFCURVE",
"642 213 OFFCURVE",
"659 270 CURVE",
"677 245 OFFCURVE",
"689 205 OFFCURVE",
"689 153 CURVE SMOOTH",
"689 118 OFFCURVE",
"679 99 OFFCURVE",
"661 99 CURVE SMOOTH",
"644 99 OFFCURVE",
"634 114 OFFCURVE",
"634 145 CURVE SMOOTH"
);
}
);
width = 854;
}
);
unicode = 11D85;
category = Letter;
userData = {
com.typemytype.robofont.mark = (
1,
0.6,
0.6,
1
);
};
},
{
glyphname = Pha.GGondi;
lastChange = "2019-10-04 20:07:41 +0000";
layers = (
{
anchors = (
{
name = bottom;
position = "{597, -28}";
},
{
name = top;
position = "{654, 656}";
}
);
background = {
anchors = (
{
name = bottom;
position = "{597, -28}";
},
{
name = top;
position = "{654, 656}";
}
);
paths = (
{
closed = 1;
nodes = (
"617 561 LINE",
"617 526 LINE SMOOTH",
"618 478 OFFCURVE",
"608 410 OFFCURVE",
"596 363 CURVE",
"587 364 OFFCURVE",
"577 365 OFFCURVE",
"566 365 CURVE SMOOTH",
"504 365 OFFCURVE",
"437 338 OFFCURVE",
"412 244 CURVE SMOOTH",
"394 181 LINE SMOOTH",
"372 102 OFFCURVE",
"335 70 OFFCURVE",
"284 70 CURVE SMOOTH",
"206 70 OFFCURVE",
"153 128 OFFCURVE",
"152 274 CURVE",
"152 287 OFFCURVE",
"153 299 OFFCURVE",
"154 310 CURVE",
"174 287 OFFCURVE",
"207 273 OFFCURVE",
"244 273 CURVE SMOOTH",
"323 273 OFFCURVE",
"361 325 OFFCURVE",
"361 392 CURVE SMOOTH",
"361 456 OFFCURVE",
"315 506 OFFCURVE",
"242 506 CURVE SMOOTH",
"135 506 OFFCURVE",
"72 413 OFFCURVE",
"72 273 CURVE SMOOTH",
"72 87 OFFCURVE",
"157 2 OFFCURVE",
"283 2 CURVE SMOOTH",
"379 2 OFFCURVE",
"433 55 OFFCURVE",
"456 131 CURVE SMOOTH",
"477 202 LINE SMOOTH",
"499 278 OFFCURVE",
"526 298 OFFCURVE",
"571 300 CURVE",
"550 238 OFFCURVE",
"535 190 OFFCURVE",
"535 143 CURVE SMOOTH",
"535 67 OFFCURVE",
"583 38 OFFCURVE",
"635 38 CURVE SMOOTH",
"696 38 OFFCURVE",
"735 75 OFFCURVE",
"735 151 CURVE SMOOTH",
"735 232 OFFCURVE",
"701 292 OFFCURVE",
"663 329 CURVE",
"682 380 OFFCURVE",
"695 456 OFFCURVE",
"695 530 CURVE SMOOTH",
"695 541 OFFCURVE",
"695 551 OFFCURVE",
"694 561 CURVE",
"837 561 LINE",
"837 622 LINE",
"-10 622 LINE",
"-10 561 LINE"
);
},
{
closed = 1;
nodes = (
"186 426 OFFCURVE",
"214 438 OFFCURVE",
"237 438 CURVE SMOOTH",
"266 438 OFFCURVE",
"283 419 OFFCURVE",
"283 392 CURVE SMOOTH",
"283 360 OFFCURVE",
"266 338 OFFCURVE",
"234 338 CURVE SMOOTH",
"215 338 OFFCURVE",
"185 350 OFFCURVE",
"169 380 CURVE"
);
},
{
closed = 1;
nodes = (
"608 178 OFFCURVE",
"616 213 OFFCURVE",
"633 270 CURVE",
"651 245 OFFCURVE",
"663 205 OFFCURVE",
"663 153 CURVE SMOOTH",
"663 118 OFFCURVE",
"653 99 OFFCURVE",
"635 99 CURVE SMOOTH",
"618 99 OFFCURVE",
"608 114 OFFCURVE",
"608 145 CURVE SMOOTH"
);
}
);
};
layerId = "1D9335A4-69BC-4202-817B-D13DAA30F854";
paths = (
{
closed = 1;
nodes = (
"617 561 LINE",
"617 526 LINE SMOOTH",
"618 478 OFFCURVE",
"608 410 OFFCURVE",
"596 363 CURVE",
"587 364 OFFCURVE",
"577 365 OFFCURVE",
"566 365 CURVE SMOOTH",
"504 365 OFFCURVE",
"437 338 OFFCURVE",
"412 244 CURVE SMOOTH",
"394 181 LINE SMOOTH",
"372 102 OFFCURVE",
"335 70 OFFCURVE",
"284 70 CURVE SMOOTH",
"206 70 OFFCURVE",
"153 128 OFFCURVE",
"152 274 CURVE",
"152 287 OFFCURVE",
"153 299 OFFCURVE",
"154 310 CURVE",
"174 287 OFFCURVE",
"207 273 OFFCURVE",
"244 273 CURVE SMOOTH",
"323 273 OFFCURVE",
"361 325 OFFCURVE",
"361 392 CURVE SMOOTH",
"361 456 OFFCURVE",
"315 506 OFFCURVE",
"242 506 CURVE SMOOTH",
"135 506 OFFCURVE",
"72 413 OFFCURVE",
"72 273 CURVE SMOOTH",
"72 87 OFFCURVE",
"157 2 OFFCURVE",
"283 2 CURVE SMOOTH",
"379 2 OFFCURVE",
"433 55 OFFCURVE",
"456 131 CURVE SMOOTH",
"477 202 LINE SMOOTH",
"499 278 OFFCURVE",
"526 298 OFFCURVE",
"571 300 CURVE",
"550 238 OFFCURVE",
"535 190 OFFCURVE",
"535 143 CURVE SMOOTH",
"535 67 OFFCURVE",
"583 38 OFFCURVE",
"635 38 CURVE SMOOTH",
"696 38 OFFCURVE",
"735 75 OFFCURVE",
"735 151 CURVE SMOOTH",
"735 232 OFFCURVE",
"701 292 OFFCURVE",
"663 329 CURVE",
"682 380 OFFCURVE",
"695 456 OFFCURVE",
"695 530 CURVE SMOOTH",
"695 541 OFFCURVE",
"695 551 OFFCURVE",
"694 561 CURVE",
"837 561 LINE",
"837 622 LINE",
"-10 622 LINE",
"-10 561 LINE"
);
},
{
closed = 1;
nodes = (
"186 426 OFFCURVE",
"214 438 OFFCURVE",
"237 438 CURVE SMOOTH",
"266 438 OFFCURVE",
"283 419 OFFCURVE",
"283 392 CURVE SMOOTH",
"283 360 OFFCURVE",
"266 338 OFFCURVE",
"234 338 CURVE SMOOTH",
"215 338 OFFCURVE",
"185 350 OFFCURVE",
"169 380 CURVE"
);
},
{
closed = 1;
nodes = (
"608 178 OFFCURVE",
"616 213 OFFCURVE",
"633 270 CURVE",
"651 245 OFFCURVE",
"663 205 OFFCURVE",
"663 153 CURVE SMOOTH",
"663 118 OFFCURVE",
"653 99 OFFCURVE",
"635 99 CURVE SMOOTH",
"618 99 OFFCURVE",
"608 114 OFFCURVE",
"608 145 CURVE SMOOTH"
);
}
);
width = 827;
}
);
unicode = 11D86;
category = Letter;
userData = {
com.typemytype.robofont.mark = (
0.835,
1,
0.6,
1
);
};
},
{
glyphname = Ha.GGondi;
lastChange = "2019-10-04 20:07:41 +0000";
layers = (
{
anchors = (
{
name = bottom;
position = "{650, -28}";
},
{
name = top;
position = "{707, 656}";
}
);
background = {
anchors = (
{
name = bottom;
position = "{650, -28}";
},
{
name = top;
position = "{707, 656}";
}
);
paths = (
{
closed = 1;
nodes = (
"670 561 LINE",
"670 526 LINE SMOOTH",
"672 476 OFFCURVE",
"663 424 OFFCURVE",
"653 382 CURVE",
"614 412 OFFCURVE",
"553 431 OFFCURVE",
"465 431 CURVE SMOOTH",
"323 431 LINE",
"323 367 LINE",
"356 355 OFFCURVE",
"399 317 OFFCURVE",
"399 232 CURVE SMOOTH",
"399 164 OFFCURVE",
"358 119 OFFCURVE",
"291 119 CURVE SMOOTH",
"211 119 OFFCURVE",
"165 169 OFFCURVE",
"165 273 CURVE SMOOTH",
"165 496 LINE",
"85 496 LINE",
"85 277 LINE SMOOTH",
"85 117 OFFCURVE",
"175 51 OFFCURVE",
"291 51 CURVE SMOOTH",
"414 51 OFFCURVE",
"479 121 OFFCURVE",
"479 225 CURVE SMOOTH",
"479 289 OFFCURVE",
"458 335 OFFCURVE",
"423 363 CURVE",
"465 363 LINE SMOOTH",
"547 363 OFFCURVE",
"594 346 OFFCURVE",
"630 320 CURVE",
"607 248 OFFCURVE",
"588 195 OFFCURVE",
"588 143 CURVE SMOOTH",
"588 67 OFFCURVE",
"636 38 OFFCURVE",
"688 38 CURVE SMOOTH",
"749 38 OFFCURVE",
"788 75 OFFCURVE",
"788 151 CURVE SMOOTH",
"788 232 OFFCURVE",
"754 293 OFFCURVE",
"715 331 CURVE",
"732 377 OFFCURVE",
"748 458 OFFCURVE",
"748 530 CURVE SMOOTH",
"748 541 OFFCURVE",
"748 551 OFFCURVE",
"747 561 CURVE",
"890 561 LINE",
"890 622 LINE",
"-10 622 LINE",
"-10 561 LINE"
);
},
{
closed = 1;
nodes = (
"661 178 OFFCURVE",
"669 213 OFFCURVE",
"686 270 CURVE",
"704 245 OFFCURVE",
"716 205 OFFCURVE",
"716 153 CURVE SMOOTH",
"716 118 OFFCURVE",
"706 99 OFFCURVE",
"688 99 CURVE SMOOTH",
"671 99 OFFCURVE",
"661 114 OFFCURVE",
"661 145 CURVE SMOOTH"
);
}
);
};
layerId = "1D9335A4-69BC-4202-817B-D13DAA30F854";
paths = (
{
closed = 1;
nodes = (
"670 561 LINE",
"670 526 LINE SMOOTH",
"672 476 OFFCURVE",
"663 424 OFFCURVE",
"653 382 CURVE",
"614 412 OFFCURVE",
"553 431 OFFCURVE",
"465 431 CURVE SMOOTH",
"323 431 LINE",
"323 367 LINE",
"356 355 OFFCURVE",
"399 317 OFFCURVE",
"399 232 CURVE SMOOTH",
"399 164 OFFCURVE",
"358 119 OFFCURVE",
"291 119 CURVE SMOOTH",
"211 119 OFFCURVE",
"165 169 OFFCURVE",
"165 273 CURVE SMOOTH",
"165 496 LINE",
"85 496 LINE",
"85 277 LINE SMOOTH",
"85 117 OFFCURVE",
"175 51 OFFCURVE",
"291 51 CURVE SMOOTH",
"414 51 OFFCURVE",
"479 121 OFFCURVE",
"479 225 CURVE SMOOTH",
"479 289 OFFCURVE",
"458 335 OFFCURVE",
"423 363 CURVE",
"465 363 LINE SMOOTH",
"547 363 OFFCURVE",
"594 346 OFFCURVE",
"630 320 CURVE",
"607 248 OFFCURVE",
"588 195 OFFCURVE",
"588 143 CURVE SMOOTH",
"588 67 OFFCURVE",
"636 38 OFFCURVE",
"688 38 CURVE SMOOTH",
"749 38 OFFCURVE",
"788 75 OFFCURVE",
"788 151 CURVE SMOOTH",
"788 232 OFFCURVE",
"754 293 OFFCURVE",
"715 331 CURVE",
"732 377 OFFCURVE",
"748 458 OFFCURVE",
"748 530 CURVE SMOOTH",
"748 541 OFFCURVE",
"748 551 OFFCURVE",
"747 561 CURVE",
"890 561 LINE",
"890 622 LINE",
"-10 622 LINE",
"-10 561 LINE"
);
},
{
closed = 1;
nodes = (
"661 178 OFFCURVE",
"669 213 OFFCURVE",
"686 270 CURVE",
"704 245 OFFCURVE",
"716 205 OFFCURVE",
"716 153 CURVE SMOOTH",
"716 118 OFFCURVE",
"706 99 OFFCURVE",
"688 99 CURVE SMOOTH",
"671 99 OFFCURVE",
"661 114 OFFCURVE",
"661 145 CURVE SMOOTH"
);
}
);
width = 880;
}
);
unicode = 11D87;
userData = {
com.typemytype.robofont.guides = (
{
angle = 0;
isGlobal = 0;
magnetic = 5;
x = 0;
y = 423;
}
);
com.typemytype.robofont.mark = (
1,
0.6,
0.6,
1
);
};
},
{
glyphname = Ra.GGondi;
lastChange = "2019-10-04 20:07:41 +0000";
layers = (
{
anchors = (
{
name = bottom;
position = "{523, -28}";
},
{
name = top;
position = "{580, 656}";
}
);
background = {
anchors = (
{
name = bottom;
position = "{523, -28}";
},
{
name = top;
position = "{580, 656}";
}
);
paths = (
{
closed = 1;
nodes = (
"543 561 LINE",
"543 526 LINE SMOOTH",
"544 490 OFFCURVE",
"538 442 OFFCURVE",
"530 400 CURVE",
"482 440 OFFCURVE",
"411 470 OFFCURVE",
"324 470 CURVE SMOOTH",
"182 470 OFFCURVE",
"100 399 OFFCURVE",
"100 290 CURVE SMOOTH",
"100 225 OFFCURVE",
"150 170 OFFCURVE",
"227 163 CURVE",
"52 75 LINE",
"87 11 LINE",
"401 184 LINE",
"371 244 LINE",
"333 224 LINE",
"312 215 OFFCURVE",
"294 209 OFFCURVE",
"270 209 CURVE SMOOTH",
"219 209 OFFCURVE",
"180 240 OFFCURVE",
"180 285 CURVE SMOOTH",
"180 356 OFFCURVE",
"232 402 OFFCURVE",
"327 402 CURVE SMOOTH",
"398 402 OFFCURVE",
"462 379 OFFCURVE",
"509 335 CURVE",
"506 328 LINE",
"481 252 OFFCURVE",
"461 197 OFFCURVE",
"461 143 CURVE SMOOTH",
"461 67 OFFCURVE",
"509 38 OFFCURVE",
"561 38 CURVE SMOOTH",
"622 38 OFFCURVE",
"661 75 OFFCURVE",
"661 151 CURVE SMOOTH",
"661 234 OFFCURVE",
"629 296 OFFCURVE",
"592 336 CURVE",
"609 386 OFFCURVE",
"621 459 OFFCURVE",
"621 530 CURVE SMOOTH",
"621 541 OFFCURVE",
"621 551 OFFCURVE",
"620 561 CURVE",
"763 561 LINE",
"763 622 LINE",
"-10 622 LINE",
"-10 561 LINE"
);
},
{
closed = 1;
nodes = (
"534 179 OFFCURVE",
"543 215 OFFCURVE",
"560 276 CURVE",
"578 249 OFFCURVE",
"589 207 OFFCURVE",
"589 153 CURVE SMOOTH",
"589 118 OFFCURVE",
"579 99 OFFCURVE",
"561 99 CURVE SMOOTH",
"544 99 OFFCURVE",
"534 114 OFFCURVE",
"534 145 CURVE SMOOTH"
);
}
);
};
layerId = "1D9335A4-69BC-4202-817B-D13DAA30F854";
paths = (
{
closed = 1;
nodes = (
"543 561 LINE",
"543 526 LINE SMOOTH",
"544 490 OFFCURVE",
"538 442 OFFCURVE",
"530 400 CURVE",
"482 440 OFFCURVE",
"411 470 OFFCURVE",
"324 470 CURVE SMOOTH",
"182 470 OFFCURVE",
"100 399 OFFCURVE",
"100 290 CURVE SMOOTH",
"100 225 OFFCURVE",
"150 170 OFFCURVE",
"227 163 CURVE",
"52 75 LINE",
"87 11 LINE",
"401 184 LINE",
"371 244 LINE",
"333 224 LINE",
"312 215 OFFCURVE",
"294 209 OFFCURVE",
"270 209 CURVE SMOOTH",
"219 209 OFFCURVE",
"180 240 OFFCURVE",
"180 285 CURVE SMOOTH",
"180 356 OFFCURVE",
"232 402 OFFCURVE",
"327 402 CURVE SMOOTH",
"398 402 OFFCURVE",
"462 379 OFFCURVE",
"509 335 CURVE",
"506 328 LINE",
"481 252 OFFCURVE",
"461 197 OFFCURVE",
"461 143 CURVE SMOOTH",
"461 67 OFFCURVE",
"509 38 OFFCURVE",
"561 38 CURVE SMOOTH",
"622 38 OFFCURVE",
"661 75 OFFCURVE",
"661 151 CURVE SMOOTH",
"661 234 OFFCURVE",
"629 296 OFFCURVE",
"592 336 CURVE",
"609 386 OFFCURVE",
"621 459 OFFCURVE",
"621 530 CURVE SMOOTH",
"621 541 OFFCURVE",
"621 551 OFFCURVE",
"620 561 CURVE",
"763 561 LINE",
"763 622 LINE",
"-10 622 LINE",
"-10 561 LINE"
);
},
{
closed = 1;
nodes = (
"534 179 OFFCURVE",
"543 215 OFFCURVE",
"560 276 CURVE",
"578 249 OFFCURVE",
"589 207 OFFCURVE",
"589 153 CURVE SMOOTH",
"589 118 OFFCURVE",
"579 99 OFFCURVE",
"561 99 CURVE SMOOTH",
"544 99 OFFCURVE",
"534 114 OFFCURVE",
"534 145 CURVE SMOOTH"
);
}
);
width = 753;
}
);
unicode = 11D88;
category = Letter;
userData = {
com.typemytype.robofont.mark = (
1,
0.6,
0.6,
1
);
};
},
{
glyphname = Sa.GGondi;
lastChange = "2019-10-04 20:07:41 +0000";
layers = (
{
anchors = (
{
name = bottom;
position = "{570, -28}";
},
{
name = top;
position = "{617, 656}";
}
);
background = {
anchors = (
{
name = bottom;
position = "{570, -28}";
},
{
name = top;
position = "{617, 656}";
}
);
paths = (
{
closed = 1;
nodes = (
"579 561 LINE",
"580 545 OFFCURVE",
"580 533 OFFCURVE",
"580 519 CURVE SMOOTH",
"581 456 OFFCURVE",
"573 370 OFFCURVE",
"548 287 CURVE",
"526 292 OFFCURVE",
"501 295 OFFCURVE",
"473 295 CURVE SMOOTH",
"407 295 LINE",
"397 434 OFFCURVE",
"326 506 OFFCURVE",
"208 506 CURVE SMOOTH",
"151 506 OFFCURVE",
"103 486 OFFCURVE",
"74 464 CURVE",
"110 404 LINE",
"131 418 OFFCURVE",
"164 436 OFFCURVE",
"205 436 CURVE SMOOTH",
"287 436 OFFCURVE",
"330 373 OFFCURVE",
"330 265 CURVE SMOOTH",
"330 158 OFFCURVE",
"286 95 OFFCURVE",
"207 95 CURVE SMOOTH",
"157 95 OFFCURVE",
"125 118 OFFCURVE",
"95 154 CURVE",
"39 106 LINE",
"72 60 OFFCURVE",
"125 25 OFFCURVE",
"207 25 CURVE SMOOTH",
"317 25 OFFCURVE",
"396 84 OFFCURVE",
"407 227 CURVE",
"473 227 LINE SMOOTH",
"494 227 OFFCURVE",
"511 226 OFFCURVE",
"524 225 CURVE",
"516 195 OFFCURVE",
"508 158 OFFCURVE",
"508 123 CURVE SMOOTH",
"508 44 OFFCURVE",
"556 13 OFFCURVE",
"609 13 CURVE SMOOTH",
"669 13 OFFCURVE",
"708 47 OFFCURVE",
"708 117 CURVE SMOOTH",
"708 184 OFFCURVE",
"667 233 OFFCURVE",
"615 264 CURVE",
"645 352 OFFCURVE",
"658 444 OFFCURVE",
"658 523 CURVE SMOOTH",
"658 537 OFFCURVE",
"657 549 OFFCURVE",
"657 561 CURVE",
"800 561 LINE",
"800 622 LINE",
"-10 622 LINE",
"-10 561 LINE"
);
},
{
closed = 1;
nodes = (
"581 150 OFFCURVE",
"585 176 OFFCURVE",
"593 201 CURVE",
"618 189 OFFCURVE",
"636 160 OFFCURVE",
"636 119 CURVE SMOOTH",
"636 90 OFFCURVE",
"626 74 OFFCURVE",
"609 74 CURVE SMOOTH",
"591 74 OFFCURVE",
"581 90 OFFCURVE",
"581 125 CURVE SMOOTH"
);
}
);
};
layerId = "1D9335A4-69BC-4202-817B-D13DAA30F854";
paths = (
{
closed = 1;
nodes = (
"579 561 LINE",
"580 545 OFFCURVE",
"580 533 OFFCURVE",
"580 519 CURVE SMOOTH",
"581 456 OFFCURVE",
"573 370 OFFCURVE",
"548 287 CURVE",
"526 292 OFFCURVE",
"501 295 OFFCURVE",
"473 295 CURVE SMOOTH",
"407 295 LINE",
"397 434 OFFCURVE",
"326 506 OFFCURVE",
"208 506 CURVE SMOOTH",
"151 506 OFFCURVE",
"103 486 OFFCURVE",
"74 464 CURVE",
"110 404 LINE",
"131 418 OFFCURVE",
"164 436 OFFCURVE",
"205 436 CURVE SMOOTH",
"287 436 OFFCURVE",
"330 373 OFFCURVE",
"330 265 CURVE SMOOTH",
"330 158 OFFCURVE",
"286 95 OFFCURVE",
"207 95 CURVE SMOOTH",
"157 95 OFFCURVE",
"125 118 OFFCURVE",
"95 154 CURVE",
"39 106 LINE",
"72 60 OFFCURVE",
"125 25 OFFCURVE",
"207 25 CURVE SMOOTH",
"317 25 OFFCURVE",
"396 84 OFFCURVE",
"407 227 CURVE",
"473 227 LINE SMOOTH",
"494 227 OFFCURVE",
"511 226 OFFCURVE",
"524 225 CURVE",
"516 195 OFFCURVE",
"508 158 OFFCURVE",
"508 123 CURVE SMOOTH",
"508 44 OFFCURVE",
"556 13 OFFCURVE",
"609 13 CURVE SMOOTH",
"669 13 OFFCURVE",
"708 47 OFFCURVE",
"708 117 CURVE SMOOTH",
"708 184 OFFCURVE",
"667 233 OFFCURVE",
"615 264 CURVE",
"645 352 OFFCURVE",
"658 444 OFFCURVE",
"658 523 CURVE SMOOTH",
"658 537 OFFCURVE",
"657 549 OFFCURVE",
"657 561 CURVE",
"800 561 LINE",
"800 622 LINE",
"-10 622 LINE",
"-10 561 LINE"
);
},
{
closed = 1;
nodes = (
"581 150 OFFCURVE",
"585 176 OFFCURVE",
"593 201 CURVE",
"618 189 OFFCURVE",
"636 160 OFFCURVE",
"636 119 CURVE SMOOTH",
"636 90 OFFCURVE",
"626 74 OFFCURVE",
"609 74 CURVE SMOOTH",
"591 74 OFFCURVE",
"581 90 OFFCURVE",
"581 125 CURVE SMOOTH"
);
}
);
width = 790;
}
);
unicode = 11D89;
category = Letter;
userData = {
com.typemytype.robofont.mark = (
0.835,
1,
0.6,
1
);
};
},
{
glyphname = MatraAa.GGondi;
lastChange = "2019-10-04 20:07:41 +0000";
layers = (
{
anchors = (
{
name = top;
position = "{229, 656}";
}
);
background = {
anchors = (
{
name = top;
position = "{229, 656}";
}
);
paths = (
{
closed = 1;
nodes = (
"74 227 LINE SMOOTH",
"95 227 OFFCURVE",
"112 226 OFFCURVE",
"125 225 CURVE",
"117 195 OFFCURVE",
"109 158 OFFCURVE",
"109 123 CURVE SMOOTH",
"109 44 OFFCURVE",
"157 13 OFFCURVE",
"210 13 CURVE SMOOTH",
"270 13 OFFCURVE",
"309 47 OFFCURVE",
"309 117 CURVE SMOOTH",
"309 184 OFFCURVE",
"268 233 OFFCURVE",
"217 263 CURVE",
"253 359 OFFCURVE",
"269 458 OFFCURVE",
"269 543 CURVE",
"269 561 LINE",
"391 561 LINE",
"391 622 LINE",
"0 622 LINE",
"0 561 LINE",
"191 561 LINE",
"191 539 LINE SMOOTH",
"192 471 OFFCURVE",
"182 377 OFFCURVE",
"149 287 CURVE",
"127 292 OFFCURVE",
"102 295 OFFCURVE",
"74 295 CURVE SMOOTH",
"-15 295 LINE",
"-15 227 LINE"
);
},
{
closed = 1;
nodes = (
"182 150 OFFCURVE",
"186 176 OFFCURVE",
"194 201 CURVE",
"219 189 OFFCURVE",
"237 160 OFFCURVE",
"237 119 CURVE SMOOTH",
"237 90 OFFCURVE",
"227 74 OFFCURVE",
"210 74 CURVE SMOOTH",
"192 74 OFFCURVE",
"182 90 OFFCURVE",
"182 125 CURVE SMOOTH"
);
}
);
};
layerId = "1D9335A4-69BC-4202-817B-D13DAA30F854";
paths = (
{
closed = 1;
nodes = (
"74 227 LINE SMOOTH",
"95 227 OFFCURVE",
"112 226 OFFCURVE",
"125 225 CURVE",
"117 195 OFFCURVE",
"109 158 OFFCURVE",
"109 123 CURVE SMOOTH",
"109 44 OFFCURVE",
"157 13 OFFCURVE",
"210 13 CURVE SMOOTH",
"270 13 OFFCURVE",
"309 47 OFFCURVE",
"309 117 CURVE SMOOTH",
"309 184 OFFCURVE",
"268 233 OFFCURVE",
"217 263 CURVE",
"253 359 OFFCURVE",
"269 458 OFFCURVE",
"269 543 CURVE",
"269 561 LINE",
"391 561 LINE",
"391 622 LINE",
"0 622 LINE",
"0 561 LINE",
"191 561 LINE",
"191 539 LINE SMOOTH",
"192 471 OFFCURVE",
"182 377 OFFCURVE",
"149 287 CURVE",
"127 292 OFFCURVE",
"102 295 OFFCURVE",
"74 295 CURVE SMOOTH",
"-15 295 LINE",
"-15 227 LINE"
);
},
{
closed = 1;
nodes = (
"182 150 OFFCURVE",
"186 176 OFFCURVE",
"194 201 CURVE",
"219 189 OFFCURVE",
"237 160 OFFCURVE",
"237 119 CURVE SMOOTH",
"237 90 OFFCURVE",
"227 74 OFFCURVE",
"210 74 CURVE SMOOTH",
"192 74 OFFCURVE",
"182 90 OFFCURVE",
"182 125 CURVE SMOOTH"
);
}
);
width = 381;
}
);
unicode = 11D8A;
category = Letter;
},
{
glyphname = MatraI.GGondi;
lastChange = "2019-10-04 20:07:41 +0000";
layers = (
{
anchors = (
{
name = top;
position = "{283, 766}";
}
);
background = {
anchors = (
{
name = top;
position = "{283, 766}";
}
);
paths = (
{
closed = 1;
nodes = (
"-138 585 LINE",
"-138 625 LINE SMOOTH",
"-138 714 OFFCURVE",
"-81 767 OFFCURVE",
"6 767 CURVE SMOOTH",
"94 767 OFFCURVE",
"150 715 OFFCURVE",
"150 628 CURVE SMOOTH",
"150 622 LINE",
"-10 622 LINE",
"-10 561 LINE",
"150 561 LINE",
"150 152 LINE SMOOTH",
"150 115 OFFCURVE",
"130 93 OFFCURVE",
"96 93 CURVE SMOOTH",
"63 93 OFFCURVE",
"44 116 OFFCURVE",
"42 155 CURVE",
"-36 155 LINE",
"-35 73 OFFCURVE",
"13 25 OFFCURVE",
"96 25 CURVE SMOOTH",
"181 25 OFFCURVE",
"228 75 OFFCURVE",
"228 152 CURVE SMOOTH",
"228 561 LINE",
"338 561 LINE",
"338 622 LINE",
"228 622 LINE",
"228 628 LINE SMOOTH",
"228 758 OFFCURVE",
"132 835 OFFCURVE",
"6 835 CURVE SMOOTH",
"-112 835 OFFCURVE",
"-216 761 OFFCURVE",
"-216 627 CURVE SMOOTH",
"-216 585 LINE"
);
}
);
};
layerId = "1D9335A4-69BC-4202-817B-D13DAA30F854";
paths = (
{
closed = 1;
nodes = (
"-138 585 LINE",
"-138 625 LINE SMOOTH",
"-138 714 OFFCURVE",
"-81 767 OFFCURVE",
"6 767 CURVE SMOOTH",
"94 767 OFFCURVE",
"150 715 OFFCURVE",
"150 628 CURVE SMOOTH",
"150 622 LINE",
"-10 622 LINE",
"-10 561 LINE",
"150 561 LINE",
"150 152 LINE SMOOTH",
"150 115 OFFCURVE",
"130 93 OFFCURVE",
"96 93 CURVE SMOOTH",
"63 93 OFFCURVE",
"44 116 OFFCURVE",
"42 155 CURVE",
"-36 155 LINE",
"-35 73 OFFCURVE",
"13 25 OFFCURVE",
"96 25 CURVE SMOOTH",
"181 25 OFFCURVE",
"228 75 OFFCURVE",
"228 152 CURVE SMOOTH",
"228 561 LINE",
"338 561 LINE",
"338 622 LINE",
"228 622 LINE",
"228 628 LINE SMOOTH",
"228 758 OFFCURVE",
"132 835 OFFCURVE",
"6 835 CURVE SMOOTH",
"-112 835 OFFCURVE",
"-216 761 OFFCURVE",
"-216 627 CURVE SMOOTH",
"-216 585 LINE"
);
}
);
width = 328;
}
);
unicode = 11D8B;
category = Letter;
},
{
glyphname = MatraIi.GGondi;
lastChange = "2019-10-04 20:07:41 +0000";
layers = (
{
anchors = (
{
name = top;
position = "{222, 766}";
}
);
background = {
anchors = (
{
name = top;
position = "{222, 766}";
}
);
paths = (
{
closed = 1;
nodes = (
"-134 585 LINE",
"-134 645 LINE SMOOTH",
"-134 722 OFFCURVE",
"-95 767 OFFCURVE",
"-21 767 CURVE SMOOTH",
"53 767 OFFCURVE",
"88 723 OFFCURVE",
"88 648 CURVE SMOOTH",
"88 622 LINE",
"-70 622 LINE",
"-70 561 LINE",
"88 561 LINE",
"88 386 LINE",
"89 386 LINE",
"89 25 LINE",
"167 25 LINE",
"167 262 LINE",
"187 274 OFFCURVE",
"213 285 OFFCURVE",
"249 285 CURVE SMOOTH",
"309 285 OFFCURVE",
"352 245 OFFCURVE",
"352 177 CURVE SMOOTH",
"352 115 OFFCURVE",
"337 69 OFFCURVE",
"323 25 CURVE",
"401 25 LINE",
"418 66 OFFCURVE",
"432 125 OFFCURVE",
"432 177 CURVE SMOOTH",
"432 299 OFFCURVE",
"349 353 OFFCURVE",
"266 353 CURVE SMOOTH",
"219 353 OFFCURVE",
"190 342 OFFCURVE",
"167 330 CURVE",
"167 516 LINE",
"166 516 LINE",
"166 561 LINE",
"505 561 LINE",
"505 622 LINE",
"166 622 LINE",
"166 648 LINE SMOOTH",
"166 769 OFFCURVE",
"80 835 OFFCURVE",
"-21 835 CURVE SMOOTH",
"-122 835 OFFCURVE",
"-212 769 OFFCURVE",
"-212 647 CURVE SMOOTH",
"-212 585 LINE"
);
}
);
};
layerId = "1D9335A4-69BC-4202-817B-D13DAA30F854";
paths = (
{
closed = 1;
nodes = (
"-134 585 LINE",
"-134 645 LINE SMOOTH",
"-134 722 OFFCURVE",
"-95 767 OFFCURVE",
"-21 767 CURVE SMOOTH",
"53 767 OFFCURVE",
"88 723 OFFCURVE",
"88 648 CURVE SMOOTH",
"88 622 LINE",
"-70 622 LINE",
"-70 561 LINE",
"88 561 LINE",
"88 386 LINE",
"89 386 LINE",
"89 25 LINE",
"167 25 LINE",
"167 262 LINE",
"187 274 OFFCURVE",
"213 285 OFFCURVE",
"249 285 CURVE SMOOTH",
"309 285 OFFCURVE",
"352 245 OFFCURVE",
"352 177 CURVE SMOOTH",
"352 115 OFFCURVE",
"337 69 OFFCURVE",
"323 25 CURVE",
"401 25 LINE",
"418 66 OFFCURVE",
"432 125 OFFCURVE",
"432 177 CURVE SMOOTH",
"432 299 OFFCURVE",
"349 353 OFFCURVE",
"266 353 CURVE SMOOTH",
"219 353 OFFCURVE",
"190 342 OFFCURVE",
"167 330 CURVE",
"167 516 LINE",
"166 516 LINE",
"166 561 LINE",
"505 561 LINE",
"505 622 LINE",
"166 622 LINE",
"166 648 LINE SMOOTH",
"166 769 OFFCURVE",
"80 835 OFFCURVE",
"-21 835 CURVE SMOOTH",
"-122 835 OFFCURVE",
"-212 769 OFFCURVE",
"-212 647 CURVE SMOOTH",
"-212 585 LINE"
);
}
);
width = 495;
}
);
unicode = 11D8C;
category = Letter;
},
{
glyphname = MatraU.GGondi;
lastChange = "2019-10-04 20:07:41 +0000";
layers = (
{
background = {
paths = (
{
closed = 1;
nodes = (
"64 561 LINE",
"64 425 LINE SMOOTH",
"64 290 OFFCURVE",
"144 223 OFFCURVE",
"263 223 CURVE SMOOTH",
"351 223 OFFCURVE",
"432 282 OFFCURVE",
"432 372 CURVE SMOOTH",
"432 437 OFFCURVE",
"386 480 OFFCURVE",
"322 480 CURVE SMOOTH",
"260 480 OFFCURVE",
"216 442 OFFCURVE",
"215 384 CURVE SMOOTH",
"214 339 OFFCURVE",
"243 299 OFFCURVE",
"297 289 CURVE",
"284 285 OFFCURVE",
"270 283 OFFCURVE",
"255 283 CURVE SMOOTH",
"181 283 OFFCURVE",
"131 330 OFFCURVE",
"132 431 CURVE SMOOTH",
"132 561 LINE",
"498 561 LINE",
"498 622 LINE",
"-10 622 LINE",
"-10 561 LINE"
);
},
{
closed = 1;
nodes = (
"284 404 OFFCURVE",
"299 420 OFFCURVE",
"322 420 CURVE SMOOTH",
"346 420 OFFCURVE",
"363 401 OFFCURVE",
"363 375 CURVE SMOOTH",
"363 353 OFFCURVE",
"358 335 OFFCURVE",
"346 320 CURVE",
"304 326 OFFCURVE",
"284 352 OFFCURVE",
"284 378 CURVE SMOOTH"
);
}
);
};
layerId = "1D9335A4-69BC-4202-817B-D13DAA30F854";
paths = (
{
closed = 1;
nodes = (
"64 561 LINE",
"64 425 LINE SMOOTH",
"64 290 OFFCURVE",
"144 223 OFFCURVE",
"263 223 CURVE SMOOTH",
"351 223 OFFCURVE",
"432 282 OFFCURVE",
"432 372 CURVE SMOOTH",
"432 437 OFFCURVE",
"386 480 OFFCURVE",
"322 480 CURVE SMOOTH",
"260 480 OFFCURVE",
"216 442 OFFCURVE",
"215 384 CURVE SMOOTH",
"214 339 OFFCURVE",
"243 299 OFFCURVE",
"297 289 CURVE",
"284 285 OFFCURVE",
"270 283 OFFCURVE",
"255 283 CURVE SMOOTH",
"181 283 OFFCURVE",
"131 330 OFFCURVE",
"132 431 CURVE SMOOTH",
"132 561 LINE",
"498 561 LINE",
"498 622 LINE",
"-10 622 LINE",
"-10 561 LINE"
);
},
{
closed = 1;
nodes = (
"284 404 OFFCURVE",
"299 420 OFFCURVE",
"322 420 CURVE SMOOTH",
"346 420 OFFCURVE",
"363 401 OFFCURVE",
"363 375 CURVE SMOOTH",
"363 353 OFFCURVE",
"358 335 OFFCURVE",
"346 320 CURVE",
"304 326 OFFCURVE",
"284 352 OFFCURVE",
"284 378 CURVE SMOOTH"
);
}
);
width = 488;
}
);
unicode = 11D8D;
category = Letter;
},
{
glyphname = MatraUu.GGondi;
lastChange = "2019-10-04 20:07:41 +0000";
layers = (
{
background = {
paths = (
{
closed = 1;
nodes = (
"54 561 LINE",
"54 445 LINE SMOOTH",
"54 287 OFFCURVE",
"140 223 OFFCURVE",
"262 223 CURVE SMOOTH",
"293 223 OFFCURVE",
"321 229 OFFCURVE",
"343 237 CURVE",
"365 212 OFFCURVE",
"369 184 OFFCURVE",
"369 161 CURVE SMOOTH",
"369 98 OFFCURVE",
"321 73 OFFCURVE",
"252 70 CURVE",
"252 4 LINE",
"387 1 OFFCURVE",
"439 79 OFFCURVE",
"439 161 CURVE SMOOTH",
"439 202 OFFCURVE",
"419 243 OFFCURVE",
"394 270 CURVE",
"425 298 OFFCURVE",
"442 333 OFFCURVE",
"442 375 CURVE SMOOTH",
"442 440 OFFCURVE",
"397 480 OFFCURVE",
"332 480 CURVE SMOOTH",
"270 480 OFFCURVE",
"226 442 OFFCURVE",
"225 382 CURVE SMOOTH",
"224 343 OFFCURVE",
"242 306 OFFCURVE",
"285 283 CURVE",
"265 283 LINE SMOOTH",
"179 283 OFFCURVE",
"122 336 OFFCURVE",
"122 451 CURVE SMOOTH",
"122 561 LINE",
"528 561 LINE",
"528 622 LINE",
"-10 622 LINE",
"-10 561 LINE"
);
},
{
closed = 1;
nodes = (
"294 404 OFFCURVE",
"312 420 OFFCURVE",
"332 420 CURVE SMOOTH",
"356 420 OFFCURVE",
"373 403 OFFCURVE",
"373 376 CURVE SMOOTH",
"373 354 OFFCURVE",
"369 330 OFFCURVE",
"342 304 CURVE",
"305 326 OFFCURVE",
"294 354 OFFCURVE",
"294 376 CURVE SMOOTH"
);
}
);
};
layerId = "1D9335A4-69BC-4202-817B-D13DAA30F854";
paths = (
{
closed = 1;
nodes = (
"54 561 LINE",
"54 445 LINE SMOOTH",
"54 287 OFFCURVE",
"140 223 OFFCURVE",
"262 223 CURVE SMOOTH",
"293 223 OFFCURVE",
"321 229 OFFCURVE",
"343 237 CURVE",
"365 212 OFFCURVE",
"369 184 OFFCURVE",
"369 161 CURVE SMOOTH",
"369 98 OFFCURVE",
"321 73 OFFCURVE",
"252 70 CURVE",
"252 4 LINE",
"387 1 OFFCURVE",
"439 79 OFFCURVE",
"439 161 CURVE SMOOTH",
"439 202 OFFCURVE",
"419 243 OFFCURVE",
"394 270 CURVE",
"425 298 OFFCURVE",
"442 333 OFFCURVE",
"442 375 CURVE SMOOTH",
"442 440 OFFCURVE",
"397 480 OFFCURVE",
"332 480 CURVE SMOOTH",
"270 480 OFFCURVE",
"226 442 OFFCURVE",
"225 382 CURVE SMOOTH",
"224 343 OFFCURVE",
"242 306 OFFCURVE",
"285 283 CURVE",
"265 283 LINE SMOOTH",
"179 283 OFFCURVE",
"122 336 OFFCURVE",
"122 451 CURVE SMOOTH",
"122 561 LINE",
"528 561 LINE",
"528 622 LINE",
"-10 622 LINE",
"-10 561 LINE"
);
},
{
closed = 1;
nodes = (
"294 404 OFFCURVE",
"312 420 OFFCURVE",
"332 420 CURVE SMOOTH",
"356 420 OFFCURVE",
"373 403 OFFCURVE",
"373 376 CURVE SMOOTH",
"373 354 OFFCURVE",
"369 330 OFFCURVE",
"342 304 CURVE",
"305 326 OFFCURVE",
"294 354 OFFCURVE",
"294 376 CURVE SMOOTH"
);
}
);
width = 518;
}
);
unicode = 11D8E;
category = Letter;
},
{
glyphname = MatraEe.GGondi;
lastChange = "2019-10-04 20:07:41 +0000";
layers = (
{
anchors = (
{
name = _top;
position = "{-135, 656}";
},
{
name = top;
position = "{-188, 766}";
}
);
background = {
anchors = (
{
name = _top;
position = "{-135, 656}";
},
{
name = top;
position = "{-188, 766}";
}
);
paths = (
{
closed = 1;
nodes = (
"-567 827 OFFCURVE",
"-510 774 OFFCURVE",
"-374 734 CURVE SMOOTH",
"-258 700 LINE SMOOTH",
"-204 684 OFFCURVE",
"-170 669 OFFCURVE",
"-170 611 CURVE",
"-102 611 LINE",
"-102 620 LINE SMOOTH",
"-102 690 OFFCURVE",
"-152 734 OFFCURVE",
"-256 763 CURVE SMOOTH",
"-350 789 LINE SMOOTH",
"-379 797 OFFCURVE",
"-408 805 OFFCURVE",
"-429 813 CURVE",
"-384 827 OFFCURVE",
"-353 865 OFFCURVE",
"-353 914 CURVE SMOOTH",
"-353 974 OFFCURVE",
"-399 1014 OFFCURVE",
"-458 1014 CURVE SMOOTH",
"-518 1014 OFFCURVE",
"-567 976 OFFCURVE",
"-567 906 CURVE SMOOTH"
);
},
{
closed = 1;
nodes = (
"-498 938 OFFCURVE",
"-482 956 OFFCURVE",
"-456 956 CURVE SMOOTH",
"-437 956 OFFCURVE",
"-421 940 OFFCURVE",
"-421 917 CURVE SMOOTH",
"-421 881 OFFCURVE",
"-443 860 OFFCURVE",
"-479 852 CURVE",
"-492 868 OFFCURVE",
"-498 889 OFFCURVE",
"-498 906 CURVE SMOOTH"
);
}
);
};
layerId = "1D9335A4-69BC-4202-817B-D13DAA30F854";
paths = (
{
closed = 1;
nodes = (
"-567 827 OFFCURVE",
"-510 774 OFFCURVE",
"-374 734 CURVE SMOOTH",
"-258 700 LINE SMOOTH",
"-204 684 OFFCURVE",
"-170 669 OFFCURVE",
"-170 611 CURVE",
"-102 611 LINE",
"-102 620 LINE SMOOTH",
"-102 690 OFFCURVE",
"-152 734 OFFCURVE",
"-256 763 CURVE SMOOTH",
"-350 789 LINE SMOOTH",
"-379 797 OFFCURVE",
"-408 805 OFFCURVE",
"-429 813 CURVE",
"-384 827 OFFCURVE",
"-353 865 OFFCURVE",
"-353 914 CURVE SMOOTH",
"-353 974 OFFCURVE",
"-399 1014 OFFCURVE",
"-458 1014 CURVE SMOOTH",
"-518 1014 OFFCURVE",
"-567 976 OFFCURVE",
"-567 906 CURVE SMOOTH"
);
},
{
closed = 1;
nodes = (
"-498 938 OFFCURVE",
"-482 956 OFFCURVE",
"-456 956 CURVE SMOOTH",
"-437 956 OFFCURVE",
"-421 940 OFFCURVE",
"-421 917 CURVE SMOOTH",
"-421 881 OFFCURVE",
"-443 860 OFFCURVE",
"-479 852 CURVE",
"-492 868 OFFCURVE",
"-498 889 OFFCURVE",
"-498 906 CURVE SMOOTH"
);
}
);
width = 0;
}
);
unicode = 11D90;
category = Mark;
subCategory = Nonspacing;
},
{
glyphname = MatraAi.GGondi;
lastChange = "2019-10-04 20:07:41 +0000";
layers = (
{
anchors = (
{
name = _top;
position = "{-135, 656}";
},
{
name = top;
position = "{-134, 766}";
}
);
background = {
anchors = (
{
name = _top;
position = "{-135, 656}";
},
{
name = top;
position = "{-134, 766}";
}
);
paths = (
{
closed = 1;
nodes = (
"-775 816 OFFCURVE",
"-685 748 OFFCURVE",
"-528 748 CURVE SMOOTH",
"-486 748 OFFCURVE",
"-449 753 OFFCURVE",
"-422 758 CURVE",
"-397 737 OFFCURVE",
"-358 719 OFFCURVE",
"-300 705 CURVE SMOOTH",
"-271 698 LINE SMOOTH",
"-208 683 OFFCURVE",
"-174 666 OFFCURVE",
"-174 609 CURVE SMOOTH",
"-174 583 LINE",
"-106 583 LINE",
"-106 616 LINE SMOOTH",
"-106 686 OFFCURVE",
"-154 728 OFFCURVE",
"-260 755 CURVE SMOOTH",
"-276 759 LINE SMOOTH",
"-302 766 OFFCURVE",
"-328 771 OFFCURVE",
"-346 780 CURVE",
"-306 796 OFFCURVE",
"-279 830 OFFCURVE",
"-279 870 CURVE SMOOTH",
"-279 931 OFFCURVE",
"-324 970 OFFCURVE",
"-386 970 CURVE SMOOTH",
"-445 970 OFFCURVE",
"-493 934 OFFCURVE",
"-493 870 CURVE SMOOTH",
"-493 844 OFFCURVE",
"-486 822 OFFCURVE",
"-473 804 CURVE",
"-490 802 OFFCURVE",
"-509 801 OFFCURVE",
"-530 801 CURVE SMOOTH",
"-571 801 OFFCURVE",
"-605 808 OFFCURVE",
"-631 819 CURVE",
"-589 836 OFFCURVE",
"-561 871 OFFCURVE",
"-561 915 CURVE SMOOTH",
"-561 968 OFFCURVE",
"-599 1014 OFFCURVE",
"-666 1014 CURVE SMOOTH",
"-731 1014 OFFCURVE",
"-775 970 OFFCURVE",
"-775 913 CURVE SMOOTH"
);
},
{
closed = 1;
nodes = (
"-705 939 OFFCURVE",
"-691 958 OFFCURVE",
"-666 958 CURVE SMOOTH",
"-648 958 OFFCURVE",
"-632 944 OFFCURVE",
"-632 915 CURVE SMOOTH",
"-632 892 OFFCURVE",
"-648 863 OFFCURVE",
"-682 854 CURVE",
"-697 871 OFFCURVE",
"-705 892 OFFCURVE",
"-705 914 CURVE SMOOTH"
);
},
{
closed = 1;
nodes = (
"-424 896 OFFCURVE",
"-407 912 OFFCURVE",
"-384 912 CURVE SMOOTH",
"-361 912 OFFCURVE",
"-347 895 OFFCURVE",
"-347 873 CURVE SMOOTH",
"-347 839 OFFCURVE",
"-373 822 OFFCURVE",
"-404 812 CURVE",
"-419 828 OFFCURVE",
"-424 852 OFFCURVE",
"-424 867 CURVE SMOOTH"
);
}
);
};
layerId = "1D9335A4-69BC-4202-817B-D13DAA30F854";
paths = (
{
closed = 1;
nodes = (
"-775 816 OFFCURVE",
"-685 748 OFFCURVE",
"-528 748 CURVE SMOOTH",
"-486 748 OFFCURVE",
"-449 753 OFFCURVE",
"-422 758 CURVE",
"-397 737 OFFCURVE",
"-358 719 OFFCURVE",
"-300 705 CURVE SMOOTH",
"-271 698 LINE SMOOTH",
"-208 683 OFFCURVE",
"-174 666 OFFCURVE",
"-174 609 CURVE SMOOTH",
"-174 583 LINE",
"-106 583 LINE",
"-106 616 LINE SMOOTH",
"-106 686 OFFCURVE",
"-154 728 OFFCURVE",
"-260 755 CURVE SMOOTH",
"-276 759 LINE SMOOTH",
"-302 766 OFFCURVE",
"-328 771 OFFCURVE",
"-346 780 CURVE",
"-306 796 OFFCURVE",
"-279 830 OFFCURVE",
"-279 870 CURVE SMOOTH",
"-279 931 OFFCURVE",
"-324 970 OFFCURVE",
"-386 970 CURVE SMOOTH",
"-445 970 OFFCURVE",
"-493 934 OFFCURVE",
"-493 870 CURVE SMOOTH",
"-493 844 OFFCURVE",
"-486 822 OFFCURVE",
"-473 804 CURVE",
"-490 802 OFFCURVE",
"-509 801 OFFCURVE",
"-530 801 CURVE SMOOTH",
"-571 801 OFFCURVE",
"-605 808 OFFCURVE",
"-631 819 CURVE",
"-589 836 OFFCURVE",
"-561 871 OFFCURVE",
"-561 915 CURVE SMOOTH",
"-561 968 OFFCURVE",
"-599 1014 OFFCURVE",
"-666 1014 CURVE SMOOTH",
"-731 1014 OFFCURVE",
"-775 970 OFFCURVE",
"-775 913 CURVE SMOOTH"
);
},
{
closed = 1;
nodes = (
"-705 939 OFFCURVE",
"-691 958 OFFCURVE",
"-666 958 CURVE SMOOTH",
"-648 958 OFFCURVE",
"-632 944 OFFCURVE",
"-632 915 CURVE SMOOTH",
"-632 892 OFFCURVE",
"-648 863 OFFCURVE",
"-682 854 CURVE",
"-697 871 OFFCURVE",
"-705 892 OFFCURVE",
"-705 914 CURVE SMOOTH"
);
},
{
closed = 1;
nodes = (
"-424 896 OFFCURVE",
"-407 912 OFFCURVE",
"-384 912 CURVE SMOOTH",
"-361 912 OFFCURVE",
"-347 895 OFFCURVE",
"-347 873 CURVE SMOOTH",
"-347 839 OFFCURVE",
"-373 822 OFFCURVE",
"-404 812 CURVE",
"-419 828 OFFCURVE",
"-424 852 OFFCURVE",
"-424 867 CURVE SMOOTH"
);
}
);
width = 0;
}
);
unicode = 11D91;
category = Mark;
subCategory = Nonspacing;
},
{
glyphname = Anusvara.GGondi;
lastChange = "2019-10-04 20:07:41 +0000";
layers = (
{
anchors = (
{
name = _top;
position = "{-175, 656}";
}
);
background = {
anchors = (
{
name = _top;
position = "{-175, 656}";
}
);
paths = (
{
closed = 1;
nodes = (
"-229 733 OFFCURVE",
"-206 715 OFFCURVE",
"-177 715 CURVE SMOOTH",
"-150 715 OFFCURVE",
"-126 733 OFFCURVE",
"-126 771 CURVE SMOOTH",
"-126 810 OFFCURVE",
"-150 827 OFFCURVE",
"-177 827 CURVE SMOOTH",
"-206 827 OFFCURVE",
"-229 810 OFFCURVE",
"-229 771 CURVE SMOOTH"
);
}
);
};
layerId = "1D9335A4-69BC-4202-817B-D13DAA30F854";
paths = (
{
closed = 1;
nodes = (
"-229 733 OFFCURVE",
"-206 715 OFFCURVE",
"-177 715 CURVE SMOOTH",
"-150 715 OFFCURVE",
"-126 733 OFFCURVE",
"-126 771 CURVE SMOOTH",
"-126 810 OFFCURVE",
"-150 827 OFFCURVE",
"-177 827 CURVE SMOOTH",
"-206 827 OFFCURVE",
"-229 810 OFFCURVE",
"-229 771 CURVE SMOOTH"
);
}
);
width = 0;
}
);
unicode = 11D95;
category = Mark;
subCategory = Nonspacing;
},
{
glyphname = Visarg.GGondi;
lastChange = "2019-10-04 20:07:41 +0000";
layers = (
{
background = {
paths = (
{
closed = 1;
nodes = (
"218 561 LINE",
"218 622 LINE",
"-10 622 LINE",
"-10 561 LINE"
);
},
{
closed = 1;
nodes = (
"54 115 OFFCURVE",
"77 97 OFFCURVE",
"106 97 CURVE SMOOTH",
"133 97 OFFCURVE",
"157 115 OFFCURVE",
"157 153 CURVE SMOOTH",
"157 192 OFFCURVE",
"133 209 OFFCURVE",
"106 209 CURVE SMOOTH",
"77 209 OFFCURVE",
"54 192 OFFCURVE",
"54 153 CURVE SMOOTH"
);
},
{
closed = 1;
nodes = (
"54 354 OFFCURVE",
"77 336 OFFCURVE",
"106 336 CURVE SMOOTH",
"133 336 OFFCURVE",
"157 354 OFFCURVE",
"157 392 CURVE SMOOTH",
"157 431 OFFCURVE",
"133 448 OFFCURVE",
"106 448 CURVE SMOOTH",
"77 448 OFFCURVE",
"54 431 OFFCURVE",
"54 392 CURVE SMOOTH"
);
}
);
};
layerId = "1D9335A4-69BC-4202-817B-D13DAA30F854";
paths = (
{
closed = 1;
nodes = (
"218 561 LINE",
"218 622 LINE",
"-10 622 LINE",
"-10 561 LINE"
);
},
{
closed = 1;
nodes = (
"54 115 OFFCURVE",
"77 97 OFFCURVE",
"106 97 CURVE SMOOTH",
"133 97 OFFCURVE",
"157 115 OFFCURVE",
"157 153 CURVE SMOOTH",
"157 192 OFFCURVE",
"133 209 OFFCURVE",
"106 209 CURVE SMOOTH",
"77 209 OFFCURVE",
"54 192 OFFCURVE",
"54 153 CURVE SMOOTH"
);
},
{
closed = 1;
nodes = (
"54 354 OFFCURVE",
"77 336 OFFCURVE",
"106 336 CURVE SMOOTH",
"133 336 OFFCURVE",
"157 354 OFFCURVE",
"157 392 CURVE SMOOTH",
"157 431 OFFCURVE",
"133 448 OFFCURVE",
"106 448 CURVE SMOOTH",
"77 448 OFFCURVE",
"54 431 OFFCURVE",
"54 392 CURVE SMOOTH"
);
}
);
width = 208;
}
);
unicode = 11D96;
category = Letter;
userData = {
com.typemytype.robofont.guides = (
{
angle = 0;
isGlobal = 0;
magnetic = 5;
x = 0;
y = 874;
}
);
};
},
{
glyphname = Om.GGondi;
lastChange = "2019-10-04 20:07:41 +0000";
layers = (
{
background = {
paths = (
{
closed = 1;
nodes = (
"56 77 OFFCURVE",
"137 15 OFFCURVE",
"233 15 CURVE SMOOTH",
"303 15 OFFCURVE",
"361 41 OFFCURVE",
"388 99 CURVE",
"411 45 OFFCURVE",
"468 15 OFFCURVE",
"538 15 CURVE SMOOTH",
"648 15 OFFCURVE",
"712 79 OFFCURVE",
"712 185 CURVE SMOOTH",
"712 527 LINE",
"786 542 OFFCURVE",
"838 603 OFFCURVE",
"838 684 CURVE",
"777 684 LINE",
"777 632 OFFCURVE",
"734 587 OFFCURVE",
"674 587 CURVE SMOOTH",
"613 587 OFFCURVE",
"573 631 OFFCURVE",
"573 684 CURVE",
"512 684 LINE",
"512 601 OFFCURVE",
"562 543 OFFCURVE",
"634 527 CURVE",
"634 193 LINE SMOOTH",
"634 127 OFFCURVE",
"603 83 OFFCURVE",
"534 83 CURVE SMOOTH",
"471 83 OFFCURVE",
"429 125 OFFCURVE",
"429 189 CURVE SMOOTH",
"429 468 LINE",
"351 468 LINE",
"351 188 LINE SMOOTH",
"351 122 OFFCURVE",
"302 83 OFFCURVE",
"239 83 CURVE SMOOTH",
"182 83 OFFCURVE",
"136 119 OFFCURVE",
"136 187 CURVE SMOOTH",
"136 252 OFFCURVE",
"180 288 OFFCURVE",
"237 288 CURVE SMOOTH",
"241 288 OFFCURVE",
"244 288 OFFCURVE",
"251 287 CURVE",
"258 354 LINE",
"251 355 OFFCURVE",
"241 356 OFFCURVE",
"229 356 CURVE SMOOTH",
"141 356 OFFCURVE",
"56 299 OFFCURVE",
"56 187 CURVE SMOOTH"
);
},
{
closed = 1;
nodes = (
"634 660 OFFCURVE",
"652 646 OFFCURVE",
"674 646 CURVE SMOOTH",
"695 646 OFFCURVE",
"713 660 OFFCURVE",
"713 689 CURVE SMOOTH",
"713 719 OFFCURVE",
"695 732 OFFCURVE",
"674 732 CURVE SMOOTH",
"652 732 OFFCURVE",
"634 719 OFFCURVE",
"634 689 CURVE SMOOTH"
);
}
);
};
layerId = "1D9335A4-69BC-4202-817B-D13DAA30F854";
paths = (
{
closed = 1;
nodes = (
"56 77 OFFCURVE",
"137 15 OFFCURVE",
"233 15 CURVE SMOOTH",
"303 15 OFFCURVE",
"361 41 OFFCURVE",
"388 99 CURVE",
"411 45 OFFCURVE",
"468 15 OFFCURVE",
"538 15 CURVE SMOOTH",
"648 15 OFFCURVE",
"712 79 OFFCURVE",
"712 185 CURVE SMOOTH",
"712 527 LINE",
"786 542 OFFCURVE",
"838 603 OFFCURVE",
"838 684 CURVE",
"777 684 LINE",
"777 632 OFFCURVE",
"734 587 OFFCURVE",
"674 587 CURVE SMOOTH",
"613 587 OFFCURVE",
"573 631 OFFCURVE",
"573 684 CURVE",
"512 684 LINE",
"512 601 OFFCURVE",
"562 543 OFFCURVE",
"634 527 CURVE",
"634 193 LINE SMOOTH",
"634 127 OFFCURVE",
"603 83 OFFCURVE",
"534 83 CURVE SMOOTH",
"471 83 OFFCURVE",
"429 125 OFFCURVE",
"429 189 CURVE SMOOTH",
"429 468 LINE",
"351 468 LINE",
"351 188 LINE SMOOTH",
"351 122 OFFCURVE",
"302 83 OFFCURVE",
"239 83 CURVE SMOOTH",
"182 83 OFFCURVE",
"136 119 OFFCURVE",
"136 187 CURVE SMOOTH",
"136 252 OFFCURVE",
"180 288 OFFCURVE",
"237 288 CURVE SMOOTH",
"241 288 OFFCURVE",
"244 288 OFFCURVE",
"251 287 CURVE",
"258 354 LINE",
"251 355 OFFCURVE",
"241 356 OFFCURVE",
"229 356 CURVE SMOOTH",
"141 356 OFFCURVE",
"56 299 OFFCURVE",
"56 187 CURVE SMOOTH"
);
},
{
closed = 1;
nodes = (
"634 660 OFFCURVE",
"652 646 OFFCURVE",
"674 646 CURVE SMOOTH",
"695 646 OFFCURVE",
"713 660 OFFCURVE",
"713 689 CURVE SMOOTH",
"713 719 OFFCURVE",
"695 732 OFFCURVE",
"674 732 CURVE SMOOTH",
"652 732 OFFCURVE",
"634 719 OFFCURVE",
"634 689 CURVE SMOOTH"
);
}
);
width = 894;
}
);
unicode = 11D98;
category = Symbol;
},
{
glyphname = Zero.GGondi;
lastChange = "2019-10-04 20:07:41 +0000";
layers = (
{
background = {
paths = (
{
closed = 1;
nodes = (
"60 109 OFFCURVE",
"143 14 OFFCURVE",
"281 15 CURVE SMOOTH",
"418 16 OFFCURVE",
"511 98 OFFCURVE",
"511 282 CURVE SMOOTH",
"511 475 OFFCURVE",
"413 566 OFFCURVE",
"285 566 CURVE SMOOTH",
"154 566 OFFCURVE",
"60 475 OFFCURVE",
"60 286 CURVE SMOOTH"
);
},
{
closed = 1;
nodes = (
"140 408 OFFCURVE",
"192 496 OFFCURVE",
"283 496 CURVE SMOOTH",
"378 496 OFFCURVE",
"431 417 OFFCURVE",
"431 285 CURVE SMOOTH",
"431 152 OFFCURVE",
"380 85 OFFCURVE",
"288 85 CURVE SMOOTH",
"194 84 OFFCURVE",
"140 149 OFFCURVE",
"140 287 CURVE SMOOTH"
);
}
);
};
layerId = "1D9335A4-69BC-4202-817B-D13DAA30F854";
paths = (
{
closed = 1;
nodes = (
"60 109 OFFCURVE",
"143 14 OFFCURVE",
"281 15 CURVE SMOOTH",
"418 16 OFFCURVE",
"511 98 OFFCURVE",
"511 282 CURVE SMOOTH",
"511 475 OFFCURVE",
"413 566 OFFCURVE",
"285 566 CURVE SMOOTH",
"154 566 OFFCURVE",
"60 475 OFFCURVE",
"60 286 CURVE SMOOTH"
);
},
{
closed = 1;
nodes = (
"140 408 OFFCURVE",
"192 496 OFFCURVE",
"283 496 CURVE SMOOTH",
"378 496 OFFCURVE",
"431 417 OFFCURVE",
"431 285 CURVE SMOOTH",
"431 152 OFFCURVE",
"380 85 OFFCURVE",
"288 85 CURVE SMOOTH",
"194 84 OFFCURVE",
"140 149 OFFCURVE",
"140 287 CURVE SMOOTH"
);
}
);
width = 571;
}
);
unicode = 11DA0;
category = Number;
},
{
glyphname = One.GGondi;
lastChange = "2019-10-04 20:07:41 +0000";
layers = (
{
background = {
paths = (
{
closed = 1;
nodes = (
"50 67 OFFCURVE",
"124 14 OFFCURVE",
"217 14 CURVE SMOOTH",
"313 14 OFFCURVE",
"385 70 OFFCURVE",
"385 174 CURVE SMOOTH",
"385 562 LINE",
"307 562 LINE",
"307 294 LINE",
"283 313 OFFCURVE",
"252 323 OFFCURVE",
"211 323 CURVE SMOOTH",
"123 323 OFFCURVE",
"50 263 OFFCURVE",
"50 170 CURVE SMOOTH"
);
},
{
closed = 1;
nodes = (
"128 220 OFFCURVE",
"169 257 OFFCURVE",
"220 257 CURVE SMOOTH",
"259 257 OFFCURVE",
"289 240 OFFCURVE",
"307 217 CURVE",
"307 162 LINE SMOOTH",
"307 112 OFFCURVE",
"269 80 OFFCURVE",
"217 80 CURVE SMOOTH",
"163 80 OFFCURVE",
"128 118 OFFCURVE",
"128 167 CURVE SMOOTH"
);
}
);
};
layerId = "1D9335A4-69BC-4202-817B-D13DAA30F854";
paths = (
{
closed = 1;
nodes = (
"50 67 OFFCURVE",
"124 14 OFFCURVE",
"217 14 CURVE SMOOTH",
"313 14 OFFCURVE",
"385 70 OFFCURVE",
"385 174 CURVE SMOOTH",
"385 562 LINE",
"307 562 LINE",
"307 294 LINE",
"283 313 OFFCURVE",
"252 323 OFFCURVE",
"211 323 CURVE SMOOTH",
"123 323 OFFCURVE",
"50 263 OFFCURVE",
"50 170 CURVE SMOOTH"
);
},
{
closed = 1;
nodes = (
"128 220 OFFCURVE",
"169 257 OFFCURVE",
"220 257 CURVE SMOOTH",
"259 257 OFFCURVE",
"289 240 OFFCURVE",
"307 217 CURVE",
"307 162 LINE SMOOTH",
"307 112 OFFCURVE",
"269 80 OFFCURVE",
"217 80 CURVE SMOOTH",
"163 80 OFFCURVE",
"128 118 OFFCURVE",
"128 167 CURVE SMOOTH"
);
}
);
width = 465;
}
);
unicode = 11DA1;
category = Number;
},
{
glyphname = Two.GGondi;
lastChange = "2019-10-04 20:07:41 +0000";
layers = (
{
background = {
paths = (
{
closed = 1;
nodes = (
"50 76 OFFCURVE",
"133 15 OFFCURVE",
"266 15 CURVE SMOOTH",
"423 15 OFFCURVE",
"527 107 OFFCURVE",
"527 264 CURVE SMOOTH",
"527 374 OFFCURVE",
"484 455 OFFCURVE",
"428 493 CURVE",
"509 493 LINE SMOOTH",
"590 493 OFFCURVE",
"642 450 OFFCURVE",
"642 359 CURVE",
"722 359 LINE",
"722 501 OFFCURVE",
"635 561 OFFCURVE",
"509 561 CURVE SMOOTH",
"245 561 LINE",
"245 493 LINE",
"285 493 LINE",
"362 484 OFFCURVE",
"447 413 OFFCURVE",
"447 272 CURVE SMOOTH",
"447 153 OFFCURVE",
"371 78 OFFCURVE",
"272 78 CURVE SMOOTH",
"247 79 LINE",
"275 96 OFFCURVE",
"300 133 OFFCURVE",
"300 185 CURVE SMOOTH",
"300 250 OFFCURVE",
"243 292 OFFCURVE",
"175 292 CURVE SMOOTH",
"101 292 OFFCURVE",
"50 247 OFFCURVE",
"50 174 CURVE SMOOTH"
);
},
{
closed = 1;
nodes = (
"125 203 OFFCURVE",
"145 230 OFFCURVE",
"177 230 CURVE SMOOTH",
"210 230 OFFCURVE",
"231 208 OFFCURVE",
"231 174 CURVE SMOOTH",
"231 131 OFFCURVE",
"207 105 OFFCURVE",
"183 94 CURVE",
"143 107 OFFCURVE",
"125 143 OFFCURVE",
"125 174 CURVE SMOOTH"
);
}
);
};
layerId = "1D9335A4-69BC-4202-817B-D13DAA30F854";
paths = (
{
closed = 1;
nodes = (
"50 76 OFFCURVE",
"133 15 OFFCURVE",
"266 15 CURVE SMOOTH",
"423 15 OFFCURVE",
"527 107 OFFCURVE",
"527 264 CURVE SMOOTH",
"527 374 OFFCURVE",
"484 455 OFFCURVE",
"428 493 CURVE",
"509 493 LINE SMOOTH",
"590 493 OFFCURVE",
"642 450 OFFCURVE",
"642 359 CURVE",
"722 359 LINE",
"722 501 OFFCURVE",
"635 561 OFFCURVE",
"509 561 CURVE SMOOTH",
"245 561 LINE",
"245 493 LINE",
"285 493 LINE",
"362 484 OFFCURVE",
"447 413 OFFCURVE",
"447 272 CURVE SMOOTH",
"447 153 OFFCURVE",
"371 78 OFFCURVE",
"272 78 CURVE SMOOTH",
"247 79 LINE",
"275 96 OFFCURVE",
"300 133 OFFCURVE",
"300 185 CURVE SMOOTH",
"300 250 OFFCURVE",
"243 292 OFFCURVE",
"175 292 CURVE SMOOTH",
"101 292 OFFCURVE",
"50 247 OFFCURVE",
"50 174 CURVE SMOOTH"
);
},
{
closed = 1;
nodes = (
"125 203 OFFCURVE",
"145 230 OFFCURVE",
"177 230 CURVE SMOOTH",
"210 230 OFFCURVE",
"231 208 OFFCURVE",
"231 174 CURVE SMOOTH",
"231 131 OFFCURVE",
"207 105 OFFCURVE",
"183 94 CURVE",
"143 107 OFFCURVE",
"125 143 OFFCURVE",
"125 174 CURVE SMOOTH"
);
}
);
width = 752;
}
);
unicode = 11DA2;
category = Number;
},
{
glyphname = Three.GGondi;
lastChange = "2019-10-04 20:07:41 +0000";
layers = (
{
background = {
paths = (
{
closed = 1;
nodes = (
"60 60 OFFCURVE",
"128 13 OFFCURVE",
"224 13 CURVE SMOOTH",
"356 13 OFFCURVE",
"481 106 OFFCURVE",
"481 286 CURVE SMOOTH",
"481 483 OFFCURVE",
"342 566 OFFCURVE",
"226 566 CURVE SMOOTH",
"133 566 OFFCURVE",
"66 515 OFFCURVE",
"66 436 CURVE SMOOTH",
"66 371 OFFCURVE",
"116 324 OFFCURVE",
"194 324 CURVE SMOOTH",
"271 324 OFFCURVE",
"324 372 OFFCURVE",
"330 462 CURVE",
"373 426 OFFCURVE",
"401 368 OFFCURVE",
"401 286 CURVE SMOOTH",
"401 204 OFFCURVE",
"368 149 OFFCURVE",
"331 116 CURVE",
"321 205 OFFCURVE",
"259 254 OFFCURVE",
"189 254 CURVE SMOOTH",
"113 254 OFFCURVE",
"60 209 OFFCURVE",
"60 138 CURVE SMOOTH"
);
},
{
closed = 1;
nodes = (
"138 164 OFFCURVE",
"155 188 OFFCURVE",
"192 188 CURVE SMOOTH",
"231 188 OFFCURVE",
"265 154 OFFCURVE",
"265 87 CURVE SMOOTH",
"265 85 LINE",
"255 81 OFFCURVE",
"242 78 OFFCURVE",
"227 78 CURVE SMOOTH",
"176 78 OFFCURVE",
"138 99 OFFCURVE",
"138 138 CURVE SMOOTH"
);
},
{
closed = 1;
nodes = (
"144 479 OFFCURVE",
"177 500 OFFCURVE",
"222 500 CURVE SMOOTH",
"239 500 OFFCURVE",
"254 497 OFFCURVE",
"266 493 CURVE",
"266 472 LINE SMOOTH",
"266 424 OFFCURVE",
"239 391 OFFCURVE",
"197 391 CURVE SMOOTH",
"165 391 OFFCURVE",
"144 410 OFFCURVE",
"144 439 CURVE SMOOTH"
);
}
);
};
layerId = "1D9335A4-69BC-4202-817B-D13DAA30F854";
paths = (
{
closed = 1;
nodes = (
"60 60 OFFCURVE",
"128 13 OFFCURVE",
"224 13 CURVE SMOOTH",
"356 13 OFFCURVE",
"481 106 OFFCURVE",
"481 286 CURVE SMOOTH",
"481 483 OFFCURVE",
"342 566 OFFCURVE",
"226 566 CURVE SMOOTH",
"133 566 OFFCURVE",
"66 515 OFFCURVE",
"66 436 CURVE SMOOTH",
"66 371 OFFCURVE",
"116 324 OFFCURVE",
"194 324 CURVE SMOOTH",
"271 324 OFFCURVE",
"324 372 OFFCURVE",
"330 462 CURVE",
"373 426 OFFCURVE",
"401 368 OFFCURVE",
"401 286 CURVE SMOOTH",
"401 204 OFFCURVE",
"368 149 OFFCURVE",
"331 116 CURVE",
"321 205 OFFCURVE",
"259 254 OFFCURVE",
"189 254 CURVE SMOOTH",
"113 254 OFFCURVE",
"60 209 OFFCURVE",
"60 138 CURVE SMOOTH"
);
},
{
closed = 1;
nodes = (
"138 164 OFFCURVE",
"155 188 OFFCURVE",
"192 188 CURVE SMOOTH",
"231 188 OFFCURVE",
"265 154 OFFCURVE",
"265 87 CURVE SMOOTH",
"265 85 LINE",
"255 81 OFFCURVE",
"242 78 OFFCURVE",
"227 78 CURVE SMOOTH",
"176 78 OFFCURVE",
"138 99 OFFCURVE",
"138 138 CURVE SMOOTH"
);
},
{
closed = 1;
nodes = (
"144 479 OFFCURVE",
"177 500 OFFCURVE",
"222 500 CURVE SMOOTH",
"239 500 OFFCURVE",
"254 497 OFFCURVE",
"266 493 CURVE",
"266 472 LINE SMOOTH",
"266 424 OFFCURVE",
"239 391 OFFCURVE",
"197 391 CURVE SMOOTH",
"165 391 OFFCURVE",
"144 410 OFFCURVE",
"144 439 CURVE SMOOTH"
);
}
);
width = 541;
}
);
unicode = 11DA3;
category = Number;
},
{
glyphname = Four.GGondi;
lastChange = "2019-10-04 20:07:41 +0000";
layers = (
{
background = {
paths = (
{
closed = 1;
nodes = (
"60 60 OFFCURVE",
"126 13 OFFCURVE",
"218 13 CURVE SMOOTH",
"295 13 OFFCURVE",
"350 39 OFFCURVE",
"389 79 CURVE",
"443 35 OFFCURVE",
"487 11 OFFCURVE",
"556 11 CURVE SMOOTH",
"593 11 OFFCURVE",
"625 20 OFFCURVE",
"647 35 CURVE",
"625 94 LINE",
"608 86 OFFCURVE",
"590 80 OFFCURVE",
"564 80 CURVE SMOOTH",
"523 80 OFFCURVE",
"484 91 OFFCURVE",
"431 128 CURVE",
"461 174 OFFCURVE",
"481 230 OFFCURVE",
"481 301 CURVE SMOOTH",
"481 487 OFFCURVE",
"360 566 OFFCURVE",
"251 566 CURVE SMOOTH",
"160 566 OFFCURVE",
"93 515 OFFCURVE",
"93 436 CURVE SMOOTH",
"93 371 OFFCURVE",
"144 324 OFFCURVE",
"224 324 CURVE SMOOTH",
"298 324 OFFCURVE",
"349 368 OFFCURVE",
"359 451 CURVE",
"388 418 OFFCURVE",
"401 369 OFFCURVE",
"401 301 CURVE SMOOTH",
"401 256 OFFCURVE",
"388 214 OFFCURVE",
"369 178 CURVE",
"333 212 OFFCURVE",
"285 254 OFFCURVE",
"202 254 CURVE SMOOTH",
"118 254 OFFCURVE",
"60 200 OFFCURVE",
"60 138 CURVE SMOOTH"
);
},
{
closed = 1;
nodes = (
"138 164 OFFCURVE",
"159 188 OFFCURVE",
"205 188 CURVE SMOOTH",
"251 188 OFFCURVE",
"294 160 OFFCURVE",
"331 124 CURVE",
"309 93 OFFCURVE",
"263 78 OFFCURVE",
"227 78 CURVE SMOOTH",
"176 78 OFFCURVE",
"138 99 OFFCURVE",
"138 138 CURVE SMOOTH"
);
},
{
closed = 1;
nodes = (
"171 479 OFFCURVE",
"205 500 OFFCURVE",
"252 500 CURVE SMOOTH",
"266 500 OFFCURVE",
"283 496 OFFCURVE",
"296 492 CURVE",
"296 472 LINE SMOOTH",
"296 424 OFFCURVE",
"269 391 OFFCURVE",
"227 391 CURVE SMOOTH",
"193 391 OFFCURVE",
"171 410 OFFCURVE",
"171 439 CURVE SMOOTH"
);
}
);
};
layerId = "1D9335A4-69BC-4202-817B-D13DAA30F854";
paths = (
{
closed = 1;
nodes = (
"60 60 OFFCURVE",
"126 13 OFFCURVE",
"218 13 CURVE SMOOTH",
"295 13 OFFCURVE",
"350 39 OFFCURVE",
"389 79 CURVE",
"443 35 OFFCURVE",
"487 11 OFFCURVE",
"556 11 CURVE SMOOTH",
"593 11 OFFCURVE",
"625 20 OFFCURVE",
"647 35 CURVE",
"625 94 LINE",
"608 86 OFFCURVE",
"590 80 OFFCURVE",
"564 80 CURVE SMOOTH",
"523 80 OFFCURVE",
"484 91 OFFCURVE",
"431 128 CURVE",
"461 174 OFFCURVE",
"481 230 OFFCURVE",
"481 301 CURVE SMOOTH",
"481 487 OFFCURVE",
"360 566 OFFCURVE",
"251 566 CURVE SMOOTH",
"160 566 OFFCURVE",
"93 515 OFFCURVE",
"93 436 CURVE SMOOTH",
"93 371 OFFCURVE",
"144 324 OFFCURVE",
"224 324 CURVE SMOOTH",
"298 324 OFFCURVE",
"349 368 OFFCURVE",
"359 451 CURVE",
"388 418 OFFCURVE",
"401 369 OFFCURVE",
"401 301 CURVE SMOOTH",
"401 256 OFFCURVE",
"388 214 OFFCURVE",
"369 178 CURVE",
"333 212 OFFCURVE",
"285 254 OFFCURVE",
"202 254 CURVE SMOOTH",
"118 254 OFFCURVE",
"60 200 OFFCURVE",
"60 138 CURVE SMOOTH"
);
},
{
closed = 1;
nodes = (
"138 164 OFFCURVE",
"159 188 OFFCURVE",
"205 188 CURVE SMOOTH",
"251 188 OFFCURVE",
"294 160 OFFCURVE",
"331 124 CURVE",
"309 93 OFFCURVE",
"263 78 OFFCURVE",
"227 78 CURVE SMOOTH",
"176 78 OFFCURVE",
"138 99 OFFCURVE",
"138 138 CURVE SMOOTH"
);
},
{
closed = 1;
nodes = (
"171 479 OFFCURVE",
"205 500 OFFCURVE",
"252 500 CURVE SMOOTH",
"266 500 OFFCURVE",
"283 496 OFFCURVE",
"296 492 CURVE",
"296 472 LINE SMOOTH",
"296 424 OFFCURVE",
"269 391 OFFCURVE",
"227 391 CURVE SMOOTH",
"193 391 OFFCURVE",
"171 410 OFFCURVE",
"171 439 CURVE SMOOTH"
);
}
);
width = 657;
}
);
unicode = 11DA4;
category = Number;
},
{
glyphname = Five.GGondi;
lastChange = "2019-10-04 20:07:41 +0000";
layers = (
{
background = {
paths = (
{
closed = 1;
nodes = (
"46 411 OFFCURVE",
"104 358 OFFCURVE",
"211 325 CURVE SMOOTH",
"309 295 OFFCURVE",
"323 280 OFFCURVE",
"323 250 CURVE SMOOTH",
"323 228 OFFCURVE",
"301 214 OFFCURVE",
"264 214 CURVE SMOOTH",
"125 214 LINE",
"125 150 LINE",
"262 150 LINE SMOOTH",
"295 150 OFFCURVE",
"324 131 OFFCURVE",
"324 93 CURVE SMOOTH",
"324 54 OFFCURVE",
"286 30 OFFCURVE",
"233 30 CURVE SMOOTH",
"179 30 OFFCURVE",
"141 44 OFFCURVE",
"101 68 CURVE",
"69 8 LINE",
"107 -18 OFFCURVE",
"161 -38 OFFCURVE",
"234 -38 CURVE SMOOTH",
"341 -38 OFFCURVE",
"402 13 OFFCURVE",
"402 84 CURVE SMOOTH",
"402 132 OFFCURVE",
"373 161 OFFCURVE",
"348 175 CURVE",
"376 187 OFFCURVE",
"401 213 OFFCURVE",
"401 254 CURVE SMOOTH",
"401 310 OFFCURVE",
"354 350 OFFCURVE",
"259 380 CURVE SMOOTH",
"157 412 OFFCURVE",
"125 439 OFFCURVE",
"118 475 CURVE",
"151 450 OFFCURVE",
"196 435 OFFCURVE",
"245 435 CURVE SMOOTH",
"328 435 OFFCURVE",
"388 480 OFFCURVE",
"388 544 CURVE SMOOTH",
"388 603 OFFCURVE",
"324 656 OFFCURVE",
"231 656 CURVE SMOOTH",
"114 656 OFFCURVE",
"46 587 OFFCURVE",
"46 497 CURVE SMOOTH"
);
},
{
closed = 1;
nodes = (
"147 572 OFFCURVE",
"186 595 OFFCURVE",
"233 595 CURVE SMOOTH",
"270 595 OFFCURVE",
"310 576 OFFCURVE",
"310 543 CURVE SMOOTH",
"310 516 OFFCURVE",
"282 496 OFFCURVE",
"234 496 CURVE SMOOTH",
"214 496 OFFCURVE",
"164 505 OFFCURVE",
"128 537 CURVE"
);
}
);
};
layerId = "1D9335A4-69BC-4202-817B-D13DAA30F854";
paths = (
{
closed = 1;
nodes = (
"46 411 OFFCURVE",
"104 358 OFFCURVE",
"211 325 CURVE SMOOTH",
"309 295 OFFCURVE",
"323 280 OFFCURVE",
"323 250 CURVE SMOOTH",
"323 228 OFFCURVE",
"301 214 OFFCURVE",
"264 214 CURVE SMOOTH",
"125 214 LINE",
"125 150 LINE",
"262 150 LINE SMOOTH",
"295 150 OFFCURVE",
"324 131 OFFCURVE",
"324 93 CURVE SMOOTH",
"324 54 OFFCURVE",
"286 30 OFFCURVE",
"233 30 CURVE SMOOTH",
"179 30 OFFCURVE",
"141 44 OFFCURVE",
"101 68 CURVE",
"69 8 LINE",
"107 -18 OFFCURVE",
"161 -38 OFFCURVE",
"234 -38 CURVE SMOOTH",
"341 -38 OFFCURVE",
"402 13 OFFCURVE",
"402 84 CURVE SMOOTH",
"402 132 OFFCURVE",
"373 161 OFFCURVE",
"348 175 CURVE",
"376 187 OFFCURVE",
"401 213 OFFCURVE",
"401 254 CURVE SMOOTH",
"401 310 OFFCURVE",
"354 350 OFFCURVE",
"259 380 CURVE SMOOTH",
"157 412 OFFCURVE",
"125 439 OFFCURVE",
"118 475 CURVE",
"151 450 OFFCURVE",
"196 435 OFFCURVE",
"245 435 CURVE SMOOTH",
"328 435 OFFCURVE",
"388 480 OFFCURVE",
"388 544 CURVE SMOOTH",
"388 603 OFFCURVE",
"324 656 OFFCURVE",
"231 656 CURVE SMOOTH",
"114 656 OFFCURVE",
"46 587 OFFCURVE",
"46 497 CURVE SMOOTH"
);
},
{
closed = 1;
nodes = (
"147 572 OFFCURVE",
"186 595 OFFCURVE",
"233 595 CURVE SMOOTH",
"270 595 OFFCURVE",
"310 576 OFFCURVE",
"310 543 CURVE SMOOTH",
"310 516 OFFCURVE",
"282 496 OFFCURVE",
"234 496 CURVE SMOOTH",
"214 496 OFFCURVE",
"164 505 OFFCURVE",
"128 537 CURVE"
);
}
);
width = 462;
}
);
unicode = 11DA5;
category = Number;
},
{
glyphname = Six.GGondi;
lastChange = "2019-10-04 20:07:41 +0000";
layers = (
{
background = {
paths = (
{
closed = 1;
nodes = (
"60 106 OFFCURVE",
"185 13 OFFCURVE",
"317 13 CURVE SMOOTH",
"413 13 OFFCURVE",
"481 60 OFFCURVE",
"481 138 CURVE SMOOTH",
"481 209 OFFCURVE",
"428 254 OFFCURVE",
"352 254 CURVE SMOOTH",
"282 254 OFFCURVE",
"220 205 OFFCURVE",
"210 116 CURVE",
"173 149 OFFCURVE",
"140 204 OFFCURVE",
"140 286 CURVE SMOOTH",
"140 368 OFFCURVE",
"168 426 OFFCURVE",
"211 462 CURVE",
"217 372 OFFCURVE",
"270 324 OFFCURVE",
"347 324 CURVE SMOOTH",
"425 324 OFFCURVE",
"475 371 OFFCURVE",
"475 436 CURVE SMOOTH",
"475 515 OFFCURVE",
"408 566 OFFCURVE",
"315 566 CURVE SMOOTH",
"199 566 OFFCURVE",
"60 483 OFFCURVE",
"60 286 CURVE SMOOTH"
);
},
{
closed = 1;
nodes = (
"275 493 LINE",
"287 497 OFFCURVE",
"302 500 OFFCURVE",
"319 500 CURVE SMOOTH",
"364 500 OFFCURVE",
"397 479 OFFCURVE",
"397 439 CURVE SMOOTH",
"397 410 OFFCURVE",
"376 391 OFFCURVE",
"344 391 CURVE SMOOTH",
"302 391 OFFCURVE",
"275 424 OFFCURVE",
"275 472 CURVE SMOOTH"
);
},
{
closed = 1;
nodes = (
"276 87 LINE SMOOTH",
"276 154 OFFCURVE",
"310 188 OFFCURVE",
"349 188 CURVE SMOOTH",
"386 188 OFFCURVE",
"403 164 OFFCURVE",
"403 138 CURVE SMOOTH",
"403 99 OFFCURVE",
"365 78 OFFCURVE",
"314 78 CURVE SMOOTH",
"299 78 OFFCURVE",
"286 81 OFFCURVE",
"276 85 CURVE"
);
}
);
};
layerId = "1D9335A4-69BC-4202-817B-D13DAA30F854";
paths = (
{
closed = 1;
nodes = (
"60 106 OFFCURVE",
"185 13 OFFCURVE",
"317 13 CURVE SMOOTH",
"413 13 OFFCURVE",
"481 60 OFFCURVE",
"481 138 CURVE SMOOTH",
"481 209 OFFCURVE",
"428 254 OFFCURVE",
"352 254 CURVE SMOOTH",
"282 254 OFFCURVE",
"220 205 OFFCURVE",
"210 116 CURVE",
"173 149 OFFCURVE",
"140 204 OFFCURVE",
"140 286 CURVE SMOOTH",
"140 368 OFFCURVE",
"168 426 OFFCURVE",
"211 462 CURVE",
"217 372 OFFCURVE",
"270 324 OFFCURVE",
"347 324 CURVE SMOOTH",
"425 324 OFFCURVE",
"475 371 OFFCURVE",
"475 436 CURVE SMOOTH",
"475 515 OFFCURVE",
"408 566 OFFCURVE",
"315 566 CURVE SMOOTH",
"199 566 OFFCURVE",
"60 483 OFFCURVE",
"60 286 CURVE SMOOTH"
);
},
{
closed = 1;
nodes = (
"275 493 LINE",
"287 497 OFFCURVE",
"302 500 OFFCURVE",
"319 500 CURVE SMOOTH",
"364 500 OFFCURVE",
"397 479 OFFCURVE",
"397 439 CURVE SMOOTH",
"397 410 OFFCURVE",
"376 391 OFFCURVE",
"344 391 CURVE SMOOTH",
"302 391 OFFCURVE",
"275 424 OFFCURVE",
"275 472 CURVE SMOOTH"
);
},
{
closed = 1;
nodes = (
"276 87 LINE SMOOTH",
"276 154 OFFCURVE",
"310 188 OFFCURVE",
"349 188 CURVE SMOOTH",
"386 188 OFFCURVE",
"403 164 OFFCURVE",
"403 138 CURVE SMOOTH",
"403 99 OFFCURVE",
"365 78 OFFCURVE",
"314 78 CURVE SMOOTH",
"299 78 OFFCURVE",
"286 81 OFFCURVE",
"276 85 CURVE"
);
}
);
width = 541;
}
);
unicode = 11DA6;
category = Number;
},
{
glyphname = Seven.GGondi;
lastChange = "2019-10-04 20:07:41 +0000";
layers = (
{
background = {
paths = (
{
closed = 1;
nodes = (
"102 493 LINE SMOOTH",
"265 493 OFFCURVE",
"365 431 OFFCURVE",
"401 306 CURVE",
"375 335 OFFCURVE",
"336 352 OFFCURVE",
"287 352 CURVE SMOOTH",
"187 352 OFFCURVE",
"116 287 OFFCURVE",
"116 183 CURVE SMOOTH",
"116 72 OFFCURVE",
"201 13 OFFCURVE",
"297 13 CURVE SMOOTH",
"404 13 OFFCURVE",
"482 78 OFFCURVE",
"482 215 CURVE SMOOTH",
"482 441 OFFCURVE",
"332 561 OFFCURVE",
"102 561 CURVE SMOOTH",
"10 561 LINE",
"10 493 LINE"
);
},
{
closed = 1;
nodes = (
"196 243 OFFCURVE",
"237 282 OFFCURVE",
"292 282 CURVE SMOOTH",
"347 282 OFFCURVE",
"376 262 OFFCURVE",
"399 230 CURVE",
"401 220 OFFCURVE",
"402 210 OFFCURVE",
"402 201 CURVE SMOOTH",
"402 115 OFFCURVE",
"357 83 OFFCURVE",
"298 83 CURVE SMOOTH",
"244 83 OFFCURVE",
"196 120 OFFCURVE",
"196 181 CURVE SMOOTH"
);
}
);
};
layerId = "1D9335A4-69BC-4202-817B-D13DAA30F854";
paths = (
{
closed = 1;
nodes = (
"102 493 LINE SMOOTH",
"265 493 OFFCURVE",
"365 431 OFFCURVE",
"401 306 CURVE",
"375 335 OFFCURVE",
"336 352 OFFCURVE",
"287 352 CURVE SMOOTH",
"187 352 OFFCURVE",
"116 287 OFFCURVE",
"116 183 CURVE SMOOTH",
"116 72 OFFCURVE",
"201 13 OFFCURVE",
"297 13 CURVE SMOOTH",
"404 13 OFFCURVE",
"482 78 OFFCURVE",
"482 215 CURVE SMOOTH",
"482 441 OFFCURVE",
"332 561 OFFCURVE",
"102 561 CURVE SMOOTH",
"10 561 LINE",
"10 493 LINE"
);
},
{
closed = 1;
nodes = (
"196 243 OFFCURVE",
"237 282 OFFCURVE",
"292 282 CURVE SMOOTH",
"347 282 OFFCURVE",
"376 262 OFFCURVE",
"399 230 CURVE",
"401 220 OFFCURVE",
"402 210 OFFCURVE",
"402 201 CURVE SMOOTH",
"402 115 OFFCURVE",
"357 83 OFFCURVE",
"298 83 CURVE SMOOTH",
"244 83 OFFCURVE",
"196 120 OFFCURVE",
"196 181 CURVE SMOOTH"
);
}
);
width = 542;
}
);
unicode = 11DA7;
category = Number;
},
{
glyphname = Eight.GGondi;
lastChange = "2019-10-04 20:07:41 +0000";
layers = (
{
background = {
paths = (
{
closed = 1;
nodes = (
"50 71 OFFCURVE",
"113 13 OFFCURVE",
"202 13 CURVE SMOOTH",
"299 13 OFFCURVE",
"360 69 OFFCURVE",
"360 147 CURVE SMOOTH",
"360 187 OFFCURVE",
"341 217 OFFCURVE",
"319 237 CURVE",
"413 245 OFFCURVE",
"472 303 OFFCURVE",
"472 388 CURVE SMOOTH",
"472 439 OFFCURVE",
"449 474 OFFCURVE",
"423 493 CURVE",
"574 493 LINE",
"575 493 LINE",
"562 473 OFFCURVE",
"552 447 OFFCURVE",
"552 423 CURVE SMOOTH",
"552 353 OFFCURVE",
"604 307 OFFCURVE",
"691 307 CURVE SMOOTH",
"769 307 OFFCURVE",
"824 355 OFFCURVE",
"824 432 CURVE SMOOTH",
"824 512 OFFCURVE",
"756 561 OFFCURVE",
"647 561 CURVE SMOOTH",
"250 561 LINE",
"250 493 LINE",
"300 493 LINE SMOOTH",
"361 493 OFFCURVE",
"392 445 OFFCURVE",
"392 396 CURVE SMOOTH",
"392 346 OFFCURVE",
"361 300 OFFCURVE",
"296 300 CURVE SMOOTH",
"211 300 LINE SMOOTH",
"113 300 OFFCURVE",
"50 242 OFFCURVE",
"50 157 CURVE SMOOTH"
);
},
{
closed = 1;
nodes = (
"125 200 OFFCURVE",
"157 234 OFFCURVE",
"210 234 CURVE SMOOTH",
"245 234 LINE",
"268 214 OFFCURVE",
"285 185 OFFCURVE",
"285 156 CURVE SMOOTH",
"285 109 OFFCURVE",
"254 79 OFFCURVE",
"206 79 CURVE SMOOTH",
"158 79 OFFCURVE",
"125 109 OFFCURVE",
"125 157 CURVE SMOOTH"
);
},
{
closed = 1;
nodes = (
"625 463 OFFCURVE",
"640 482 OFFCURVE",
"654 493 CURVE",
"687 493 LINE SMOOTH",
"718 493 OFFCURVE",
"749 470 OFFCURVE",
"749 432 CURVE SMOOTH",
"749 399 OFFCURVE",
"727 369 OFFCURVE",
"691 369 CURVE SMOOTH",
"651 369 OFFCURVE",
"625 393 OFFCURVE",
"625 431 CURVE SMOOTH"
);
}
);
};
layerId = "1D9335A4-69BC-4202-817B-D13DAA30F854";
paths = (
{
closed = 1;
nodes = (
"50 71 OFFCURVE",
"113 13 OFFCURVE",
"202 13 CURVE SMOOTH",
"299 13 OFFCURVE",
"360 69 OFFCURVE",
"360 147 CURVE SMOOTH",
"360 187 OFFCURVE",
"341 217 OFFCURVE",
"319 237 CURVE",
"413 245 OFFCURVE",
"472 303 OFFCURVE",
"472 388 CURVE SMOOTH",
"472 439 OFFCURVE",
"449 474 OFFCURVE",
"423 493 CURVE",
"574 493 LINE",
"575 493 LINE",
"562 473 OFFCURVE",
"552 447 OFFCURVE",
"552 423 CURVE SMOOTH",
"552 353 OFFCURVE",
"604 307 OFFCURVE",
"691 307 CURVE SMOOTH",
"769 307 OFFCURVE",
"824 355 OFFCURVE",
"824 432 CURVE SMOOTH",
"824 512 OFFCURVE",
"756 561 OFFCURVE",
"647 561 CURVE SMOOTH",
"250 561 LINE",
"250 493 LINE",
"300 493 LINE SMOOTH",
"361 493 OFFCURVE",
"392 445 OFFCURVE",
"392 396 CURVE SMOOTH",
"392 346 OFFCURVE",
"361 300 OFFCURVE",
"296 300 CURVE SMOOTH",
"211 300 LINE SMOOTH",
"113 300 OFFCURVE",
"50 242 OFFCURVE",
"50 157 CURVE SMOOTH"
);
},
{
closed = 1;
nodes = (
"125 200 OFFCURVE",
"157 234 OFFCURVE",
"210 234 CURVE SMOOTH",
"245 234 LINE",
"268 214 OFFCURVE",
"285 185 OFFCURVE",
"285 156 CURVE SMOOTH",
"285 109 OFFCURVE",
"254 79 OFFCURVE",
"206 79 CURVE SMOOTH",
"158 79 OFFCURVE",
"125 109 OFFCURVE",
"125 157 CURVE SMOOTH"
);
},
{
closed = 1;
nodes = (
"625 463 OFFCURVE",
"640 482 OFFCURVE",
"654 493 CURVE",
"687 493 LINE SMOOTH",
"718 493 OFFCURVE",
"749 470 OFFCURVE",
"749 432 CURVE SMOOTH",
"749 399 OFFCURVE",
"727 369 OFFCURVE",
"691 369 CURVE SMOOTH",
"651 369 OFFCURVE",
"625 393 OFFCURVE",
"625 431 CURVE SMOOTH"
);
}
);
width = 844;
}
);
unicode = 11DA8;
category = Number;
},
{
glyphname = Nine.GGondi;
lastChange = "2019-10-04 20:07:41 +0000";
layers = (
{
background = {
paths = (
{
closed = 1;
nodes = (
"74 56 OFFCURVE",
"144 13 OFFCURVE",
"232 13 CURVE SMOOTH",
"306 13 OFFCURVE",
"360 33 OFFCURVE",
"397 69 CURVE",
"444 38 OFFCURVE",
"474 22 OFFCURVE",
"523 22 CURVE SMOOTH",
"544 22 OFFCURVE",
"556 26 OFFCURVE",
"568 32 CURVE",
"558 92 LINE",
"551 89 OFFCURVE",
"538 87 OFFCURVE",
"528 87 CURVE SMOOTH",
"499 87 OFFCURVE",
"470 95 OFFCURVE",
"432 122 CURVE",
"438 137 OFFCURVE",
"442 155 OFFCURVE",
"442 180 CURVE SMOOTH",
"442 265 OFFCURVE",
"377 330 OFFCURVE",
"256 379 CURVE SMOOTH",
"203 402 OFFCURVE",
"167 427 OFFCURVE",
"154 472 CURVE",
"186 449 OFFCURVE",
"229 435 OFFCURVE",
"276 435 CURVE SMOOTH",
"353 435 OFFCURVE",
"409 480 OFFCURVE",
"409 544 CURVE SMOOTH",
"409 602 OFFCURVE",
"351 656 OFFCURVE",
"262 656 CURVE SMOOTH",
"145 656 OFFCURVE",
"77 587 OFFCURVE",
"77 497 CURVE SMOOTH",
"77 408 OFFCURVE",
"136 361 OFFCURVE",
"225 320 CURVE SMOOTH",
"323 278 OFFCURVE",
"364 233 OFFCURVE",
"364 176 CURVE",
"365 171 LINE",
"322 204 OFFCURVE",
"268 241 OFFCURVE",
"207 241 CURVE SMOOTH",
"131 241 OFFCURVE",
"74 198 OFFCURVE",
"74 128 CURVE SMOOTH"
);
},
{
closed = 1;
nodes = (
"152 153 OFFCURVE",
"171 175 OFFCURVE",
"203 175 CURVE SMOOTH",
"254 175 OFFCURVE",
"301 140 OFFCURVE",
"343 111 CURVE",
"317 89 OFFCURVE",
"278 78 OFFCURVE",
"241 78 CURVE SMOOTH",
"186 78 OFFCURVE",
"152 99 OFFCURVE",
"152 130 CURVE SMOOTH"
);
},
{
closed = 1;
nodes = (
"178 572 OFFCURVE",
"217 595 OFFCURVE",
"264 595 CURVE SMOOTH",
"296 595 OFFCURVE",
"331 576 OFFCURVE",
"331 543 CURVE SMOOTH",
"331 516 OFFCURVE",
"307 496 OFFCURVE",
"265 496 CURVE SMOOTH",
"245 496 OFFCURVE",
"195 505 OFFCURVE",
"159 537 CURVE"
);
}
);
};
layerId = "1D9335A4-69BC-4202-817B-D13DAA30F854";
paths = (
{
closed = 1;
nodes = (
"74 56 OFFCURVE",
"144 13 OFFCURVE",
"232 13 CURVE SMOOTH",
"306 13 OFFCURVE",
"360 33 OFFCURVE",
"397 69 CURVE",
"444 38 OFFCURVE",
"474 22 OFFCURVE",
"523 22 CURVE SMOOTH",
"544 22 OFFCURVE",
"556 26 OFFCURVE",
"568 32 CURVE",
"558 92 LINE",
"551 89 OFFCURVE",
"538 87 OFFCURVE",
"528 87 CURVE SMOOTH",
"499 87 OFFCURVE",
"470 95 OFFCURVE",
"432 122 CURVE",
"438 137 OFFCURVE",
"442 155 OFFCURVE",
"442 180 CURVE SMOOTH",
"442 265 OFFCURVE",
"377 330 OFFCURVE",
"256 379 CURVE SMOOTH",
"203 402 OFFCURVE",
"167 427 OFFCURVE",
"154 472 CURVE",
"186 449 OFFCURVE",
"229 435 OFFCURVE",
"276 435 CURVE SMOOTH",
"353 435 OFFCURVE",
"409 480 OFFCURVE",
"409 544 CURVE SMOOTH",
"409 602 OFFCURVE",
"351 656 OFFCURVE",
"262 656 CURVE SMOOTH",
"145 656 OFFCURVE",
"77 587 OFFCURVE",
"77 497 CURVE SMOOTH",
"77 408 OFFCURVE",
"136 361 OFFCURVE",
"225 320 CURVE SMOOTH",
"323 278 OFFCURVE",
"364 233 OFFCURVE",
"364 176 CURVE",
"365 171 LINE",
"322 204 OFFCURVE",
"268 241 OFFCURVE",
"207 241 CURVE SMOOTH",
"131 241 OFFCURVE",
"74 198 OFFCURVE",
"74 128 CURVE SMOOTH"
);
},
{
closed = 1;
nodes = (
"152 153 OFFCURVE",
"171 175 OFFCURVE",
"203 175 CURVE SMOOTH",
"254 175 OFFCURVE",
"301 140 OFFCURVE",
"343 111 CURVE",
"317 89 OFFCURVE",
"278 78 OFFCURVE",
"241 78 CURVE SMOOTH",
"186 78 OFFCURVE",
"152 99 OFFCURVE",
"152 130 CURVE SMOOTH"
);
},
{
closed = 1;
nodes = (
"178 572 OFFCURVE",
"217 595 OFFCURVE",
"264 595 CURVE SMOOTH",
"296 595 OFFCURVE",
"331 576 OFFCURVE",
"331 543 CURVE SMOOTH",
"331 516 OFFCURVE",
"307 496 OFFCURVE",
"265 496 CURVE SMOOTH",
"245 496 OFFCURVE",
"195 505 OFFCURVE",
"159 537 CURVE"
);
}
);
width = 568;
}
);
unicode = 11DA9;
category = Number;
},
{
glyphname = YaMatraAa.GGondi;
lastChange = "2019-10-04 20:07:41 +0000";
layers = (
{
anchors = (
{
name = top;
position = "{816, 656}";
}
);
background = {
anchors = (
{
name = top;
position = "{816, 656}";
}
);
paths = (
{
closed = 1;
nodes = (
"777 561 LINE",
"777 511 OFFCURVE",
"764 455 OFFCURVE",
"744 410 CURVE",
"739 401 LINE",
"730 401 LINE SMOOTH",
"612 401 OFFCURVE",
"518 334 OFFCURVE",
"454 267 CURVE",
"416 286 OFFCURVE",
"389 300 OFFCURVE",
"368 312 CURVE",
"402 332 OFFCURVE",
"424 369 OFFCURVE",
"424 407 CURVE SMOOTH",
"424 473 OFFCURVE",
"371 508 OFFCURVE",
"314 510 CURVE SMOOTH",
"250 512 OFFCURVE",
"201 475 OFFCURVE",
"201 411 CURVE SMOOTH",
"201 382 OFFCURVE",
"212 358 OFFCURVE",
"228 342 CURVE",
"156 349 OFFCURVE",
"109 398 OFFCURVE",
"99 493 CURVE",
"28 493 LINE",
"38 336 OFFCURVE",
"140 279 OFFCURVE",
"255 279 CURVE SMOOTH",
"271 279 OFFCURVE",
"283 280 OFFCURVE",
"293 282 CURVE",
"304 275 OFFCURVE",
"314 269 OFFCURVE",
"319 266 CURVE SMOOTH",
"396 225 LINE",
"367 199 OFFCURVE",
"339 163 OFFCURVE",
"339 112 CURVE SMOOTH",
"339 43 OFFCURVE",
"393 3 OFFCURVE",
"469 3 CURVE",
"546 0 OFFCURVE",
"595 46 OFFCURVE",
"595 112 CURVE SMOOTH",
"595 164 OFFCURVE",
"559 209 OFFCURVE",
"521 233 CURVE",
"569 278 OFFCURVE",
"634 322 OFFCURVE",
"709 331 CURVE",
"699 306 OFFCURVE",
"692 279 OFFCURVE",
"692 253 CURVE SMOOTH",
"692 177 OFFCURVE",
"741 148 OFFCURVE",
"793 148 CURVE SMOOTH",
"856 148 OFFCURVE",
"896 182 OFFCURVE",
"896 251 CURVE SMOOTH",
"896 304 OFFCURVE",
"857 361 OFFCURVE",
"811 383 CURVE",
"840 441 OFFCURVE",
"854 498 OFFCURVE",
"855 556 CURVE",
"855 561 LINE",
"979 561 LINE",
"979 622 LINE",
"-20 622 LINE",
"-20 561 LINE"
);
},
{
closed = 1;
nodes = (
"276 440 OFFCURVE",
"300 449 OFFCURVE",
"314 449 CURVE SMOOTH",
"334 449 OFFCURVE",
"353 437 OFFCURVE",
"353 406 CURVE SMOOTH",
"353 385 OFFCURVE",
"336 362 OFFCURVE",
"312 347 CURVE",
"283 367 OFFCURVE",
"276 388 OFFCURVE",
"276 405 CURVE SMOOTH"
);
},
{
closed = 1;
nodes = (
"419 150 OFFCURVE",
"440 175 OFFCURVE",
"462 197 CURVE",
"496 177 OFFCURVE",
"517 150 OFFCURVE",
"517 120 CURVE SMOOTH",
"517 93 OFFCURVE",
"498 71 OFFCURVE",
"468 71 CURVE SMOOTH",
"435 71 OFFCURVE",
"419 92 OFFCURVE",
"419 118 CURVE SMOOTH"
);
},
{
closed = 1;
nodes = (
"765 278 OFFCURVE",
"772 301 OFFCURVE",
"781 327 CURVE",
"807 313 OFFCURVE",
"824 288 OFFCURVE",
"824 253 CURVE SMOOTH",
"824 224 OFFCURVE",
"813 209 OFFCURVE",
"795 209 CURVE SMOOTH",
"776 209 OFFCURVE",
"765 224 OFFCURVE",
"765 255 CURVE SMOOTH"
);
}
);
};
layerId = "1D9335A4-69BC-4202-817B-D13DAA30F854";
paths = (
{
closed = 1;
nodes = (
"777 561 LINE",
"777 511 OFFCURVE",
"764 455 OFFCURVE",
"744 410 CURVE",
"739 401 LINE",
"730 401 LINE SMOOTH",
"612 401 OFFCURVE",
"518 334 OFFCURVE",
"454 267 CURVE",
"416 286 OFFCURVE",
"389 300 OFFCURVE",
"368 312 CURVE",
"402 332 OFFCURVE",
"424 369 OFFCURVE",
"424 407 CURVE SMOOTH",
"424 473 OFFCURVE",
"371 508 OFFCURVE",
"314 510 CURVE SMOOTH",
"250 512 OFFCURVE",
"201 475 OFFCURVE",
"201 411 CURVE SMOOTH",
"201 382 OFFCURVE",
"212 358 OFFCURVE",
"228 342 CURVE",
"156 349 OFFCURVE",
"109 398 OFFCURVE",
"99 493 CURVE",
"28 493 LINE",
"38 336 OFFCURVE",
"140 279 OFFCURVE",
"255 279 CURVE SMOOTH",
"271 279 OFFCURVE",
"283 280 OFFCURVE",
"293 282 CURVE",
"304 275 OFFCURVE",
"314 269 OFFCURVE",
"319 266 CURVE SMOOTH",
"396 225 LINE",
"367 199 OFFCURVE",
"339 163 OFFCURVE",
"339 112 CURVE SMOOTH",
"339 43 OFFCURVE",
"393 3 OFFCURVE",
"469 3 CURVE",
"546 0 OFFCURVE",
"595 46 OFFCURVE",
"595 112 CURVE SMOOTH",
"595 164 OFFCURVE",
"559 209 OFFCURVE",
"521 233 CURVE",
"569 278 OFFCURVE",
"634 322 OFFCURVE",
"709 331 CURVE",
"699 306 OFFCURVE",
"692 279 OFFCURVE",
"692 253 CURVE SMOOTH",
"692 177 OFFCURVE",
"741 148 OFFCURVE",
"793 148 CURVE SMOOTH",
"856 148 OFFCURVE",
"896 182 OFFCURVE",
"896 251 CURVE SMOOTH",
"896 304 OFFCURVE",
"857 361 OFFCURVE",
"811 383 CURVE",
"840 441 OFFCURVE",
"854 498 OFFCURVE",
"855 556 CURVE",
"855 561 LINE",
"979 561 LINE",
"979 622 LINE",
"-20 622 LINE",
"-20 561 LINE"
);
},
{
closed = 1;
nodes = (
"276 440 OFFCURVE",
"300 449 OFFCURVE",
"314 449 CURVE SMOOTH",
"334 449 OFFCURVE",
"353 437 OFFCURVE",
"353 406 CURVE SMOOTH",
"353 385 OFFCURVE",
"336 362 OFFCURVE",
"312 347 CURVE",
"283 367 OFFCURVE",
"276 388 OFFCURVE",
"276 405 CURVE SMOOTH"
);
},
{
closed = 1;
nodes = (
"419 150 OFFCURVE",
"440 175 OFFCURVE",
"462 197 CURVE",
"496 177 OFFCURVE",
"517 150 OFFCURVE",
"517 120 CURVE SMOOTH",
"517 93 OFFCURVE",
"498 71 OFFCURVE",
"468 71 CURVE SMOOTH",
"435 71 OFFCURVE",
"419 92 OFFCURVE",
"419 118 CURVE SMOOTH"
);
},
{
closed = 1;
nodes = (
"765 278 OFFCURVE",
"772 301 OFFCURVE",
"781 327 CURVE",
"807 313 OFFCURVE",
"824 288 OFFCURVE",
"824 253 CURVE SMOOTH",
"824 224 OFFCURVE",
"813 209 OFFCURVE",
"795 209 CURVE SMOOTH",
"776 209 OFFCURVE",
"765 224 OFFCURVE",
"765 255 CURVE SMOOTH"
);
}
);
width = 969;
}
);
userData = {
com.typemytype.robofont.mark = (
1,
0.6,
0.741,
1
);
};
},
{
glyphname = VaMatraAa.GGondi;
lastChange = "2019-10-04 20:07:41 +0000";
layers = (
{
anchors = (
{
name = top;
position = "{504, 656}";
}
);
background = {
anchors = (
{
name = top;
position = "{504, 656}";
}
);
paths = (
{
closed = 1;
nodes = (
"466 561 LINE",
"466 442 LINE SMOOTH",
"466 399 OFFCURVE",
"476 367 OFFCURVE",
"496 342 CURVE",
"477 317 OFFCURVE",
"467 286 OFFCURVE",
"466 246 CURVE SMOOTH",
"466 245 LINE SMOOTH",
"466 141 OFFCURVE",
"405 87 OFFCURVE",
"315 87 CURVE SMOOTH",
"241 87 OFFCURVE",
"186 122 OFFCURVE",
"164 191 CURVE",
"245 198 OFFCURVE",
"328 241 OFFCURVE",
"328 347 CURVE SMOOTH",
"328 450 OFFCURVE",
"253 505 OFFCURVE",
"154 505 CURVE SMOOTH",
"129 505 OFFCURVE",
"105 501 OFFCURVE",
"84 496 CURVE",
"94 430 LINE",
"112 434 OFFCURVE",
"131 437 OFFCURVE",
"151 437 CURVE SMOOTH",
"208 437 OFFCURVE",
"250 408 OFFCURVE",
"250 348 CURVE SMOOTH",
"250 285 OFFCURVE",
"198 258 OFFCURVE",
"128 253 CURVE SMOOTH",
"77 249 LINE",
"77 241 LINE SMOOTH",
"77 112 OFFCURVE",
"169 19 OFFCURVE",
"314 19 CURVE SMOOTH",
"450 19 OFFCURVE",
"544 89 OFFCURVE",
"544 244 CURVE SMOOTH",
"544 259 LINE",
"563 236 OFFCURVE",
"590 224 OFFCURVE",
"624 224 CURVE SMOOTH",
"687 224 OFFCURVE",
"733 263 OFFCURVE",
"733 329 CURVE SMOOTH",
"733 403 OFFCURVE",
"681 441 OFFCURVE",
"626 441 CURVE SMOOTH",
"594 441 OFFCURVE",
"563 429 OFFCURVE",
"543 406 CURVE",
"543 561 LINE",
"782 561 LINE",
"782 622 LINE",
"-10 622 LINE",
"-10 561 LINE"
);
},
{
closed = 1;
nodes = (
"564 364 OFFCURVE",
"590 376 OFFCURVE",
"614 376 CURVE SMOOTH",
"643 376 OFFCURVE",
"661 357 OFFCURVE",
"661 330 CURVE SMOOTH",
"661 304 OFFCURVE",
"643 285 OFFCURVE",
"614 285 CURVE SMOOTH",
"587 285 OFFCURVE",
"562 306 OFFCURVE",
"550 329 CURVE"
);
}
);
};
layerId = "1D9335A4-69BC-4202-817B-D13DAA30F854";
paths = (
{
closed = 1;
nodes = (
"466 561 LINE",
"466 442 LINE SMOOTH",
"466 399 OFFCURVE",
"476 367 OFFCURVE",
"496 342 CURVE",
"477 317 OFFCURVE",
"467 286 OFFCURVE",
"466 246 CURVE SMOOTH",
"466 245 LINE SMOOTH",
"466 141 OFFCURVE",
"405 87 OFFCURVE",
"315 87 CURVE SMOOTH",
"241 87 OFFCURVE",
"186 122 OFFCURVE",
"164 191 CURVE",
"245 198 OFFCURVE",
"328 241 OFFCURVE",
"328 347 CURVE SMOOTH",
"328 450 OFFCURVE",
"253 505 OFFCURVE",
"154 505 CURVE SMOOTH",
"129 505 OFFCURVE",
"105 501 OFFCURVE",
"84 496 CURVE",
"94 430 LINE",
"112 434 OFFCURVE",
"131 437 OFFCURVE",
"151 437 CURVE SMOOTH",
"208 437 OFFCURVE",
"250 408 OFFCURVE",
"250 348 CURVE SMOOTH",
"250 285 OFFCURVE",
"198 258 OFFCURVE",
"128 253 CURVE SMOOTH",
"77 249 LINE",
"77 241 LINE SMOOTH",
"77 112 OFFCURVE",
"169 19 OFFCURVE",
"314 19 CURVE SMOOTH",
"450 19 OFFCURVE",
"544 89 OFFCURVE",
"544 244 CURVE SMOOTH",
"544 259 LINE",
"563 236 OFFCURVE",
"590 224 OFFCURVE",
"624 224 CURVE SMOOTH",
"687 224 OFFCURVE",
"733 263 OFFCURVE",
"733 329 CURVE SMOOTH",
"733 403 OFFCURVE",
"681 441 OFFCURVE",
"626 441 CURVE SMOOTH",
"594 441 OFFCURVE",
"563 429 OFFCURVE",
"543 406 CURVE",
"543 561 LINE",
"782 561 LINE",
"782 622 LINE",
"-10 622 LINE",
"-10 561 LINE"
);
},
{
closed = 1;
nodes = (
"564 364 OFFCURVE",
"590 376 OFFCURVE",
"614 376 CURVE SMOOTH",
"643 376 OFFCURVE",
"661 357 OFFCURVE",
"661 330 CURVE SMOOTH",
"661 304 OFFCURVE",
"643 285 OFFCURVE",
"614 285 CURVE SMOOTH",
"587 285 OFFCURVE",
"562 306 OFFCURVE",
"550 329 CURVE"
);
}
);
width = 772;
}
);
userData = {
com.typemytype.robofont.mark = (
1,
0.6,
0.741,
1
);
};
},
{
glyphname = BaMatraAa.GGondi;
lastChange = "2019-10-04 20:07:41 +0000";
layers = (
{
anchors = (
{
name = top;
position = "{812, 656}";
}
);
background = {
anchors = (
{
name = top;
position = "{812, 656}";
}
);
paths = (
{
closed = 1;
nodes = (
"772 561 LINE",
"768 522 OFFCURVE",
"757 480 OFFCURVE",
"740 440 CURVE SMOOTH",
"736 431 LINE",
"731 431 LINE SMOOTH",
"665 431 OFFCURVE",
"590 407 OFFCURVE",
"561 291 CURVE SMOOTH",
"538 198 LINE SMOOTH",
"518 119 OFFCURVE",
"470 87 OFFCURVE",
"403 87 CURVE SMOOTH",
"319 87 OFFCURVE",
"284 136 OFFCURVE",
"282 191 CURVE SMOOTH",
"279 274 OFFCURVE",
"326 308 OFFCURVE",
"326 379 CURVE SMOOTH",
"326 450 OFFCURVE",
"269 497 OFFCURVE",
"191 497 CURVE SMOOTH",
"122 497 OFFCURVE",
"56 457 OFFCURVE",
"56 373 CURVE SMOOTH",
"56 310 OFFCURVE",
"99 263 OFFCURVE",
"170 255 CURVE",
"183 317 LINE",
"153 323 OFFCURVE",
"134 342 OFFCURVE",
"134 376 CURVE SMOOTH",
"134 404 OFFCURVE",
"154 431 OFFCURVE",
"192 431 CURVE SMOOTH",
"227 431 OFFCURVE",
"248 407 OFFCURVE",
"248 376 CURVE SMOOTH",
"248 320 OFFCURVE",
"202 273 OFFCURVE",
"202 190 CURVE SMOOTH",
"202 84 OFFCURVE",
"282 19 OFFCURVE",
"402 19 CURVE SMOOTH",
"511 19 OFFCURVE",
"584 64 OFFCURVE",
"607 159 CURVE SMOOTH",
"636 277 LINE SMOOTH",
"649 328 OFFCURVE",
"674 355 OFFCURVE",
"709 363 CURVE",
"700 337 OFFCURVE",
"692 310 OFFCURVE",
"692 283 CURVE SMOOTH",
"692 207 OFFCURVE",
"739 178 OFFCURVE",
"789 178 CURVE SMOOTH",
"850 178 OFFCURVE",
"889 212 OFFCURVE",
"889 281 CURVE SMOOTH",
"889 334 OFFCURVE",
"851 390 OFFCURVE",
"807 413 CURVE",
"831 463 OFFCURVE",
"846 512 OFFCURVE",
"850 561 CURVE",
"972 561 LINE",
"972 622 LINE",
"-10 622 LINE",
"-10 561 LINE"
);
},
{
closed = 1;
nodes = (
"761 308 OFFCURVE",
"768 331 OFFCURVE",
"777 357 CURVE",
"803 343 OFFCURVE",
"820 318 OFFCURVE",
"820 283 CURVE SMOOTH",
"820 254 OFFCURVE",
"809 239 OFFCURVE",
"791 239 CURVE SMOOTH",
"772 239 OFFCURVE",
"761 254 OFFCURVE",
"761 285 CURVE SMOOTH"
);
}
);
};
layerId = "1D9335A4-69BC-4202-817B-D13DAA30F854";
paths = (
{
closed = 1;
nodes = (
"772 561 LINE",
"768 522 OFFCURVE",
"757 480 OFFCURVE",
"740 440 CURVE SMOOTH",
"736 431 LINE",
"731 431 LINE SMOOTH",
"665 431 OFFCURVE",
"590 407 OFFCURVE",
"561 291 CURVE SMOOTH",
"538 198 LINE SMOOTH",
"518 119 OFFCURVE",
"470 87 OFFCURVE",
"403 87 CURVE SMOOTH",
"319 87 OFFCURVE",
"284 136 OFFCURVE",
"282 191 CURVE SMOOTH",
"279 274 OFFCURVE",
"326 308 OFFCURVE",
"326 379 CURVE SMOOTH",
"326 450 OFFCURVE",
"269 497 OFFCURVE",
"191 497 CURVE SMOOTH",
"122 497 OFFCURVE",
"56 457 OFFCURVE",
"56 373 CURVE SMOOTH",
"56 310 OFFCURVE",
"99 263 OFFCURVE",
"170 255 CURVE",
"183 317 LINE",
"153 323 OFFCURVE",
"134 342 OFFCURVE",
"134 376 CURVE SMOOTH",
"134 404 OFFCURVE",
"154 431 OFFCURVE",
"192 431 CURVE SMOOTH",
"227 431 OFFCURVE",
"248 407 OFFCURVE",
"248 376 CURVE SMOOTH",
"248 320 OFFCURVE",
"202 273 OFFCURVE",
"202 190 CURVE SMOOTH",
"202 84 OFFCURVE",
"282 19 OFFCURVE",
"402 19 CURVE SMOOTH",
"511 19 OFFCURVE",
"584 64 OFFCURVE",
"607 159 CURVE SMOOTH",
"636 277 LINE SMOOTH",
"649 328 OFFCURVE",
"674 355 OFFCURVE",
"709 363 CURVE",
"700 337 OFFCURVE",
"692 310 OFFCURVE",
"692 283 CURVE SMOOTH",
"692 207 OFFCURVE",
"739 178 OFFCURVE",
"789 178 CURVE SMOOTH",
"850 178 OFFCURVE",
"889 212 OFFCURVE",
"889 281 CURVE SMOOTH",
"889 334 OFFCURVE",
"851 390 OFFCURVE",
"807 413 CURVE",
"831 463 OFFCURVE",
"846 512 OFFCURVE",
"850 561 CURVE",
"972 561 LINE",
"972 622 LINE",
"-10 622 LINE",
"-10 561 LINE"
);
},
{
closed = 1;
nodes = (
"761 308 OFFCURVE",
"768 331 OFFCURVE",
"777 357 CURVE",
"803 343 OFFCURVE",
"820 318 OFFCURVE",
"820 283 CURVE SMOOTH",
"820 254 OFFCURVE",
"809 239 OFFCURVE",
"791 239 CURVE SMOOTH",
"772 239 OFFCURVE",
"761 254 OFFCURVE",
"761 285 CURVE SMOOTH"
);
}
);
width = 962;
}
);
userData = {
com.typemytype.robofont.mark = (
1,
0.6,
0.741,
1
);
};
},
{
glyphname = BhaMatraAa.GGondi;
lastChange = "2019-10-04 20:07:41 +0000";
layers = (
{
anchors = (
{
name = top;
position = "{1115, 656}";
}
);
background = {
anchors = (
{
name = top;
position = "{1115, 656}";
}
);
paths = (
{
closed = 1;
nodes = (
"1075 561 LINE",
"1073 531 OFFCURVE",
"1064 498 OFFCURVE",
"1049 450 CURVE",
"1023 458 OFFCURVE",
"996 463 OFFCURVE",
"962 463 CURVE SMOOTH",
"884 463 OFFCURVE",
"812 438 OFFCURVE",
"766 395 CURVE",
"721 413 OFFCURVE",
"661 411 OFFCURVE",
"604 411 CURVE SMOOTH",
"450 411 LINE",
"450 347 LINE",
"480 323 OFFCURVE",
"508 276 OFFCURVE",
"508 212 CURVE SMOOTH",
"508 146 OFFCURVE",
"469 107 OFFCURVE",
"404 107 CURVE SMOOTH",
"346 107 OFFCURVE",
"302 141 OFFCURVE",
"302 203 CURVE SMOOTH",
"302 262 OFFCURVE",
"326 311 OFFCURVE",
"326 376 CURVE SMOOTH",
"326 449 OFFCURVE",
"267 497 OFFCURVE",
"187 497 CURVE SMOOTH",
"120 497 OFFCURVE",
"56 457 OFFCURVE",
"56 373 CURVE SMOOTH",
"56 310 OFFCURVE",
"99 263 OFFCURVE",
"170 255 CURVE",
"183 317 LINE",
"153 323 OFFCURVE",
"134 342 OFFCURVE",
"134 376 CURVE SMOOTH",
"134 404 OFFCURVE",
"153 431 OFFCURVE",
"188 431 CURVE SMOOTH",
"226 431 OFFCURVE",
"248 406 OFFCURVE",
"248 373 CURVE SMOOTH",
"248 322 OFFCURVE",
"222 271 OFFCURVE",
"222 202 CURVE SMOOTH",
"222 99 OFFCURVE",
"298 39 OFFCURVE",
"406 39 CURVE SMOOTH",
"519 39 OFFCURVE",
"586 102 OFFCURVE",
"586 206 CURVE SMOOTH",
"586 268 OFFCURVE",
"569 313 OFFCURVE",
"540 343 CURVE",
"602 343 LINE SMOOTH",
"654 343 OFFCURVE",
"693 347 OFFCURVE",
"723 342 CURVE",
"704 307 OFFCURVE",
"692 267 OFFCURVE",
"692 228 CURVE SMOOTH",
"692 149 OFFCURVE",
"740 118 OFFCURVE",
"795 118 CURVE SMOOTH",
"857 118 OFFCURVE",
"896 156 OFFCURVE",
"896 226 CURVE SMOOTH",
"896 275 OFFCURVE",
"873 320 OFFCURVE",
"833 358 CURVE",
"864 381 OFFCURVE",
"904 393 OFFCURVE",
"963 395 CURVE SMOOTH",
"990 395 OFFCURVE",
"1006 393 OFFCURVE",
"1023 389 CURVE",
"1009 345 OFFCURVE",
"994 296 OFFCURVE",
"994 249 CURVE SMOOTH",
"994 176 OFFCURVE",
"1042 148 OFFCURVE",
"1095 148 CURVE SMOOTH",
"1157 148 OFFCURVE",
"1196 184 OFFCURVE",
"1196 257 CURVE SMOOTH",
"1196 332 OFFCURVE",
"1156 387 OFFCURVE",
"1113 419 CURVE",
"1138 481 OFFCURVE",
"1152 514 OFFCURVE",
"1154 561 CURVE",
"1279 561 LINE",
"1279 622 LINE",
"-10 622 LINE",
"-10 561 LINE"
);
},
{
closed = 1;
nodes = (
"765 257 OFFCURVE",
"772 286 OFFCURVE",
"787 313 CURVE",
"810 293 OFFCURVE",
"824 263 OFFCURVE",
"824 228 CURVE SMOOTH",
"824 189 OFFCURVE",
"814 179 OFFCURVE",
"795 179 CURVE SMOOTH",
"775 179 OFFCURVE",
"765 195 OFFCURVE",
"765 230 CURVE SMOOTH"
);
},
{
closed = 1;
nodes = (
"1067 285 OFFCURVE",
"1076 322 OFFCURVE",
"1086 360 CURVE",
"1109 340 OFFCURVE",
"1124 306 OFFCURVE",
"1124 259 CURVE SMOOTH",
"1124 224 OFFCURVE",
"1114 209 OFFCURVE",
"1095 209 CURVE SMOOTH",
"1077 209 OFFCURVE",
"1067 223 OFFCURVE",
"1067 251 CURVE SMOOTH"
);
}
);
};
layerId = "1D9335A4-69BC-4202-817B-D13DAA30F854";
paths = (
{
closed = 1;
nodes = (
"1075 561 LINE",
"1073 531 OFFCURVE",
"1064 498 OFFCURVE",
"1049 450 CURVE",
"1023 458 OFFCURVE",
"996 463 OFFCURVE",
"962 463 CURVE SMOOTH",
"884 463 OFFCURVE",
"812 438 OFFCURVE",
"766 395 CURVE",
"721 413 OFFCURVE",
"661 411 OFFCURVE",
"604 411 CURVE SMOOTH",
"450 411 LINE",
"450 347 LINE",
"480 323 OFFCURVE",
"508 276 OFFCURVE",
"508 212 CURVE SMOOTH",
"508 146 OFFCURVE",
"469 107 OFFCURVE",
"404 107 CURVE SMOOTH",
"346 107 OFFCURVE",
"302 141 OFFCURVE",
"302 203 CURVE SMOOTH",
"302 262 OFFCURVE",
"326 311 OFFCURVE",
"326 376 CURVE SMOOTH",
"326 449 OFFCURVE",
"267 497 OFFCURVE",
"187 497 CURVE SMOOTH",
"120 497 OFFCURVE",
"56 457 OFFCURVE",
"56 373 CURVE SMOOTH",
"56 310 OFFCURVE",
"99 263 OFFCURVE",
"170 255 CURVE",
"183 317 LINE",
"153 323 OFFCURVE",
"134 342 OFFCURVE",
"134 376 CURVE SMOOTH",
"134 404 OFFCURVE",
"153 431 OFFCURVE",
"188 431 CURVE SMOOTH",
"226 431 OFFCURVE",
"248 406 OFFCURVE",
"248 373 CURVE SMOOTH",
"248 322 OFFCURVE",
"222 271 OFFCURVE",
"222 202 CURVE SMOOTH",
"222 99 OFFCURVE",
"298 39 OFFCURVE",
"406 39 CURVE SMOOTH",
"519 39 OFFCURVE",
"586 102 OFFCURVE",
"586 206 CURVE SMOOTH",
"586 268 OFFCURVE",
"569 313 OFFCURVE",
"540 343 CURVE",
"602 343 LINE SMOOTH",
"654 343 OFFCURVE",
"693 347 OFFCURVE",
"723 342 CURVE",
"704 307 OFFCURVE",
"692 267 OFFCURVE",
"692 228 CURVE SMOOTH",
"692 149 OFFCURVE",
"740 118 OFFCURVE",
"795 118 CURVE SMOOTH",
"857 118 OFFCURVE",
"896 156 OFFCURVE",
"896 226 CURVE SMOOTH",
"896 275 OFFCURVE",
"873 320 OFFCURVE",
"833 358 CURVE",
"864 381 OFFCURVE",
"904 393 OFFCURVE",
"963 395 CURVE SMOOTH",
"990 395 OFFCURVE",
"1006 393 OFFCURVE",
"1023 389 CURVE",
"1009 345 OFFCURVE",
"994 296 OFFCURVE",
"994 249 CURVE SMOOTH",
"994 176 OFFCURVE",
"1042 148 OFFCURVE",
"1095 148 CURVE SMOOTH",
"1157 148 OFFCURVE",
"1196 184 OFFCURVE",
"1196 257 CURVE SMOOTH",
"1196 332 OFFCURVE",
"1156 387 OFFCURVE",
"1113 419 CURVE",
"1138 481 OFFCURVE",
"1152 514 OFFCURVE",
"1154 561 CURVE",
"1279 561 LINE",
"1279 622 LINE",
"-10 622 LINE",
"-10 561 LINE"
);
},
{
closed = 1;
nodes = (
"765 257 OFFCURVE",
"772 286 OFFCURVE",
"787 313 CURVE",
"810 293 OFFCURVE",
"824 263 OFFCURVE",
"824 228 CURVE SMOOTH",
"824 189 OFFCURVE",
"814 179 OFFCURVE",
"795 179 CURVE SMOOTH",
"775 179 OFFCURVE",
"765 195 OFFCURVE",
"765 230 CURVE SMOOTH"
);
},
{
closed = 1;
nodes = (
"1067 285 OFFCURVE",
"1076 322 OFFCURVE",
"1086 360 CURVE",
"1109 340 OFFCURVE",
"1124 306 OFFCURVE",
"1124 259 CURVE SMOOTH",
"1124 224 OFFCURVE",
"1114 209 OFFCURVE",
"1095 209 CURVE SMOOTH",
"1077 209 OFFCURVE",
"1067 223 OFFCURVE",
"1067 251 CURVE SMOOTH"
);
}
);
width = 1269;
}
);
userData = {
com.typemytype.robofont.mark = (
1,
0.6,
0.741,
1
);
};
},
